<?xml version="1.0" encoding="UTF-8"?>
<svg id="Capa_2" data-name="Capa 2" xmlns="http://www.w3.org/2000/svg" xmlns:xlink="http://www.w3.org/1999/xlink" viewBox="0 0 337.79 115.34">
  <defs>
    <style>
      .cls-1 {
        fill: #fff;
      }

      .cls-2 {
        fill: #00a2bf;
      }

      .cls-3 {
        fill: url(#radial-gradient);
      }

      .cls-4 {
        clip-path: url(#clippath);
      }

      .cls-5 {
        fill: none;
      }

      .cls-6 {
        fill: #fabf0c;
      }

      .cls-7 {
        fill: #1d1d1b;
      }
    </style>
    <radialGradient id="radial-gradient" cx="94.31" cy="43.24" fx="94.31" fy="43.24" r="68.37" gradientTransform="translate(-7.98) scale(1.05 1)" gradientUnits="userSpaceOnUse">
      <stop offset="0" stop-color="#e3221a"/>
      <stop offset=".76" stop-color="#e02019"/>
      <stop offset="1" stop-color="#dd1e19"/>
    </radialGradient>
    <clipPath id="clippath">
      <path class="cls-5" d="M181.59,79.21c0,5.73-1.78,7.28-7.78,7.28H.37l-.13-10.38V8.31C.24,2.58,2.02,0,8.03,0H173.81c6.01,0,7.78,1.55,7.78,7.28V79.21Z"/>
    </clipPath>
  </defs>
  <g id="Layer_1" data-name="Layer 1">
    <g>
      <g>
        <path class="cls-7" d="M0,105.43c.66-.11,1.45-.19,2.31-.19,1.56,0,2.67,.38,3.4,1.05,.76,.69,1.2,1.67,1.2,3.04s-.44,2.51-1.21,3.29c-.8,.79-2.09,1.22-3.73,1.22-.79,0-1.42-.04-1.97-.1v-8.32Zm1.09,7.49c.27,.04,.67,.05,1.1,.05,2.33,0,3.58-1.31,3.58-3.6,.01-2-1.11-3.27-3.4-3.27-.56,0-.99,.05-1.27,.11v6.7Z"/>
        <path class="cls-7" d="M14.28,109.81h-3.25v3.06h3.64v.92h-4.74v-8.47h4.55v.92h-3.45v2.68h3.25v.9Z"/>
        <path class="cls-7" d="M21.97,105.31h1.1v7.56h3.59v.92h-4.69v-8.47Z"/>
        <path class="cls-7" d="M30.86,111.12l-.87,2.67h-1.12l2.87-8.47h1.3l2.87,8.47h-1.16l-.9-2.67h-2.98Zm2.77-.85l-.83-2.44c-.19-.55-.31-1.06-.44-1.55h-.03c-.12,.49-.25,1.02-.42,1.53l-.82,2.45h2.54Z"/>
        <path class="cls-7" d="M43.04,105.41c.52-.09,1.21-.16,2.08-.16,1.07,0,1.86,.25,2.36,.7,.45,.4,.73,1.02,.73,1.77s-.22,1.37-.65,1.81c-.59,.62-1.51,.93-2.57,.93-.33,0-.62-.01-.87-.07v3.39h-1.09v-8.37Zm1.09,4.09c.24,.06,.54,.09,.9,.09,1.31,0,2.11-.65,2.11-1.8s-.8-1.67-1.98-1.67c-.47,0-.84,.04-1.02,.09v3.29Z"/>
        <path class="cls-7" d="M51.31,105.42c.55-.1,1.35-.17,2.08-.17,1.16,0,1.92,.23,2.43,.69,.41,.38,.66,.96,.66,1.62,0,1.11-.7,1.85-1.57,2.15v.04c.64,.23,1.02,.83,1.22,1.71,.27,1.18,.47,2,.65,2.33h-1.12c-.14-.25-.33-.97-.55-2.02-.25-1.17-.71-1.61-1.69-1.65h-1.02v3.67h-1.09v-8.36Zm1.09,3.86h1.11c1.16,0,1.9-.64,1.9-1.61,0-1.09-.79-1.57-1.93-1.57-.52,0-.88,.04-1.07,.09v3.09Z"/>
        <path class="cls-7" d="M66.87,109.46c0,2.9-1.76,4.46-3.9,4.46s-3.78-1.75-3.78-4.31c0-2.69,1.65-4.45,3.89-4.45s3.79,1.77,3.79,4.3Zm-6.53,.12c0,1.82,.97,3.45,2.69,3.45s2.69-1.6,2.69-3.52c0-1.7-.87-3.46-2.68-3.46s-2.7,1.68-2.7,3.53Z"/>
        <path class="cls-7" d="M69.92,105.43c.66-.11,1.45-.19,2.31-.19,1.56,0,2.67,.38,3.4,1.05,.76,.69,1.2,1.67,1.2,3.04s-.44,2.51-1.21,3.29c-.8,.79-2.09,1.22-3.73,1.22-.79,0-1.42-.04-1.97-.1v-8.32Zm1.09,7.49c.27,.04,.67,.05,1.1,.05,2.33,0,3.58-1.31,3.58-3.6,.01-2-1.11-3.27-3.4-3.27-.56,0-.99,.05-1.27,.11v6.7Z"/>
        <path class="cls-7" d="M80.95,105.31v5.03c0,1.88,.84,2.69,1.96,2.69,1.23,0,2.04-.83,2.04-2.69v-5.03h1.1v4.95c0,2.6-1.36,3.66-3.18,3.66-1.72,0-3.02-.98-3.02-3.62v-4.99h1.1Z"/>
        <path class="cls-7" d="M95.43,113.52c-.39,.2-1.2,.4-2.22,.4-2.37,0-4.14-1.51-4.14-4.3s1.78-4.45,4.39-4.45c1.03,0,1.71,.23,1.99,.38l-.27,.89c-.4-.2-.98-.35-1.68-.35-1.97,0-3.28,1.27-3.28,3.49,0,2.09,1.18,3.41,3.22,3.41,.67,0,1.35-.14,1.78-.35l.21,.88Z"/>
        <path class="cls-7" d="M104.04,113.52c-.39,.2-1.2,.4-2.22,.4-2.37,0-4.14-1.51-4.14-4.3s1.78-4.45,4.39-4.45c1.03,0,1.71,.23,1.99,.38l-.27,.89c-.4-.2-.98-.35-1.68-.35-1.97,0-3.28,1.27-3.28,3.49,0,2.09,1.19,3.41,3.22,3.41,.67,0,1.35-.14,1.78-.35l.21,.88Z"/>
        <path class="cls-7" d="M108.13,105.31v8.47h-1.1v-8.47h1.1Z"/>
        <path class="cls-7" d="M118.83,109.46c0,2.9-1.76,4.46-3.9,4.46s-3.78-1.75-3.78-4.31c0-2.69,1.65-4.45,3.89-4.45s3.79,1.77,3.79,4.3Zm-6.53,.12c0,1.82,.97,3.45,2.69,3.45s2.69-1.6,2.69-3.52c0-1.7-.87-3.46-2.68-3.46s-2.71,1.68-2.71,3.53Zm4.51-6.22l-1.6,1.47h-.89l1.16-1.47h1.32Z"/>
        <path class="cls-7" d="M121.88,113.78v-8.47h1.2l2.68,4.29c.61,.99,1.11,1.88,1.5,2.75h.04c-.1-1.14-.12-2.18-.12-3.5v-3.54h1.02v8.47h-1.1l-2.67-4.3c-.58-.94-1.15-1.91-1.56-2.83h-.04c.06,1.08,.07,2.1,.07,3.51v3.62h-1.02Z"/>
        <path class="cls-7" d="M130.98,115.34c.27-.75,.61-2.1,.75-3.02l1.22-.12c-.3,1.07-.85,2.46-1.2,3.05l-.77,.09Z"/>
        <path class="cls-7" d="M140.2,105.31h1.1v7.56h3.59v.92h-4.69v-8.47Z"/>
        <path class="cls-7" d="M149.09,111.12l-.87,2.67h-1.12l2.87-8.47h1.3l2.87,8.47h-1.16l-.9-2.67h-2.98Zm2.77-.85l-.83-2.44c-.19-.55-.31-1.06-.44-1.55h-.03c-.12,.49-.25,1.02-.42,1.53l-.82,2.45h2.54Z"/>
        <path class="cls-7" d="M162.35,105.31v8.47h-1.1v-8.47h1.1Z"/>
        <path class="cls-7" d="M165.88,113.78v-8.47h1.2l2.68,4.29c.61,.99,1.11,1.88,1.5,2.75h.04c-.1-1.14-.12-2.18-.12-3.5v-3.54h1.02v8.47h-1.1l-2.67-4.3c-.59-.94-1.15-1.91-1.56-2.83h-.04c.06,1.08,.07,2.1,.07,3.51v3.62h-1.02Z"/>
        <path class="cls-7" d="M175.72,105.43c.66-.11,1.45-.19,2.31-.19,1.56,0,2.67,.38,3.4,1.05,.76,.69,1.2,1.67,1.2,3.04s-.44,2.51-1.21,3.29c-.8,.79-2.09,1.22-3.73,1.22-.79,0-1.42-.04-1.97-.1v-8.32Zm1.09,7.49c.27,.04,.67,.05,1.1,.05,2.33,0,3.58-1.31,3.58-3.6,.01-2-1.11-3.27-3.4-3.27-.56,0-.99,.05-1.27,.11v6.7Z"/>
        <path class="cls-7" d="M186.75,105.31v5.03c0,1.88,.84,2.69,1.96,2.69,1.23,0,2.04-.83,2.04-2.69v-5.03h1.1v4.95c0,2.6-1.36,3.66-3.18,3.66-1.72,0-3.02-.98-3.02-3.62v-4.99h1.1Z"/>
        <path class="cls-7" d="M195.23,112.45c.49,.31,1.18,.55,1.93,.55,1.11,0,1.76-.59,1.76-1.45,0-.78-.45-1.24-1.58-1.67-1.37-.5-2.22-1.23-2.22-2.41,0-1.32,1.08-2.3,2.72-2.3,.85,0,1.48,.2,1.85,.41l-.3,.89c-.26-.16-.82-.4-1.58-.4-1.15,0-1.58,.69-1.58,1.27,0,.79,.51,1.18,1.67,1.64,1.42,.55,2.13,1.24,2.13,2.49,0,1.31-.95,2.45-2.93,2.45-.81,0-1.69-.25-2.14-.55l.29-.92Z"/>
        <path class="cls-7" d="M204.74,106.24h-2.55v-.93h6.22v.93h-2.57v7.54h-1.1v-7.54Z"/>
        <path class="cls-7" d="M210.98,105.42c.55-.1,1.35-.17,2.08-.17,1.16,0,1.92,.23,2.43,.69,.41,.38,.66,.96,.66,1.62,0,1.11-.7,1.85-1.57,2.15v.04c.64,.23,1.02,.83,1.22,1.71,.27,1.18,.47,2,.65,2.33h-1.12c-.14-.25-.33-.97-.55-2.02-.25-1.17-.71-1.61-1.69-1.65h-1.02v3.67h-1.09v-8.36Zm1.09,3.86h1.11c1.16,0,1.9-.64,1.9-1.61,0-1.09-.79-1.57-1.93-1.57-.52,0-.89,.04-1.07,.09v3.09Z"/>
        <path class="cls-7" d="M220.41,105.31v8.47h-1.1v-8.47h1.1Z"/>
        <path class="cls-7" d="M225.29,111.12l-.87,2.67h-1.12l2.87-8.47h1.3l2.87,8.47h-1.16l-.9-2.67h-2.98Zm2.77-.85l-.83-2.44c-.19-.55-.31-1.06-.44-1.55h-.03c-.12,.49-.25,1.02-.42,1.53l-.82,2.45h2.54Z"/>
        <path class="cls-7" d="M238.77,113.78v-3.6l-2.67-4.88h1.25l1.18,2.34c.31,.64,.57,1.16,.84,1.75h.03c.22-.55,.52-1.11,.85-1.75l1.21-2.34h1.22l-2.81,4.86v3.61h-1.1Z"/>
        <path class="cls-7" d="M253.89,109.81h-3.25v3.06h3.64v.92h-4.74v-8.47h4.55v.92h-3.45v2.68h3.25v.9Z"/>
        <path class="cls-7" d="M257.31,105.31h1.1v7.56h3.59v.92h-4.69v-8.47Z"/>
        <path class="cls-7" d="M274.97,113.52c-.39,.2-1.2,.4-2.22,.4-2.37,0-4.14-1.51-4.14-4.3s1.78-4.45,4.39-4.45c1.03,0,1.71,.23,1.99,.38l-.27,.89c-.4-.2-.98-.35-1.68-.35-1.97,0-3.28,1.27-3.28,3.49,0,2.09,1.18,3.41,3.22,3.41,.67,0,1.35-.14,1.78-.35l.21,.88Z"/>
        <path class="cls-7" d="M284.9,109.46c0,2.9-1.76,4.46-3.9,4.46s-3.78-1.75-3.78-4.31c0-2.69,1.65-4.45,3.89-4.45s3.79,1.77,3.79,4.3Zm-6.53,.12c0,1.82,.97,3.45,2.69,3.45s2.69-1.6,2.69-3.52c0-1.7-.87-3.46-2.68-3.46s-2.71,1.68-2.71,3.53Z"/>
        <path class="cls-7" d="M295.03,110.06c-.06-1.18-.14-2.61-.14-3.66h-.03c-.3,.98-.64,2.05-1.06,3.22l-1.48,4.11h-.82l-1.37-4.04c-.4-1.21-.72-2.29-.96-3.29h-.03c-.02,1.06-.09,2.47-.16,3.75l-.22,3.63h-1.04l.59-8.47h1.38l1.43,4.1c.35,1.04,.62,1.97,.85,2.85h.03c.22-.85,.52-1.78,.9-2.85l1.5-4.1h1.38l.52,8.47h-1.07l-.2-3.72Z"/>
        <path class="cls-7" d="M303.95,109.81h-3.25v3.06h3.64v.92h-4.74v-8.47h4.55v.92h-3.45v2.68h3.25v.9Z"/>
        <path class="cls-7" d="M307.38,105.42c.55-.1,1.35-.17,2.08-.17,1.16,0,1.92,.23,2.43,.69,.41,.38,.66,.96,.66,1.62,0,1.11-.7,1.85-1.57,2.15v.04c.64,.23,1.02,.83,1.22,1.71,.27,1.18,.47,2,.65,2.33h-1.12c-.14-.25-.33-.97-.55-2.02-.25-1.17-.71-1.61-1.69-1.65h-1.02v3.67h-1.09v-8.36Zm1.09,3.86h1.11c1.16,0,1.9-.64,1.9-1.61,0-1.09-.79-1.57-1.93-1.57-.52,0-.88,.04-1.07,.09v3.09Z"/>
        <path class="cls-7" d="M321.62,113.52c-.39,.2-1.2,.4-2.22,.4-2.37,0-4.14-1.51-4.14-4.3s1.78-4.45,4.39-4.45c1.03,0,1.71,.23,1.99,.38l-.27,.89c-.4-.2-.98-.35-1.68-.35-1.97,0-3.28,1.27-3.28,3.49,0,2.09,1.18,3.41,3.22,3.41,.67,0,1.35-.14,1.78-.35l.21,.88Z"/>
        <path class="cls-7" d="M325.72,105.31v8.47h-1.1v-8.47h1.1Z"/>
        <path class="cls-7" d="M336.42,109.46c0,2.9-1.76,4.46-3.9,4.46s-3.78-1.75-3.78-4.31c0-2.69,1.65-4.45,3.89-4.45s3.79,1.77,3.79,4.3Zm-6.53,.12c0,1.82,.97,3.45,2.69,3.45s2.69-1.6,2.69-3.52c0-1.7-.87-3.46-2.68-3.46s-2.71,1.68-2.71,3.53Z"/>
      </g>
      <g>
        <path class="cls-7" d="M193.31,14.64c0-5.34,4.06-9.27,9.21-9.27,3.35,0,5.66,1.3,7.22,3.51l-2.17,1.54c-1.2-1.62-2.74-2.47-5.12-2.47-3.58,0-6.19,2.87-6.19,6.69s2.65,6.69,6.29,6.69c2.34,0,4.06-.88,5.42-2.63l2.2,1.51c-1.86,2.47-4.22,3.69-7.72,3.69-5.15,0-9.14-3.93-9.14-9.27Z"/>
        <path class="cls-7" d="M222.97,20.29h-7.32l-1.41,3.37h-2.87l7.91-18.43h.16l7.94,18.43h-3l-1.41-3.37Zm-6.29-2.5h5.26l-2.6-6.32-2.65,6.32ZM219.65,.35h3l-2.26,4.04h-2.07l1.33-4.04Z"/>
        <path class="cls-7" d="M229.9,5.24h.13l8.82,10.17,8.71-10.17h.13V23.66h-2.68V11.95l-6.16,7.35h-.13l-6.14-7.35v11.71h-2.68V5.24Z"/>
        <path class="cls-7" d="M261.81,20.29h-7.33l-1.41,3.37h-2.87l7.91-18.43h.16l7.94,18.43h-3l-1.41-3.37Zm-6.29-2.5h5.26l-2.6-6.32-2.66,6.32Z"/>
        <path class="cls-7" d="M271.58,23.66h-2.84V5.61h5.79c4.22,0,6.64,2.31,6.64,5.74,0,2.52-1.25,4.33-3.51,5.15l4.35,7.17h-3.11l-4.03-6.66h-3.29v6.66Zm2.84-9.11c2.68,0,3.8-1.06,3.8-3.21s-1.14-3.22-3.8-3.22h-2.84v6.43h2.84Z"/>
        <path class="cls-7" d="M294.54,20.29h-7.32l-1.41,3.37h-2.87l7.92-18.43h.16l7.93,18.43h-3l-1.41-3.37Zm-6.29-2.5h5.26l-2.61-6.32-2.66,6.32Z"/>
        <path class="cls-7" d="M204.39,51.27h-7.33l-1.41,3.37h-2.87l7.91-18.43h.16l7.94,18.43h-3l-1.41-3.37Zm-6.29-2.49h5.26l-2.6-6.32-2.66,6.32Z"/>
        <path class="cls-7" d="M214.16,54.64h-2.84v-18.05h5.79c4.22,0,6.64,2.31,6.64,5.73,0,2.52-1.25,4.33-3.5,5.15l4.35,7.17h-3.11l-4.04-6.66h-3.29v6.66Zm2.84-9.11c2.68,0,3.79-1.06,3.79-3.21s-1.14-3.21-3.79-3.21h-2.84v6.42h2.84Z"/>
        <path class="cls-7" d="M226.31,45.61c0-5.34,4.09-9.26,9.27-9.26,3.35,0,5.36,1.19,6.85,2.86l-1.97,1.86c-1.09-1.2-2.33-2.15-4.96-2.15-3.66,0-6.24,2.87-6.24,6.69s2.6,6.69,6.72,6.69c1.96,0,3.34-.45,4.38-1.14v-3.64h-4.83v-2.52h7.46v7.51c-1.51,1.25-3.61,2.36-7.01,2.36-5.55,0-9.67-3.93-9.67-9.27Z"/>
        <path class="cls-7" d="M246.39,36.58h11.5v2.52h-8.66v5.18h7.68v2.47h-7.68v5.36h9.03v2.52h-11.87v-18.05Z"/>
        <path class="cls-7" d="M264.23,42.77v11.87h-2.66v-18.32h.22l11.58,12.14v-11.87h2.65v18.32h-.21l-11.57-12.13Z"/>
        <path class="cls-7" d="M283.95,39.11h-5.37v-2.52h13.57v2.52h-5.36v15.53h-2.84v-15.53Z"/>
        <path class="cls-7" d="M294.84,36.58h2.84v18.05h-2.84v-18.05Z"/>
        <path class="cls-7" d="M304.34,42.77v11.87h-2.65v-18.32h.21l11.57,12.14v-11.87h2.66v18.32h-.21l-11.58-12.13Z"/>
        <path class="cls-7" d="M319.16,45.61c0-5.34,4.14-9.26,9.32-9.26s9.32,3.93,9.32,9.26-4.14,9.27-9.32,9.27-9.32-3.93-9.32-9.27Zm15.69,0c0-3.82-2.63-6.69-6.37-6.69s-6.37,2.87-6.37,6.69,2.63,6.69,6.37,6.69,6.37-2.86,6.37-6.69Z"/>
        <path class="cls-7" d="M193.31,76.58c0-5.33,4.06-9.27,9.21-9.27,3.35,0,5.66,1.3,7.22,3.5l-2.17,1.54c-1.2-1.61-2.74-2.46-5.12-2.46-3.58,0-6.19,2.87-6.19,6.69s2.65,6.69,6.29,6.69c2.34,0,4.06-.88,5.42-2.63l2.2,1.52c-1.86,2.47-4.22,3.69-7.72,3.69-5.15,0-9.14-3.93-9.14-9.27Z"/>
        <path class="cls-7" d="M224.54,67.56h2.84v18.05h-2.84v-7.54h-8.66v7.54h-2.84v-18.05h2.84v7.99h8.66v-7.99Z"/>
        <path class="cls-7" d="M231.39,67.56h2.84v18.05h-2.84v-18.05Z"/>
        <path class="cls-7" d="M240.89,73.74v11.87h-2.66v-18.32h.22l11.57,12.14v-11.87h2.66v18.32h-.22l-11.57-12.14Z"/>
        <path class="cls-7" d="M266.78,82.24h-7.33l-1.41,3.37h-2.87l7.91-18.43h.16l7.94,18.43h-3l-1.4-3.37Zm-6.29-2.49h5.26l-2.6-6.32-2.66,6.32Z"/>
      </g>
      <g>
        <path class="cls-3" d="M181.56,79.21c0,5.73-1.77,7.28-7.78,7.28H.35l-.13-10.38V7.28C.22,1.55,3.02,0,9.04,0H173.78c6.01,0,7.78,1.55,7.78,7.28V79.21Z"/>
        <g>
          <polygon class="cls-6" points="18.96 17.92 20.93 21.91 25.34 22.55 22.15 25.65 22.9 30.04 18.96 27.97 15.02 30.04 15.77 25.65 12.59 22.55 16.99 21.91 18.96 17.92"/>
          <polygon class="cls-6" points="37.88 17.91 38.65 19.47 40.38 19.73 39.13 20.94 39.42 22.66 37.88 21.85 36.33 22.66 36.63 20.94 35.38 19.73 37.11 19.47 37.88 17.91"/>
          <polygon class="cls-6" points="38.02 27.44 38.79 29.01 40.52 29.26 39.27 30.48 39.57 32.2 38.02 31.39 36.48 32.2 36.77 30.48 35.52 29.26 37.25 29.01 38.02 27.44"/>
          <polygon class="cls-6" points="31.15 34.78 31.93 36.35 33.66 36.6 32.4 37.82 32.7 39.54 31.15 38.73 29.61 39.54 29.91 37.82 28.65 36.6 30.38 36.35 31.15 34.78"/>
          <polygon class="cls-6" points="30.79 11.66 31.56 13.23 33.29 13.48 32.04 14.7 32.34 16.42 30.79 15.61 29.25 16.42 29.54 14.7 28.29 13.48 30.02 13.23 30.79 11.66"/>
        </g>
        <g class="cls-4">
          <path class="cls-2" d="M-1.23,76.54v10.11H186.5V8.75C114.07,14.19,79.45,74.28-1.23,76.54Z"/>
          <path class="cls-1" d="M-6.07,79.75l-1.03,10.19,189.29,19.13,7.93-78.54c-73.58-1.89-114.61,55.17-196.19,49.22Z"/>
          <path class="cls-2" d="M-.48,82.99l-1.91,9.92,184.36,35.43,14.66-72.17C124.48,47.86,79.84,90.92-.48,82.99Z"/>
        </g>
        <polygon class="cls-6" points="155.17 41.59 156.43 37 156.42 41.78 158.84 37.75 157.56 42.34 160.94 39.19 158.5 43.21 162.59 41.21 159.18 44.33 163.63 43.64 159.54 45.62 163.99 46.28 159.54 46.95 163.63 48.93 159.18 48.23 162.59 51.35 158.5 49.35 160.94 53.37 157.56 50.23 158.84 54.81 156.42 50.78 156.43 55.57 155.17 50.97 153.92 55.57 153.93 50.78 151.51 54.81 152.79 50.23 149.41 53.37 151.84 49.35 147.76 51.35 151.17 48.23 146.72 48.93 150.82 46.95 146.37 46.28 150.82 45.62 146.72 43.64 151.17 44.33 147.76 41.21 151.84 43.21 149.41 39.19 152.79 42.34 151.51 37.75 153.93 41.78 153.92 37 155.17 41.59"/>
      </g>
    </g>
  </g>
</svg>