<?xml version="1.0" encoding="UTF-8"?>
<svg id="Capa_2" data-name="Capa 2" xmlns="http://www.w3.org/2000/svg" viewBox="0 0 560.26 83.67">
  <g id="Capa_1-2" data-name="Capa 1">
    <g>
      <path d="M245.35,52.26c0-1.07,0-2.14,0-3.2,0-14.64,0-29.28,0-43.91,0-2.04,.01-2.04,2-2.05,2.01,0,4.01,0,6.02,0q2.19,0,2.19,2.13c0,18.8,0,37.6,0,56.4,0,3.67-.03,7.34,.02,11.01,.01,1.07-.3,1.51-1.41,1.47-1.91-.07-3.82,.05-5.72-.06-.57-.03-1.31-.43-1.64-.9-6.29-9.03-12.52-18.1-18.78-27.15-3.43-4.95-6.91-9.86-10.35-14.79-1.15-1.64-2.24-3.32-3.37-4.97-.23-.33-.5-.64-1.12-.85,0,.51,0,1.02,0,1.53,0,15.13-.02,30.25,.03,45.38,0,1.43-.42,1.88-1.83,1.83-2.35-.1-4.7-.06-7.05,0-1.07,.03-1.49-.31-1.45-1.42,.06-2.35,.02-4.7,.02-7.05,0-20.17,0-40.34,0-60.51q0-2.06,2.09-2.04c1.52,0,3.04,.05,4.55,0,.89-.03,1.41,.3,1.91,1.02,6.35,9.23,12.72,18.44,19.1,27.65,4.54,6.56,9.09,13.1,13.64,19.65,.24,.35,.53,.66,.8,.98,.12-.04,.25-.08,.37-.12Z"/>
      <path d="M190.78,38.58c.01,20.08-16.23,36.41-36.22,36.42-19.92,0-36.15-16.36-36.18-36.48-.03-19.83,16.44-36.36,36.24-36.35,19.74,0,36.15,16.53,36.16,36.41Zm-10.35-.03c-.05-14.39-11.73-26.06-26.07-26.03-13.85,.03-25.69,12.07-25.64,26.07,.05,14.3,11.8,26.12,25.9,26.07,14.24-.04,25.85-11.8,25.8-26.12Z"/>
      <path d="M88.72,47.51c7.46,8.86,14.74,17.52,22.05,26.21-.26,.18-.38,.32-.49,.32-3.92,.03-7.83,.07-11.75,.02-.49,0-1.09-.43-1.43-.83-7.56-9.05-15.08-18.12-22.61-27.19-.28-.34-.51-.75-.85-1-2.12-1.57-1.86-3.83-1.68-6.01,.03-.33,.84-.85,1.31-.86,3.52-.08,7.05-.03,10.57-.05,3.49-.02,6.7-.9,9.25-3.42,3.72-3.68,4.58-8.18,3.02-12.99-1.65-5.08-5.51-7.85-10.77-8.13-5.32-.29-10.67-.08-16-.11-.86,0-1.28,.3-1.22,1.2,.04,.58,0,1.17,0,1.76,0,18.55,0,37.1,0,55.66q0,2.01-2,2.01c-2.2,0-4.41-.04-6.61,.02-1.17,.04-1.62-.41-1.51-1.54,.04-.39,0-.78,0-1.17,0-21.98,0-43.96,0-65.94q0-2.36,2.41-2.36c7.93,0,15.86-.05,23.79,.02,5.97,.05,11.44,1.7,15.83,5.91,5.54,5.31,7.65,11.96,6.83,19.49-.69,6.27-3.53,11.52-8.79,15.11-2.06,1.41-4.56,2.17-6.88,3.18-.66,.29-1.39,.4-2.47,.7Z"/>
      <path d="M548.99,44.19c-2.85,.2-5.35,.17-7.78,.58-6.49,1.1-13.05,2.03-19.41,3.7-8.68,2.28-17.29,4.91-25.76,7.89-6.58,2.32-12.92,5.34-19.31,8.17-3.3,1.46-6.5,3.17-9.74,4.76-.25,.12-.52,.19-.99,.35,.81-2.29,1.56-4.39,2.3-6.49,2.86-8.11,3.97-16.52,4.15-25.07,.02-1.21,.35-2.08,1.28-2.92,7.28-6.53,15.38-11.69,24.47-15.36,1.81-.73,3.13-.57,4.76,.3,8.02,4.28,16.1,8.46,24.16,12.66,6.85,3.57,13.7,7.13,20.55,10.69,.34,.18,.66,.37,1.32,.75Z"/>
      <path d="M329.87,73.96c-.83,.05-1.43,.12-2.04,.12-2.5,.01-4.99-.03-7.49,.02-.98,.02-1.51-.32-1.86-1.24-.86-2.23-1.86-4.42-2.72-6.65-.35-.9-.81-1.3-1.82-1.3-10.86,.03-21.73,.03-32.59,0-.94,0-1.42,.35-1.75,1.19-.9,2.32-1.82,4.64-2.82,6.92-.19,.44-.78,1-1.19,1-3.18,.07-6.36,.02-9.54,0-.13,0-.25-.12-.53-.27,.79-2.03,1.56-4.07,2.37-6.09,5.92-14.84,11.86-29.68,17.77-44.53,2.58-6.49,5.15-12.99,7.65-19.52,.45-1.18,1.08-1.55,2.28-1.48,1.46,.09,2.94,.07,4.4,0,1.03-.05,1.56,.32,1.94,1.31,3.76,9.6,7.57,19.19,11.38,28.77,2.38,6,4.81,11.98,7.19,17.97,3.02,7.58,6.01,15.17,9.02,22.76,.09,.22,.16,.45,.35,.99Zm-32.11-54.98c-.35,.82-.53,1.21-.67,1.62-1.53,4.13-3.03,8.26-4.57,12.38-2.54,6.82-5.09,13.64-7.65,20.45-.32,.85-.08,1.18,.81,1.18,7.98,0,15.95,0,23.93,0,.99,0,1.19-.38,.86-1.27-3.88-10.55-7.73-21.1-11.6-31.66-.28-.76-.61-1.51-1.1-2.7Z"/>
      <path d="M391.93,38.7c0-11.21,0-22.42,0-33.63,0-1.91,0-1.91,1.85-1.91,13.12,0,26.24,0,39.35,0,2.12,0,2.12,0,2.12,2.12,0,2.2-.06,4.41,.02,6.61,.05,1.24-.4,1.58-1.6,1.57-9.59-.04-19.19-.02-28.78-.02-.44,0-.88,.03-1.32,0-.94-.06-1.3,.35-1.3,1.3,.02,5.82,.02,11.65,0,17.47,0,.84,.35,1.14,1.14,1.13,1.42-.02,2.84,0,4.26,0,6.71,0,13.41,0,20.12,.01,2,0,2,.02,2,2.07,0,2.25-.06,4.51,.03,6.75,.05,1.29-.41,1.7-1.68,1.69-7.98-.04-15.96,.01-23.94-.06-1.46-.01-1.97,.36-1.95,1.87,.08,5.48,.07,10.96,0,16.45-.01,1.35,.43,1.78,1.77,1.77,9.74-.04,19.48-.02,29.22-.02q2.13,0,2.14,2.1c0,2.25-.02,4.5,.02,6.75,.02,1.01-.4,1.37-1.4,1.37-13.56-.02-27.12-.03-40.68,0-1.28,0-1.4-.61-1.4-1.63,.02-11.26,.01-22.52,.01-33.77Z"/>
      <path d="M.03,38.57C.03,27.26,.04,15.96,0,4.65c0-1.25,.42-1.59,1.61-1.58,8.32,.04,16.64-.03,24.96,.04,6.57,.06,12.36,2.29,16.69,7.3,4.44,5.14,6.23,11.33,5.84,18.11-.32,5.44-2.15,10.36-5.65,14.51-3.3,3.91-7.61,6.5-12.69,6.96-5.88,.53-11.81,.39-17.73,.51-2.93,.06-2.64-.36-2.64,2.68,0,6.46-.03,12.92,.02,19.38,.01,1.26-.43,1.59-1.62,1.55-2.35-.08-4.7-.1-7.04,0C.36,74.16,0,73.66,0,72.33c.04-11.25,.03-22.51,.03-33.76Zm10.35-11.66h0c0,3.96,.03,7.92-.02,11.88-.01,1.13,.34,1.57,1.51,1.56,4.84-.05,9.68,.06,14.52-.09,1.72-.05,3.56-.34,5.11-1.03,5.47-2.46,8.28-8.27,7.32-14.61-1.02-6.79-5.97-11.14-12.75-11.17-4.55-.02-9.09,0-13.64,0-2.05,0-2.06,.02-2.06,2.01,0,3.81,0,7.63,0,11.44Z"/>
      <path d="M318.96,3.23c3.67,0,7.03-.05,10.39,.06,.41,.01,.96,.76,1.17,1.28,2.05,5.08,4.03,10.19,6.06,15.28,2.28,5.72,4.61,11.43,6.9,17.15,2.32,5.81,4.61,11.64,6.92,17.45,.17,.43,.39,.84,.71,1.54,.35-.72,.59-1.14,.76-1.57,4.82-11.98,9.65-23.95,14.46-35.94,1.86-4.63,3.71-9.26,5.5-13.92,.4-1.04,.98-1.42,2.07-1.4,3.02,.05,6.04,.02,9.31,.02-.26,.84-.41,1.43-.63,2-5.07,12.61-10.15,25.22-15.22,37.84-3.74,9.3-7.46,18.61-11.2,27.91-1.39,3.46-1.42,3.47-5.13,3.43-4.56-.05-3.4,.68-5.08-3.43-4.31-10.54-8.52-21.13-12.76-31.71-3.97-9.89-7.95-19.78-11.9-29.69-.79-1.98-1.48-4-2.33-6.31Z"/>
      <path d="M560.26,54.81c-1.62,2.52-3.06,4.77-4.51,7.02-4.46,6.9-8.94,13.78-13.36,20.7-.71,1.11-1.18,1.48-2.61,.81-5.37-2.52-11-4.35-16.89-5.19-6.92-.98-13.84-2.11-20.8-2.62-6.96-.51-13.98-.5-20.97-.42-4.88,.06-9.75,.62-14.63,.95-.18,.01-.36-.05-.62-.35,2.02-.9,4-1.89,6.06-2.68,9.21-3.53,18.36-7.28,27.7-10.43,9.54-3.22,19.31-5.62,29.33-6.97,9.55-1.29,19.1-1.5,28.69-1.12,.77,.03,1.54,.17,2.6,.29Z"/>
      <path d="M464.42,0c9.32,5,18.24,9.78,27.25,14.61-3.49,1.99-6.84,3.76-10.05,5.76-3.22,2.01-6.29,4.25-9.7,6.57-.74-9.37-3.6-18.09-7.5-26.95Z"/>
    </g>
  </g>
</svg>