<?xml version="1.0" encoding="UTF-8"?>
<svg id="Capa_2" data-name="Capa 2" xmlns="http://www.w3.org/2000/svg" viewBox="0 0 655.95 224.75">
  <defs>
    <style>
      .cls-1 {
        fill: #fff;
      }
    </style>
  </defs>
  <g id="Capa_1-2" data-name="Capa 1">
    <path class="cls-1" d="M.06,182.88H652.56c3.31,0,3.32,0,3.32-3.43V61.31c0-1.86-.55-2.5-2.47-2.45-4.87,.13-9.75,0-14.63,0q-3.44,0-3.44,3.54v96.58c0,3.32,0,3.33-3.21,3.33H23.93c-3.16,0-3.18,0-3.18-3.11V23.56c0-.92,.1-1.84,.16-3H591.76c.88-.05,1.76-.05,2.64,0,2,.21,2.82-.44,2.74-2.64-.16-5-.2-9.91,0-14.86,.11-2.5-.71-3.07-3.08-3.06C576.39,.08,558.72,0,541.06,0H3.82C-.78,0,.07,0,.07,3.69V182.88ZM488.58,91.04l-.64,.16c-.4-.67-.82-1.33-1.19-2-4.31-7.92-8.57-15.86-12.94-23.74-1.26-2.49-2.77-4.84-4.53-7-6.3-7.15-14.75-5.83-22.92-5.67v77.48c6,0,11.82-.11,17.63,.05,2.38,.06,3-.75,2.93-3-.1-10.94,0-21.88,0-32.82v-2.63c.74,.4,1.33,1.02,1.7,1.77,6.21,11.42,12.46,22.82,18.57,34.29,.67,1.59,2.3,2.54,4.01,2.34,5-.16,9.91-.2,14.86,0,2.52,.1,3.06-.79,3.05-3.13-.09-17.89-.05-35.77-.05-53.66v-18.44c0-1.87-.57-2.5-2.48-2.44-3.83,.14-7.67,0-11.5,0-5,0-6.55,1.54-6.56,6.58v29l.06,2.86Zm-156.08-5c-1.21,.05-2.08,.12-2.94,.12h-15.36q-3.43,0-3.44-3.37v-24.67c0-2.93-1.39-5.14-3.86-5.25-5.47-.25-11-.08-16.49-.08v77.25h20.36v-3c0-7.5,.05-15,0-22.52,0-1.79,.57-2.36,2.33-2.34,5.83,.08,11.67,0,17.5,.05,.67,.06,1.34,.16,2,.31v27.73h18.94c1.73,0,1.64-1.13,1.64-2.27V54.93c0-1.85-.68-2.3-2.4-2.26-4.23,.11-8.47,0-12.71,0-3.48,0-5.47,2-5.59,5.48-.06,1.84,0,3.67,0,5.51l.02,22.38Zm102.64,44.23c-.06-.51-.16-1.01-.28-1.51-8.06-24.78-16.11-49.56-24.14-74.34-.48-1.47-1.27-1.73-2.62-1.72-5.43,.06-10.87,.12-16.31,0-2,0-2.7,.58-3.3,2.42-6.91,21.46-13.93,42.88-20.91,64.32-1.15,3.53-2.25,7.07-3.46,10.87,6.65,0,13,0,19.26-.07,.59,0,1.45-.85,1.69-1.49,1.32-3.67,2.56-7.37,3.69-11.11,.17-1.2,1.28-2.03,2.48-1.86,.01,0,.03,0,.04,0,5.6,.08,11.19,.09,16.79,0,1.27-.2,2.45,.67,2.65,1.93,0,.02,0,.04,0,.07,1.05,3.6,2.2,7.16,3.45,10.69,.26,.73,1.15,1.74,1.76,1.75,6.31,.04,12.61,.04,19.2,.04Zm-156,0c-.24-.95-.35-1.55-.54-2.14-8-24.54-15.97-49.09-23.9-73.64-.19-1.19-1.32-2.01-2.51-1.81,0,0-.01,0-.02,0-5.27,.07-10.55,.19-15.82,0-2.46-.11-3.4,.73-4.12,3-5.82,18.21-11.77,36.38-17.67,54.56-2.14,6.57-4.25,13.15-6.48,20.06,6.75,0,13.2,0,19.64-.07,.49,0,1.18-.94,1.4-1.57,1.28-3.68,2.5-7.39,3.63-11.13,.17-1.13,1.22-1.9,2.34-1.73,0,0,.02,0,.03,0,3.76,.08,7.51,0,11.27,0,2.47,0,5.56-.77,7.23,.41s1.85,4.35,2.68,6.65c.11,.3,.23,.6,.33,.9,.74,2.09,.9,5,2.38,6.05s4.45,.44,6.75,.47c4.44,0,8.77,0,13.44,0h-.06ZM147.2,52.79v10.3c0,4,1.74,5.69,5.69,5.71,5.19,0,10.39,.1,15.58,0,2.16-.06,2.85,.53,2.84,2.78-.09,18.52-.05,37-.05,55.57v2.95h20.46v-58.57c0-2,.44-2.8,2.63-2.73,5.19,.16,10.39,0,15.58,0h5.67v-16h-68.4ZM628.83,.38c-6,0-12,.06-18,0-1.94,0-2.7,.55-2.65,2.58,.11,4.94,.13,9.9,0,14.85,0,2.12,.66,2.75,2.75,2.72,7-.11,14.07,0,21.1,0q3.53,0,3.54,3.64v21.08c0,1.94,.55,2.68,2.58,2.64,5-.12,9.91-.13,14.86,0,2.13,.06,2.73-.67,2.72-2.75-.08-11.58,0-23.16,0-34.74,0-6.19-3.78-9.9-10.05-9.94-5.66-.11-11.26-.08-16.85-.08ZM232.03,223.8c0-4.88-.07-9.81,0-14.74,0-1.8-.55-2.35-2.32-2.36s-2.58,.58-2.46,2.49c.14,2.17,0,4.35,0,6.53l-.66,.16c-.53-.74-1.07-1.48-1.58-2.24-1.28-1.93-2.29-4.13-3.91-5.71-.92-.89-2.8-.86-4.27-1.05-.3,0-1,.81-1,1.25-.07,5.24-.05,10.49-.05,15.88h4.72v-8.66c.43,.08,.65,.05,.71,.14,1.36,2,2.72,3.93,4.05,5.92,2.17,3.17,2.51,3.31,6.77,2.39Zm161.87-7.95l-.48,.18c-.31-.42-.64-.83-.93-1.27-1.5-2.27-3-4.53-4.47-6.81-1.25-1.94-3.15-1.18-4.77-1-.39,.05-.78,1.65-.82,2.55-.12,2.23,0,4.47,0,6.71v7.79h4.68v-8.82l.6-.19,4.31,6.43c2.11,3.15,2.32,3.23,6.57,2.37,0-5.18,0-10.43-.06-15.67-.17-.62-.64-1.1-1.25-1.29-1.11-.07-2.23-.03-3.34,.11l-.04,8.91Zm-81.7-.16l-.65,.18c-.42-.56-.85-1.11-1.24-1.68-1.41-2.13-2.58-4.48-4.3-6.31-.81-.87-2.66-.85-4.06-1-.36,0-1.17,.7-1.17,1.1-.08,5.31-.06,10.63-.06,16h4.73v-8.84c1.78,1.99,3.39,4.12,4.82,6.37,2,3,2.87,3.31,6.45,2.23v-16.61c-4.12-1-4.52-.68-4.52,3.15v5.41Zm224.67-.28l.7-.2c1.76,2.64,3.52,5.27,5.27,7.92,1.22,1.86,3.06,1,4.6,.86,.37,0,.89-1.64,.91-2.53,.1-4.15,0-8.31,.06-12.46,0-1.62-.56-2.25-2.23-2.29-1.88,0-2.58,.65-2.49,2.52,.11,2.2,0,4.42,0,6.63l-.73,.05c-1.76-2.65-3.53-5.29-5.25-8-1.2-1.86-3-1.25-4.54-1-.48,.09-.93,1.65-.95,2.55-.1,4.23,0,8.46-.06,12.69,0,1.65,.74,2,2.2,2s2.58,0,2.51-1.91c-.04-2.24,.03-4.54,.03-6.83h-.03Zm-84.87-.14l.66-.12c1.71,2.57,3.5,5.09,5.1,7.73,1.23,2,3.1,1.35,4.69,1.15,.46-.06,1-1.73,1-2.67,.11-4.07,0-8.14,.07-12.2,0-1.72-.56-2.42-2.35-2.42s-2.45,.62-2.37,2.38c.09,2.26,0,4.52,0,6.78l-.66,.12c-1.74-2.64-3.52-5.26-5.19-7.94-1.17-1.87-3-1.44-4.49-1.09-.56,.12-1.1,1.7-1.13,2.63-.12,4.06,0,8.13-.07,12.2,0,1.64,.35,2.45,2.25,2.45s2.58-.59,2.48-2.46c-.08-2.21,.01-4.39,.01-6.54Zm59.87,.06c-.09,4.93,3.84,8.99,8.77,9.08s8.99-3.84,9.08-8.77h0c.07-5.35-3.57-9.07-8.89-9.08-4.69-.24-8.7,3.36-8.94,8.06-.01,.22-.01,.44,0,.65v.06Zm-406.87,.31c0-5.36-3.45-9-8.64-9.08s-9,3.5-9.11,8.65c-.07,5.39,3.55,9.22,8.79,9.32,4.79,.16,8.8-3.59,8.96-8.37,0-.18,0-.37,0-.55v.03Zm184.32-9.08c-4.83-.2-8.91,3.57-9.11,8.4,0,.2,0,.4,0,.6,0,4.97,4.03,9,9,9,4.89,.08,8.92-3.81,9-8.7,0-.13,0-.27,0-.4,.19-4.75-3.51-8.74-8.26-8.93-.21,0-.42,0-.63,0v.03Zm-174,10.94l4.55,.39c-1.48,2.44-3.71,3.05-6,1.82s-2.82-4.41-1.48-6.78c1.09-1.94,3.38-2.3,5.65-1.38,1.73,.53,3.52,.9,5.32,1.09l.62-1c-1-1.21-1.78-2.7-3-3.59-3.72-2.72-9.86-1.6-12.45,2.08s-1.92,9.66,1.51,12.41c3.65,2.94,9.7,2.28,12.81-1.23,1.6-1.8,1.25-3.84,1.16-5.88-.13-.42-.47-.75-.9-.86-2.59-.07-5.19,0-7.81,0l.02,2.93Zm320.07,.69l.67-.23c.65,1.13,1.34,2.24,2,3.38,1.73,3.17,2.8,3.59,6.54,2.37l-3.42-6c.38-.3,.61-.52,.86-.69,2.49-1.64,3.23-3.33,2.65-6-.5-2.35-2.08-3.76-5-4-2.47-.18-4.94-.21-7.41-.1-.5,0-1.41,.71-1.42,1.11-.09,5.31-.06,10.63-.06,16.06h4.61l-.02-5.9Zm-226.28,6c-2.06-5.66-3.93-11-6-16.22-.53-.71-1.36-1.13-2.25-1.13-1.33,0-3.52,.15-3.83,.87-2.23,5.31-4.09,10.77-6.35,17,2.26-.56,4.46-.44,5.27-1.44,2.11-2.62,6.17-2.81,7.91,0,.35,.47,.87,.78,1.45,.86,1.26,.08,2.52,.09,3.78,.04l.02,.02Zm359.44-.08c-2.09-5.71-4-11-6-16.26-.24-.6-1.67-1-2.53-1-1.21,0-3.2,.26-3.49,1-2.2,5.27-4.06,10.67-6,16.08,3.72,.66,3.43,.09,5.75-1.64,1.44-1.08,4.32-.25,6.55-.27,.69,3.25,3.22,1.96,5.7,2.07l.02,.02Zm-103-.15c3.78,.47,3.41-.05,5.85-1.79,1.47-1,4.31-.14,6.53-.11,.85,3.35,3.34,1.89,5.74,2-2.07-5.66-3.9-11.07-6.11-16.32-.31-.73-2.46-.87-3.78-.92-.88-.02-1.71,.37-2.25,1.06-2.11,5.24-4,10.55-6.02,16.06l.04,.02Zm-128.48,.25c-2.07-5.69-3.95-11-5.94-16.28-.75-2-2.63-1.12-4-1.07-1.01,.09-1.91,.65-2.45,1.5-1.53,3.67-2.82,7.44-4.17,11.18-.52,1.45-1,2.91-1.55,4.58,2.47,0,4.95,1,5.69-2.25l6.58,.05c.68,3.35,3.28,2.01,5.8,2.27l.04,.02Zm-103.1-.1c2.45-.11,5,1.21,5.77-2.14l6.69,.08c.77,3.48,3.41,1.76,5.76,2.17-2.08-5.7-3.91-11.12-6.12-16.38-.31-.74-2.43-1-3.72-1-.95,0-1.85,.46-2.41,1.23-2.09,5.2-3.94,10.39-6.01,16.02l.04,.02Zm-44.67-11.15c-1.35-4.74-5.17-7.1-9.82-6.32s-7.53,4.62-7.2,9.51c.06,4.55,3.76,8.2,8.31,8.21,4.65,.26,8.54-2.85,8.5-6.68-1.87,.41-3.84,.43-5.37,1.28s-2.86,1.44-4.42,.67c-2-1-2.25-2.94-2.08-4.94,.14-1.74,.87-3.2,2.66-3.54,1-.19,2.57-.14,3.1,.48,1.83,2.14,4.02,1.24,6.32,1.33Zm81,0c-.9-4.48-4.74-7-9.42-6.38-4.49,.54-7.79,4.48-7.53,9,.16,5.21,3.49,8.6,8.57,8.72,4.5,.1,7.82-2.38,8.22-6.16-3.37-.36-3.34-.31-6.15,1.29-1.54,1.04-3.63,.69-4.75-.79-1.36-1.94-1.34-4.54,.05-6.46,1.36-1.53,3.33-2,4.67-.68,1.95,2.02,4.04,1.44,6.36,1.49l-.02-.03Zm231.58,0c-.78-5.09-5.89-7-9.85-6.29-4.92,.87-7.63,4.89-7,10.3,.53,4.57,4.2,7.56,9,7.37,4.33-.16,7.41-2.71,7.53-6.29-2.17,0-4.26-.37-6.24,1.4-1.41,1.27-3.36,.75-4.65-.83-1.39-1.95-1.34-4.57,.12-6.47,1.3-1.41,3.22-1.95,4.5-.71,2.04,1.92,4.18,1.61,6.61,1.53h-.02Zm-354.9-.7c.12-4.76-4.6-6.59-9.1-5.44-2.22,.38-3.88,2.25-4,4.5-.23,2.5,1.05,4.08,3.27,5,1.43,.48,2.83,1.06,4.18,1.72,.49,.28,.51,1.37,.74,2.08-.8,.08-2.07,.51-2.31,.19-1.67-2.28-3.79-1.07-5.8-1.2,.66,4,4.1,6,8.57,5.15,2.93-.59,4.52-2.11,4.79-4.57,.28-2.62-.78-4.11-3.77-5.37-1.34-.49-2.64-1.08-3.9-1.76-.37-.23-.29-1.19-.42-1.82,.62-.2,1.28-.29,1.93-.26,1.88,.47,3.7,1.12,5.82,1.78Zm219.33,1.36c-1.35,.1-2.71,.08-4.06-.07-.71-.23-1.26-.81-1.44-1.54,0-.5,.88-1.33,1.49-1.46,1.15-.25,2.42,.08,3.56-.19,.67-.32,1.17-.93,1.35-1.65,.26-.94,.13-2-1.31-1.95-2.87,0-5.75-.05-8.62,.07-.6,.19-1.06,.68-1.21,1.29-.09,5.25-.06,10.5-.06,15.86h11.08v-3.52h-4.23c-1.17,0-2.21,.1-2.21-1.64s1-1.89,2.33-1.85h3.33v-3.35Zm55.35,6.85c0-1.15-.2-2.67,0-2.74,1.79-.48,3.6-.86,5.43-1.13v-3c-1.18,0-2.2-.07-3.21,0-2.33,.2-2.81-.88-2-3.21,1.46,.1,2.93,.07,4.39-.08,.78-.28,1.39-.9,1.65-1.68,.34-1.19-.31-1.95-1.68-1.93-2.55,0-5.11-.07-7.66,.05-.57,0-1.59,.74-1.6,1.16-.11,5.31-.07,10.62-.07,16.18,3.45,0,6.63,.09,9.79-.09,.47,0,1.17-1.28,1.2-2-.18-.72-.71-1.29-1.41-1.52-1.61-.11-3.22-.11-4.83-.01h0Zm-16.18-9.78v13.25h4.6c0-3.65,.13-7.07,0-10.48-.11-2.2,.42-3.36,2.85-3,1.4,.19,1.94-.44,1.95-1.91,0-1.65-.85-1.81-2.11-1.8h-9.09c-3.32,0-3.36,.06-2.71,3.54l4.51,.4Zm-247.06-.05c.88-.1,1.76-.16,2.65-.17,1.39,.05,2-.44,2-1.93s-.6-1.82-1.88-1.8h-10.28c-1.23,0-1.92,.39-1.95,1.78s.65,2,2,1.94c.78,0,1.57,.09,2.64,.16v13.32q4.81,.61,4.81-3.68c.02-3.16,.01-6.32,.01-9.62h0Zm412.16-3.76v17.09h10v-3.15c-.92-.05-1.84-.05-2.76,0-2.07,.25-2.86-.51-2.75-2.66,.16-3.18,0-6.38,0-9.57,0-1.31-.46-2-1.8-1.86l-2.69,.15Zm-485,13.94c-.98-.05-1.96-.05-2.94,0-2,.21-2.72-.53-2.62-2.55,.14-3-.06-6.06,.07-9.09,.08-1.86-.54-2.49-2.43-2.52s-2.43,.83-2.3,2.59,0,3.51,0,5.26v9.48h10.2l.02-3.17Zm263.4,.15c-.89-.06-1.6-.13-2.3-.14-3.06-.06-3.07-.05-3.08-3.21s0-6.07,0-9.11c0-1.6-1-1.79-2.2-1.77s-2.47-.06-2.46,1.76c0,4.71,0,9.42,.07,14.13,.16,.69,.67,1.24,1.34,1.45,2.84,.14,5.7,.07,8.64,.07v-3.18Zm-183.79-14.21v17.25h4.53c0-5.39,0-10.62-.07-15.85,0-.48-.87-1.19-1.45-1.34-1-.14-2.01-.16-3.01-.06Zm344.09,17.25v-15.87c0-1.83-1.44-1.34-2.44-1.37s-2.18-.24-2.17,1.41v15.83h4.61Zm-378,0v-15.74c0-1.59-1-1.62-2.07-1.53s-2.52-.56-2.54,1.25c-.06,5.3,0,10.6,0,16l4.61,.02Zm248.08,0v-15.61c0-1.91-1.31-1.62-2.47-1.67-1.31-.05-2.33,0-2.28,1.86,.11,3.66,0,7.32,0,11v4.43h4.75Zm-101.51-8.46v-6.94c0-1.72-1-1.89-2.34-1.89s-2.36,.16-2.34,1.89c0,4.54,.05,9.09,0,13.63,0,1.67,.82,2,2.24,1.94s2.55,0,2.47-1.94c-.1-2.23-.03-4.46-.03-6.69Zm-151.66-10.47c5.76-1.45,6-1.73,5.28-5.1-5.28,1.61-5.79,2.06-5.28,5.1Z"/>
    <path d="M.06,182.88V3.86C.06,.14-.79,.17,3.81,.17H594.07c2.37,0,3.19,.56,3.08,3.06-.21,5-.17,9.91,0,14.86,.08,2.2-.73,2.85-2.74,2.64-.88-.05-1.76-.05-2.64,0H20.92c-.06,1.11-.16,2-.16,3V159.37c0,3.1,0,3.11,3.18,3.11H632.2c3.19,0,3.2,0,3.21-3.33V62.45q0-3.54,3.44-3.54c4.88,0,9.76,.08,14.63,0,1.92-.05,2.48,.59,2.47,2.45-.06,9.82,0,19.65,0,29.47v88.67q0,3.43-3.32,3.43H.06v-.05Z"/>
    <path d="M488.58,91.04v-31.77c0-5,1.55-6.58,6.56-6.58,3.83,0,7.67,.09,11.5,0,1.91-.06,2.51,.57,2.48,2.44-.08,6.14,0,12.29,0,18.44,0,17.89,0,35.77,.05,53.66,0,2.34-.53,3.23-3.05,3.13-4.95-.21-9.91-.17-14.86,0-1.75,.23-3.42-.76-4.08-2.39-6.11-11.47-12.36-22.87-18.57-34.29-.37-.75-.96-1.37-1.7-1.77v2.63c0,10.94-.06,21.88,0,32.82,0,2.25-.55,3.06-2.93,3-5.81-.16-11.64-.05-17.63-.05V52.79c8.17-.16,16.62-1.48,22.92,5.67,1.76,2.16,3.27,4.51,4.53,7,4.37,7.88,8.63,15.82,12.94,23.74,.37,.68,.79,1.34,1.19,2l.65-.16Z"/>
    <path d="M332.5,86.02v-22.34c0-1.84-.05-3.67,0-5.51,.12-3.49,2.11-5.45,5.59-5.48,4.24,0,8.48,.06,12.71,0,1.72,0,2.41,.41,2.4,2.26-.04,24.35-.04,48.7,0,73.07,0,1.14,.09,2.28-1.64,2.27h-18.94v-27.81c-.66-.15-1.33-.25-2-.31-5.83,0-11.67,0-17.5-.05-1.76,0-2.35,.55-2.33,2.34,.08,7.51,0,15,0,22.52v3h-20.37V52.78c5.53,0,11-.17,16.49,.08,2.47,.11,3.84,2.32,3.86,5.25v24.67c0,3.36,0,3.37,3.44,3.37h15.34c.87,0,1.74-.08,2.95-.13Z"/>
    <path d="M435.14,130.27c-6.59,0-12.89,.05-19.2-.08-.61,0-1.5-1-1.76-1.75-1.25-3.52-2.4-7.08-3.45-10.69-.16-1.27-1.32-2.17-2.59-2.01-.02,0-.04,0-.07,0-5.6,.1-11.19,.09-16.79,0-1.19-.19-2.32,.62-2.51,1.81,0,.01,0,.03,0,.04-1.13,3.74-2.37,7.44-3.69,11.11-.24,.64-1.1,1.48-1.69,1.49-6.3,.11-12.61,.07-19.26,.07,1.21-3.8,2.31-7.34,3.46-10.87,7-21.44,14-42.86,20.91-64.32,.6-1.84,1.35-2.47,3.3-2.42,5.44,.15,10.88,.09,16.31,0,1.35,0,2.14,.25,2.62,1.72,8,24.79,16.05,49.57,24.14,74.34,.12,.51,.22,1.03,.28,1.55Zm-35.14-48.74h-.59c-2.08,6.43-4.17,12.86-6.3,19.42h13.21l-6.32-19.42Z"/>
    <path d="M279.2,130.27h-13.38c-2.3,0-5.14,.63-6.75-.47s-1.64-4-2.38-6.05c-.1-.3-.22-.6-.33-.9-.83-2.3-1-5.49-2.68-6.65s-4.76-.4-7.23-.41h-11.27c-1.12-.18-2.18,.58-2.37,1.7,0,0,0,.02,0,.03-1.13,3.74-2.35,7.45-3.63,11.13-.22,.63-.91,1.56-1.4,1.57-6.44,.11-12.89,.07-19.64,.07,2.23-6.91,4.34-13.49,6.48-20.06,5.9-18.18,11.85-36.35,17.67-54.56,.72-2.26,1.66-3.1,4.12-3,5.27,.24,10.55,.12,15.82,0,1.19-.2,2.32,.6,2.53,1.79,0,0,0,.01,0,.02,7.93,24.56,15.89,49.11,23.9,73.64,.15,.57,.26,1.15,.54,2.15Zm-42.07-29.26h13.24l-6.32-19.36-.66,.05c-2.1,6.34-4.19,12.71-6.3,19.28l.04,.03Z"/>
    <path d="M147.2,52.79h68.37v16h-5.67c-5.19,0-10.39,.11-15.58,0-2.19-.07-2.64,.7-2.63,2.73,.07,18.53,0,37.05,0,55.57v3h-20.41v-2.95c0-18.53,0-37.05,.05-55.57,0-2.25-.68-2.84-2.84-2.78-5.19,.14-10.39,.06-15.58,0-3.95,0-5.66-1.75-5.69-5.71-.02-3.34-.02-6.68-.02-10.29Z"/>
    <path d="M628.83,.38h16.78c6.27,0,10,3.75,10.05,9.94V45.06c0,2.08-.59,2.81-2.72,2.75-4.95-.13-9.91-.12-14.86,0-2,0-2.61-.7-2.58-2.64,.08-7,0-14.06,0-21.08q0-3.63-3.54-3.64c-7,0-14.07-.07-21.1,0-2.09,0-2.8-.6-2.75-2.72,.14-5,.12-9.91,0-14.85,0-2,.71-2.61,2.65-2.58,6.08,.14,12.07,.08,18.07,.08Z"/>
    <path d="M232.03,223.8c-4.26,.92-4.6,.78-6.72-2.39-1.33-2-2.69-4-4.05-5.92-.06-.09-.28-.06-.71-.14v8.66h-4.72c0-5.39,0-10.64,.05-15.88,0-.44,.72-1.28,1-1.25,1.47,.19,3.35,.16,4.27,1.05,1.62,1.58,2.63,3.78,3.91,5.71,.51,.76,1.05,1.5,1.58,2.24l.66-.16c0-2.18,.11-4.36,0-6.53-.12-1.91,.61-2.5,2.46-2.49s2.36,.56,2.32,2.36c-.12,4.93-.05,9.86-.05,14.74Z"/>
    <path d="M393.9,215.85v-8.89c1.11-.14,2.23-.18,3.34-.11,.61,.19,1.08,.67,1.25,1.29,.09,5.24,.06,10.49,.06,15.67-4.25,.86-4.46,.78-6.57-2.37l-4.31-6.43-.6,.19v8.82h-4.68v-7.75c0-2.24-.08-4.48,0-6.71,0-.9,.43-2.5,.82-2.55,1.62-.2,3.52-1,4.77,1,1.47,2.28,3,4.54,4.47,6.81,.29,.44,.62,.85,.93,1.27l.52-.24Z"/>
    <path d="M312.2,215.69v-5.42c0-3.83,.4-4.11,4.52-3.15v16.62c-3.58,1.08-4.44,.78-6.45-2.23-1.43-2.25-3.04-4.38-4.82-6.37v8.84h-4.73c0-5.41,0-10.73,.06-16,0-.4,.81-1.14,1.17-1.1,1.4,.18,3.25,.16,4.06,1,1.72,1.83,2.89,4.18,4.3,6.31,.39,.57,.82,1.12,1.24,1.68l.65-.18Z"/>
    <path d="M536.9,215.41c0,2.29-.07,4.59,0,6.88,.07,2-1.14,1.87-2.51,1.91s-2.23-.33-2.2-2c.06-4.23,0-8.46,.06-12.69,0-.9,.47-2.46,.95-2.55,1.53-.29,3.34-.9,4.54,1,1.72,2.68,3.49,5.32,5.25,8l.73-.05c0-2.21,.08-4.43,0-6.63-.09-1.87,.61-2.56,2.49-2.52,1.67,0,2.26,.67,2.23,2.29-.06,4.15,0,8.31-.06,12.46,0,.89-.54,2.5-.91,2.53-1.54,.1-3.38,1-4.6-.86-1.75-2.65-3.51-5.28-5.27-7.92l-.7,.15Z"/>
    <path d="M452,215.27c0,2.18-.09,4.36,0,6.54,.1,1.87-.6,2.46-2.48,2.46s-2.28-.81-2.25-2.45c.07-4.07-.05-8.14,.07-12.2,0-.93,.57-2.51,1.13-2.63,1.52-.35,3.32-.78,4.49,1.09,1.67,2.68,3.45,5.3,5.19,7.94l.66-.12c0-2.26,.07-4.52,0-6.78-.08-1.76,.62-2.37,2.37-2.38s2.38,.7,2.35,2.42c-.08,4.06,0,8.13-.07,12.2,0,.94-.56,2.61-1,2.67-1.59,.2-3.46,.88-4.69-1.15-1.6-2.64-3.39-5.16-5.1-7.73l-.67,.12Z"/>
    <path d="M511.87,215.27c-.15-4.7,3.53-8.63,8.23-8.78,.26,0,.51,0,.77,0,5.32,0,9,3.73,8.89,9.08-.09,4.93-4.15,8.85-9.08,8.77s-8.85-4.15-8.77-9.08h-.05Zm13.07,.12c0-2.72-1.62-4.58-4-4.64s-4.3,1.89-4.3,4.66,1.59,4.51,4.08,4.55c2.62,.07,4.23-1.69,4.22-4.54v-.03Z"/>
    <path d="M105,215.61c.13,4.79-3.65,8.77-8.44,8.89-.19,0-.37,0-.56,0-5.24-.1-8.86-3.93-8.79-9.32,.07-5.15,3.79-8.69,9.11-8.65s8.72,3.74,8.68,9.08Zm-8.8,4.38c2.6,0,4.19-1.85,4.11-4.74-.07-2.64-1.84-4.52-4.23-4.47s-4.19,2-4.12,4.83,1.68,4.41,4.24,4.38h0Z"/>
    <path d="M289.32,206.53c4.75-.17,8.73,3.53,8.91,8.28,0,.19,0,.38,0,.57,.14,4.89-3.71,8.96-8.6,9.1-.13,0-.27,0-.4,0-4.97,0-9-4.03-9-9-.11-4.84,3.72-8.85,8.56-8.95,.18,0,.35,0,.53,0Zm-.12,13.46c2.32,.09,4.28-1.73,4.36-4.05,0-.18,0-.35-.01-.53,0-2.66-1.73-4.56-4.13-4.63-2.55-.08-4.26,1.8-4.26,4.65s1.49,4.52,4.04,4.56Z"/>
    <path d="M115.3,217.47v-3h7.81c.43,.11,.77,.44,.9,.86,.09,2,.44,4.08-1.16,5.88-3.11,3.51-9.16,4.17-12.81,1.23-3.43-2.75-4.15-8.68-1.51-12.41s8.73-4.8,12.45-2.08c1.23,.89,2,2.38,3,3.59l-.62,1c-1.8-.19-3.59-.56-5.32-1.09-2.27-.92-4.56-.56-5.65,1.38-1.34,2.37-.63,5.63,1.48,6.78s4.49,.62,6-1.82l-4.57-.32Z"/>
    <path d="M435.37,218.16v5.84h-4.61c0-5.43,0-10.75,.06-16.06,0-.4,.92-1.1,1.42-1.11,2.47-.11,4.94-.08,7.41,.1,2.9,.24,4.48,1.65,5,4,.58,2.72-.16,4.41-2.65,6-.25,.17-.48,.39-.86,.69l3.42,6c-3.74,1.22-4.81,.8-6.54-2.37-.62-1.14-1.31-2.25-2-3.38l-.65,.29Zm.61-7.84l-.78,.8c.28,1.12,.22,2.72,.93,3.23s2.25,0,3.27-.45c.37-.16,.6-1.9,.38-2-1.23-.62-2.5-1.15-3.8-1.58h0Z"/>
    <path d="M209.09,224.17c-1.26,.07-2.52,.07-3.78,0-.58-.08-1.1-.39-1.45-.86-1.74-2.85-5.8-2.66-7.91,0-.81,1-3,.88-5.27,1.44,2.26-6.21,4.12-11.67,6.35-17,.31-.72,2.5-.84,3.83-.87,.89,0,1.72,.42,2.25,1.13,2.09,5.18,3.92,10.5,5.98,16.16Zm-8.81-11.42h-.69c-.47,1.54-.95,3.08-1.47,4.78h3.75l-1.59-4.78Z"/>
    <path d="M568.53,224.09c-2.48-.11-5,1.21-5.8-2.13-2.23,0-5.11-.81-6.55,.27-2.32,1.73-2,2.3-5.75,1.64,2-5.41,3.84-10.81,6-16.08,.29-.71,2.28-.93,3.49-1,.86,0,2.29,.41,2.53,1,2.12,5.27,3.99,10.59,6.08,16.3Zm-8.85-11.5l-.5-.07c-.52,1.59-1.05,3.17-1.66,5h3.84l-1.68-4.93Z"/>
    <path d="M465.51,223.94c2-5.51,3.91-10.82,6-16.06,.54-.69,1.37-1.08,2.25-1.06,1.32,.05,3.47,.19,3.78,.92,2.21,5.25,4,10.66,6.11,16.32-2.4-.13-4.89,1.33-5.74-2-2.22,0-5.06-.93-6.53,.11-2.46,1.72-2.09,2.24-5.87,1.77Zm7.1-6.46h3.88l-1.94-5.63c-.78,2.25-1.3,3.78-1.94,5.63h0Z"/>
    <path d="M337.03,224.19c-2.52-.26-5.12,1.11-5.82-2.29l-6.58-.05c-.74,3.29-3.22,2.22-5.69,2.25,.56-1.67,1-3.13,1.55-4.58,1.35-3.74,2.64-7.51,4.17-11.18,.54-.85,1.44-1.41,2.45-1.5,1.35-.05,3.23-.93,4,1.07,1.97,5.28,3.85,10.59,5.92,16.28Zm-8.83-11.55l-.59,.06-1.66,5.08,3.9-.21-1.65-4.93Z"/>
    <path d="M233.93,224.09c2.07-5.63,3.92-10.87,6-16,.56-.77,1.46-1.23,2.41-1.23,1.29,0,3.41,.25,3.72,1,2.21,5.26,4,10.68,6.12,16.38-2.35-.41-5,1.31-5.76-2.17l-6.69-.08c-.81,3.28-3.35,1.99-5.8,2.1Zm9.27-11.57l-.52,.07-1.57,5h3.81l-1.72-5.07Z"/>
    <path d="M189.3,212.96c-2.3-.09-4.49,.81-6.32-1.33-.53-.62-2.11-.67-3.1-.48-1.79,.34-2.52,1.8-2.66,3.54-.17,2,0,3.92,2.08,4.94,1.56,.77,2.9,.17,4.42-.67s3.5-.87,5.37-1.28c0,3.83-3.85,6.94-8.5,6.68-4.55,0-8.25-3.66-8.31-8.21-.33-4.89,2.58-8.73,7.2-9.51s8.47,1.63,9.82,6.32Z"/>
    <path d="M270.32,212.99c-2.32-.05-4.41,.53-6.34-1.43-1.34-1.36-3.31-.85-4.67,.68-1.39,1.92-1.41,4.52-.05,6.46,1.12,1.48,3.21,1.83,4.75,.79,2.81-1.6,2.78-1.65,6.15-1.29-.4,3.78-3.72,6.26-8.22,6.16-5.08-.12-8.41-3.51-8.57-8.72-.26-4.52,3.04-8.46,7.53-9,4.68-.64,8.52,1.87,9.42,6.35Z"/>
    <path d="M501.9,212.97c-2.43,.08-4.57,.39-6.55-1.52-1.28-1.24-3.2-.7-4.5,.71-1.46,1.9-1.51,4.52-.12,6.47,1.29,1.58,3.24,2.1,4.65,.83,2-1.77,4.07-1.35,6.24-1.4-.12,3.58-3.2,6.13-7.53,6.29-4.85,.19-8.52-2.8-9-7.37-.62-5.41,2.09-9.43,7-10.3,3.92-.7,9.03,1.2,9.81,6.29Z"/>
    <path d="M146.98,212.27c-2.12-.66-3.94-1.31-5.8-1.78-.65-.03-1.31,.06-1.93,.26,.13,.63,.05,1.59,.42,1.82,1.26,.68,2.56,1.27,3.9,1.76,3,1.26,4.05,2.75,3.77,5.37-.27,2.46-1.86,4-4.79,4.57-4.47,.89-7.91-1.1-8.57-5.15,2,.13,4.13-1.08,5.8,1.2,.24,.32,1.51-.11,2.31-.19-.23-.71-.25-1.8-.74-2.08-1.35-.66-2.75-1.24-4.18-1.72-2.22-.92-3.5-2.5-3.27-5,.12-2.25,1.78-4.12,4-4.5,4.48-1.15,9.2,.68,9.08,5.44Z"/>
    <path d="M366.31,213.63v3.36h-3.33c-1.31,0-2.34,0-2.33,1.85s1,1.66,2.21,1.64h4.23v3.52h-11.08c0-5.36,0-10.61,.06-15.86,.15-.61,.61-1.1,1.21-1.29,2.87-.12,5.75-.05,8.62-.07,1.44,0,1.57,1,1.31,1.95-.18,.72-.68,1.33-1.35,1.65-1.14,.27-2.41-.06-3.56,.19-.61,.13-1.5,1-1.49,1.46,.18,.73,.73,1.31,1.44,1.54,1.35,.14,2.71,.16,4.06,.06Z"/>
    <path d="M421.66,220.48c1.61-.08,3.22-.06,4.83,.07,.7,.23,1.23,.8,1.41,1.52,0,.71-.73,2-1.2,2-3.16,.18-6.34,.09-9.79,.09,0-5.56,0-10.87,.07-16.18,0-.42,1-1.13,1.6-1.16,2.55-.12,5.11,0,7.66-.05,1.37,0,2,.74,1.68,1.93-.26,.78-.87,1.4-1.65,1.68-1.46,.15-2.93,.18-4.39,.08-.78,2.33-.3,3.41,2,3.21,1-.09,2,0,3.21,0v3c-1.83,.27-3.64,.65-5.43,1.13-.2,.01,0,1.53,0,2.68Z"/>
    <path d="M405.48,210.7l-4.55-.41c-.65-3.48-.61-3.53,2.71-3.54h9.09c1.26,0,2.13,.15,2.11,1.8,0,1.47-.55,2.1-1.95,1.91-2.43-.34-3,.82-2.85,3,.17,3.41,0,6.83,0,10.48h-4.6l.04-13.24Z"/>
    <path d="M158.42,210.65v9.62q0,4.29-4.81,3.68v-13.32c-1.07-.07-1.86-.18-2.64-.16-1.37,0-2-.47-2-1.94s.72-1.79,1.95-1.78h10.28c1.28,0,1.86,.42,1.88,1.8s-.6,2-2,1.93c-.89,.01-1.78,.07-2.66,.17Z"/>
    <path d="M570.58,206.89l2.73-.13c1.34-.09,1.83,.55,1.8,1.86,0,3.19,.11,6.39,0,9.57-.11,2.15,.68,2.91,2.75,2.66,.92-.05,1.84-.05,2.76,0v3.15h-10l-.04-17.11Z"/>
    <path d="M85.57,220.83v3.19h-10.2v-9.48c0-1.75,.1-3.51,0-5.26s.29-2.61,2.3-2.59,2.51,.66,2.43,2.52c-.13,3,.07,6.07-.07,9.09-.1,2,.66,2.76,2.62,2.55,.97-.06,1.95-.06,2.92-.02Z"/>
    <path d="M348.97,220.98v3.18c-2.94,0-5.8,.07-8.64-.07-.67-.21-1.18-.76-1.34-1.45-.1-4.71,0-9.42-.07-14.13,0-1.82,1.21-1.74,2.46-1.76s2.22,.17,2.2,1.77v9.11c0,3.04,0,3.15,3.08,3.21,.71,.01,1.42,.08,2.31,.14Z"/>
    <path d="M165.2,206.77c1-.1,2.01-.08,3,.06,.58,.15,1.44,.86,1.45,1.34,.11,5.23,.07,10.46,.07,15.85h-4.52v-17.25Z"/>
    <path d="M509.29,224.02h-4.61v-15.83c0-1.65,1.19-1.45,2.17-1.41s2.44-.46,2.44,1.37c0,5.23,0,10.46,0,15.87Z"/>
    <path d="M131.29,224.05h-4.61v-16c0-1.81,1.56-1.17,2.54-1.25s2.08-.06,2.07,1.53c-.03,5.13,0,10.29,0,15.72Z"/>
    <path d="M379.37,224.03h-4.7v-4.43c0-3.67,.08-7.33,0-11-.05-1.81,1-1.91,2.28-1.86,1.16,0,2.48-.24,2.47,1.67-.08,5.1-.05,10.2-.05,15.62Z"/>
    <path d="M277.86,215.57c0,2.23-.07,4.46,0,6.69,.08,1.93-1.08,1.92-2.47,1.94s-2.19-.27-2.19-1.93c.07-4.54,.06-9.09,0-13.63,0-1.73,1-1.89,2.34-1.89s2.38,.17,2.34,1.89c-.06,2.3-.02,4.63-.02,6.93Z"/>
    <path d="M126.2,205.1c-.55-3-.07-3.49,5.28-5.1,.8,3.37,.52,3.65-5.28,5.1Z"/>
    <path class="cls-1" d="M524.94,215.42c0,2.89-1.6,4.61-4.27,4.57-2.49,0-4.08-1.81-4.08-4.55s1.8-4.72,4.3-4.66,4.04,1.92,4.05,4.64Z"/>
    <path class="cls-1" d="M289.2,219.99c-2.51,0-4-1.76-4-4.56s1.71-4.73,4.26-4.65c2.4,.07,4.1,2,4.13,4.63,.21,2.32-1.5,4.36-3.82,4.57-.19,.02-.38,.02-.57,.01Z"/>
    <path class="cls-1" d="M435.98,210.32c1.3,.42,2.57,.95,3.8,1.56,.22,.12,0,1.86-.38,2-1,.43-2.59,.92-3.27,.45s-.65-2.11-.93-3.23l.78-.78Z"/>
    <path class="cls-1" d="M200.28,212.75l1.59,4.81h-3.75c.52-1.7,1-3.24,1.47-4.78l.69-.03Z"/>
    <path class="cls-1" d="M559.68,212.59l1.68,4.93h-3.84c.61-1.83,1.14-3.41,1.66-5l.5,.07Z"/>
    <path class="cls-1" d="M472.61,217.48c.64-1.85,1.16-3.38,1.94-5.63l1.94,5.63h-3.88Z"/>
    <path class="cls-1" d="M328.2,212.64l1.65,4.93-3.9,.21,1.66-5.08,.59-.06Z"/>
    <path class="cls-1" d="M243.2,212.52l1.72,5h-3.72l1.57-5h.43Z"/>
  </g>
</svg>