<?xml version="1.0" encoding="UTF-8"?>
<svg id="Capa_2" data-name="Capa 2" xmlns="http://www.w3.org/2000/svg" xmlns:xlink="http://www.w3.org/1999/xlink" viewBox="0 0 106.33 57.23">
  <defs>
    <style>
      .cls-1 {
        fill: url(#Degradado_sin_nombre_1116);
      }

      .cls-1, .cls-2, .cls-3, .cls-4, .cls-5, .cls-6, .cls-7 {
        stroke: #fff;
        stroke-miterlimit: 10;
        stroke-width: .33px;
      }

      .cls-2 {
        fill: url(#Degradado_sin_nombre_1113-2);
      }

      .cls-3 {
        fill: url(#Degradado_sin_nombre_1116-2);
      }

      .cls-4 {
        fill: #174853;
      }

      .cls-5 {
        fill: url(#Degradado_sin_nombre_1111);
      }

      .cls-6 {
        fill: url(#Degradado_sin_nombre_1113);
      }

      .cls-7 {
        fill: url(#Degradado_sin_nombre_1111-2);
      }
    </style>
    <linearGradient id="Degradado_sin_nombre_1116" data-name="Degradado sin nombre 1116" x1="55.82" y1="28.62" x2="55.82" y2=".17" gradientUnits="userSpaceOnUse">
      <stop offset="0" stop-color="#166a7a"/>
      <stop offset=".3" stop-color="#166574"/>
      <stop offset=".69" stop-color="#165764"/>
      <stop offset="1" stop-color="#174853"/>
    </linearGradient>
    <linearGradient id="Degradado_sin_nombre_1111" data-name="Degradado sin nombre 1111" x1="33.35" y1="42.84" x2="78.18" y2="42.84" gradientUnits="userSpaceOnUse">
      <stop offset="0" stop-color="#f4eddd"/>
      <stop offset=".11" stop-color="#d7d6cb"/>
      <stop offset=".32" stop-color="#a9b2af"/>
      <stop offset=".52" stop-color="#859598"/>
      <stop offset=".7" stop-color="#6b8089"/>
      <stop offset=".87" stop-color="#5b747f"/>
      <stop offset="1" stop-color="#56707c"/>
    </linearGradient>
    <linearGradient id="Degradado_sin_nombre_1113" data-name="Degradado sin nombre 1113" x1="83.52" y1="28.62" x2="83.52" y2=".17" gradientUnits="userSpaceOnUse">
      <stop offset="0" stop-color="#f4eddd"/>
      <stop offset=".08" stop-color="#efe4d0"/>
      <stop offset=".35" stop-color="#e2cbac"/>
      <stop offset=".6" stop-color="#d8ba92"/>
      <stop offset=".82" stop-color="#d3af82"/>
      <stop offset="1" stop-color="#d1ac7d"/>
    </linearGradient>
    <linearGradient id="Degradado_sin_nombre_1116-2" data-name="Degradado sin nombre 1116" x1=".45" y1="14.39" x2="45.28" y2="14.39" xlink:href="#Degradado_sin_nombre_1116"/>
    <linearGradient id="Degradado_sin_nombre_1111-2" data-name="Degradado sin nombre 1111" x1=".4" x2="45.23" xlink:href="#Degradado_sin_nombre_1111"/>
    <linearGradient id="Degradado_sin_nombre_1113-2" data-name="Degradado sin nombre 1113" x1="28.14" y1="14.39" x2="72.97" y2="14.39" xlink:href="#Degradado_sin_nombre_1113"/>
  </defs>
  <g id="Capa_1-2" data-name="Capa 1">
    <g>
      <g>
        <polygon class="cls-1" points="33.41 28.62 50.65 28.62 78.24 .17 60.99 .17 33.41 28.62"/>
        <polygon class="cls-5" points="33.35 28.62 50.59 28.62 78.18 57.07 60.94 57.07 33.35 28.62"/>
        <polygon class="cls-6" points="105.93 28.62 88.69 28.62 61.1 .17 78.34 .17 105.93 28.62"/>
        <polygon class="cls-4" points="105.88 28.62 88.63 28.62 61.05 57.07 78.29 57.07 105.88 28.62"/>
      </g>
      <g>
        <polygon class="cls-3" points=".45 28.62 17.69 28.62 45.28 .17 28.04 .17 .45 28.62"/>
        <polygon class="cls-7" points=".4 28.62 17.64 28.62 45.23 57.07 27.98 57.07 .4 28.62"/>
        <polygon class="cls-2" points="72.97 28.62 55.73 28.62 28.14 .17 45.39 .17 72.97 28.62"/>
        <polygon class="cls-4" points="72.92 28.62 55.68 28.62 28.09 57.07 45.33 57.07 72.92 28.62"/>
      </g>
    </g>
  </g>
</svg>