<?xml version="1.0" encoding="UTF-8"?>
<svg id="Capa_2" data-name="Capa 2" xmlns="http://www.w3.org/2000/svg" xmlns:xlink="http://www.w3.org/1999/xlink" viewBox="0 0 182 182">
  <defs>
    <style>
      .cls-1 {
        fill: #d60a19;
        filter: url(#drop-shadow-1);
      }

      .cls-2 {
        fill: #fff;
      }
    </style>
    <filter id="drop-shadow-1" filterUnits="userSpaceOnUse">
      <feOffset dx="5.38" dy="5.38"/>
      <feGaussianBlur result="blur" stdDeviation="2.69"/>
      <feFlood flood-color="#000" flood-opacity=".44"/>
      <feComposite in2="blur" operator="in"/>
      <feComposite in="SourceGraphic"/>
    </filter>
  </defs>
  <g id="Capa_1-2" data-name="Capa 1">
    <g>
      <circle class="cls-1" cx="85.45" cy="85.01" r="82.11"/>
      <path class="cls-2" d="M51.82,68.96c-1.3-3.37-2.59-6.1-3.43-8.97-4.98-17.06,5.52-28.39,18.51-27.65,6.58,.37,13.12,5.25,15.51,11.76,.34,.92,.65,1.84,1.29,3.67,1.7-1.82,2.77-3.26,4.12-4.35,4.07-3.29,7.86-7.28,12.48-9.45,7.78-3.65,16.18-.95,21.11,5.51,4.74,6.22,4.79,14.78,.15,21.71-.74,1.1-1.47,2.21-2.63,3.97,3.84,.82,7.12,1.5,10.4,2.23,9.2,2.05,15.45,8.73,16.47,17.57,.87,7.54-3.44,14.93-11.67,18.18-3.8,1.5-8.28,1.28-12.73,1.88,1.17,4.22,2.47,8.26,3.39,12.39,1.87,8.39-2.66,17.72-10.11,21.24-7.11,3.36-17.17,1.18-21.97-5.06-1.85-2.41-3.04-5.32-4.95-8.75-1.12,1.61-1.97,2.97-2.95,4.21-5.35,6.75-11.68,11.44-20.93,11.02-14.51-.65-20.89-17.5-13.42-28.37,.93-1.36,1.9-2.69,2.6-3.69-5.92-1.98-11.78-3.25-16.97-5.85-8.23-4.13-11.68-13.85-8.7-21.99,2.95-8.05,11.31-12.76,20.23-11.43,1.13,.17,2.28,.14,4.2,.24Zm27.48,25.66c-6.77,7.7-15.06,10.17-23.6,12.65,4.73,7.45,11.51,8.87,18.76,7.57,9.33-1.67,13.66-8.52,15.1-17.64,.63,.15,1.25,.3,1.88,.45-.47,8.31-.95,16.63-1.45,25.4,5.2,0,9.52-2.52,12.38-7.03,6.46-10.17,4.09-19.3-4.86-27.37,.59-.46,1.19-.92,1.78-1.38,6.72,4.69,13.44,9.38,20.31,14.17,3.63-4.51,2.71-9.64,.24-14.59-5.27-10.52-14.26-12.54-26.23-9.58,5.89-5.6,11.37-8.72,17.89-10.13,1.39-.3,2.62-1.31,3.93-1.99-.84-1.37-1.39-3.09-2.57-4.05-9.31-7.54-23.65-3.65-28.33,7.55-.72,1.71-1.57,3.37-2.36,5.05-.63-.17-1.26-.35-1.89-.52,.65-7.84,1.31-15.68,1.99-23.81-6.23,1.07-10.82,3.91-13.76,9.25-5.17,9.4-1.94,17.3,5.91,25.23-10.08-1.4-15.12-8.56-22.02-12.89-3.04,8.08-1.71,14.71,3.59,20.24,6.25,6.52,14,6.24,23.33,3.42Z"/>
    </g>
  </g>
</svg>