<?xml version="1.0" encoding="UTF-8"?>
<svg id="Capa_2" data-name="Capa 2" xmlns="http://www.w3.org/2000/svg" viewBox="0 0 104.22 93.42">
  <defs>
    <style>
      .cls-1 {
        fill: #fff;
      }

      .cls-2 {
        fill: #174853;
      }
    </style>
  </defs>
  <g id="Capa_1-2" data-name="Capa 1">
    <g>
      <g>
        <g>
          <g>
            <g>
              <polygon class="cls-1" points="32.94 27.99 49.67 27.99 76.43 .39 59.7 .39 32.94 27.99"/>
              <path class="cls-2" d="M49.8,28.31h-17.62L59.57,.07h17.62l-27.38,28.23Zm-16.1-.64h15.83L75.67,.71h-15.83l-26.14,26.96Z"/>
            </g>
            <g>
              <path class="cls-1" d="M49.7,28.06h-16.93l.12-.12L59.67,.32h16.93l-.12,.12-26.78,27.62Zm-16.58-.14h16.52L76.26,.46h-16.52l-26.62,27.45Z"/>
              <path class="cls-2" d="M49.83,28.38h-17.82l.64-.66L59.54,0h17.82l-.64,.66-26.87,27.71Zm-15.96-.78h15.63L75.5,.78h-15.63l-26,26.81Z"/>
            </g>
          </g>
          <g>
            <g>
              <polygon class="cls-1" points="32.89 27.99 49.62 27.99 76.38 55.58 59.65 55.58 32.89 27.99"/>
              <path class="cls-2" d="M77.13,55.9h-17.61l-27.38-28.23h17.62l27.38,28.23Zm-17.34-.64h15.83l-26.14-26.96h-15.83l26.14,26.96Z"/>
            </g>
            <g>
              <path class="cls-1" d="M76.55,55.65h-16.93l-.02-.02-26.88-27.72h16.93l.02,.02,26.88,27.72Zm-16.86-.14h16.52l-26.62-27.45h-16.52l26.62,27.45Z"/>
              <path class="cls-2" d="M77.3,55.97h-17.82l-.12-.12L31.97,27.59h17.82l.12,.12,27.4,28.26Zm-17.48-.78h15.63l-26-26.81h-15.63l26,26.81Z"/>
            </g>
          </g>
          <g>
            <g>
              <polygon class="cls-1" points="103.29 27.99 86.57 27.99 59.81 .39 76.53 .39 103.29 27.99"/>
              <path class="cls-2" d="M104.04,28.31h-17.62L59.05,.07h17.62l27.38,28.23Zm-17.34-.64h15.83L76.4,.71h-15.83l26.14,26.96Z"/>
            </g>
            <g>
              <path class="cls-1" d="M103.46,28.06h-16.93l-.02-.02L59.64,.32h16.93l.02,.02,26.88,27.72Zm-16.86-.14h16.52L76.5,.46h-16.52l26.62,27.45Z"/>
              <path class="cls-2" d="M104.22,28.38h-17.82l-.12-.12L58.88,0h17.82l.12,.12,27.4,28.26Zm-17.48-.78h15.63L76.36,.78h-15.63l26,26.81Z"/>
            </g>
          </g>
          <g>
            <g>
              <polygon class="cls-1" points="103.24 27.99 86.51 27.99 59.75 55.58 76.48 55.58 103.24 27.99"/>
              <path class="cls-2" d="M76.61,55.9h-17.61l27.38-28.23h17.62l-27.38,28.23Zm-16.1-.64h15.83l26.14-26.96h-15.83l-26.14,26.96Z"/>
            </g>
            <g>
              <path class="cls-1" d="M76.51,55.65h-16.93l.12-.12,26.78-27.62h16.93l-.12,.12-26.78,27.62Zm-16.58-.14h16.52l26.62-27.45h-16.52l-26.62,27.45Z"/>
              <path class="cls-2" d="M76.64,55.97h-17.82l27.52-28.38h17.82l-27.52,28.38Zm-15.96-.78h15.63l26-26.81h-15.63l-26,26.81Z"/>
            </g>
          </g>
        </g>
        <g>
          <g>
            <g>
              <polygon class="cls-1" points=".98 27.99 17.7 27.99 44.46 .39 27.74 .39 .98 27.99"/>
              <path class="cls-2" d="M17.84,28.31H.22L27.6,.07h17.62L17.84,28.31Zm-16.1-.64h15.83L43.71,.71h-15.83L1.73,27.67Z"/>
            </g>
            <g>
              <path class="cls-1" d="M17.73,28.06H.81l.12-.12L27.71,.32h16.93l-.12,.12L17.73,28.06Zm-16.58-.14H17.67L44.29,.46H27.77L1.15,27.91Z"/>
              <path class="cls-2" d="M17.87,28.38H.05l.64-.66L27.57,0h17.82L17.87,28.38Zm-15.96-.78h15.63L43.53,.78h-15.63L1.9,27.59Z"/>
            </g>
          </g>
          <g>
            <g>
              <polygon class="cls-1" points=".93 27.99 17.65 27.99 44.41 55.58 27.68 55.58 .93 27.99"/>
              <path class="cls-2" d="M45.16,55.9H27.55L.17,27.67H17.79l27.38,28.23Zm-17.34-.64h15.83L17.51,28.31H1.68l26.14,26.96Z"/>
            </g>
            <g>
              <path class="cls-1" d="M44.58,55.65H27.65l-.02-.02L.76,27.91H17.68l.02,.02,26.88,27.72Zm-16.86-.14h16.52L17.62,28.06H1.1l26.62,27.45Z"/>
              <path class="cls-2" d="M45.34,55.97H27.52l-.12-.12L0,27.59H17.82l.12,.12,27.4,28.26Zm-17.48-.78h15.63L17.48,28.38H1.85l26,26.81Z"/>
            </g>
          </g>
          <g>
            <g>
              <polygon class="cls-1" points="71.32 27.99 54.6 27.99 27.84 .39 44.56 .39 71.32 27.99"/>
              <path class="cls-2" d="M72.08,28.31h-17.62L27.08,.07h17.62l27.38,28.23Zm-17.34-.64h15.83L44.43,.71h-15.83l26.14,26.96Z"/>
            </g>
            <g>
              <path class="cls-1" d="M71.49,28.06h-16.93l-.02-.02L27.67,.32h16.93l.02,.02,26.88,27.72Zm-16.86-.14h16.52L44.53,.46H28.01l26.62,27.45Z"/>
              <path class="cls-2" d="M72.25,28.38h-17.82l-.12-.12L26.91,0h17.82l.12,.12,27.4,28.26Zm-17.48-.78h15.63L44.4,.78h-15.63l26,26.81Z"/>
            </g>
          </g>
          <g>
            <g>
              <polygon class="cls-1" points="71.27 27.99 54.55 27.99 27.79 55.58 44.51 55.58 71.27 27.99"/>
              <path class="cls-2" d="M44.65,55.9H27.03l27.38-28.23h17.61l-27.38,28.23Zm-16.1-.64h15.83l26.14-26.96h-15.83l-26.14,26.96Z"/>
            </g>
            <g>
              <path class="cls-1" d="M44.54,55.65H27.62l.12-.12,26.78-27.62h16.93l-.12,.12-26.78,27.62Zm-16.58-.14h16.52l26.62-27.45h-16.52l-26.62,27.45Z"/>
              <path class="cls-2" d="M44.68,55.97H26.86l.64-.66,26.87-27.71h17.82l-27.52,28.38Zm-15.96-.78h15.63l26-26.81h-15.63l-26,26.81Z"/>
            </g>
          </g>
        </g>
      </g>
      <g>
        <g>
          <path class="cls-1" d="M24.66,93.42c-.67,0-1.29-.11-1.86-.34-.57-.23-1.06-.55-1.47-.97-.42-.42-.74-.91-.98-1.47-.23-.56-.35-1.18-.35-1.85s.12-1.29,.35-1.85c.23-.56,.56-1.05,.98-1.47,.42-.42,.91-.74,1.48-.97,.57-.23,1.19-.34,1.86-.34s1.31,.12,1.88,.36c.57,.24,1.06,.59,1.47,1.05l-.82,.82c-.34-.36-.71-.63-1.13-.81-.42-.18-.87-.27-1.35-.27s-.95,.09-1.38,.26c-.42,.17-.79,.41-1.1,.72-.31,.31-.55,.68-.72,1.11-.17,.43-.26,.89-.26,1.39s.09,.96,.26,1.39,.41,.8,.72,1.11c.31,.31,.68,.55,1.1,.72,.42,.17,.88,.26,1.38,.26s.93-.09,1.35-.27c.42-.18,.8-.45,1.13-.82l.82,.82c-.4,.47-.89,.82-1.47,1.06-.58,.24-1.21,.36-1.89,.36Z"/>
          <path class="cls-1" d="M37.33,93.39c-.66,0-1.26-.15-1.78-.45-.52-.3-.94-.72-1.24-1.25s-.45-1.13-.45-1.81,.15-1.28,.45-1.81c.3-.52,.71-.93,1.23-1.24,.52-.3,1.12-.45,1.79-.45s1.26,.15,1.78,.45c.52,.3,.94,.71,1.23,1.24,.3,.53,.45,1.13,.45,1.81s-.15,1.29-.45,1.81c-.3,.53-.71,.94-1.23,1.24-.52,.3-1.12,.45-1.78,.45Zm0-1.09c.43,0,.81-.1,1.15-.3,.34-.2,.61-.48,.8-.85,.19-.37,.29-.79,.29-1.27s-.1-.92-.29-1.27c-.19-.36-.46-.64-.8-.83-.34-.2-.72-.3-1.15-.3s-.81,.1-1.15,.3c-.34,.2-.6,.48-.81,.83-.2,.36-.3,.78-.3,1.27s.1,.91,.3,1.27c.2,.37,.47,.65,.81,.85,.34,.2,.72,.3,1.15,.3Z"/>
          <path class="cls-1" d="M55.91,86.39c.54,0,1.01,.11,1.42,.32,.41,.22,.73,.54,.96,.98,.23,.44,.35,1,.35,1.67v3.95h-1.21v-3.81c0-.66-.15-1.16-.45-1.5-.3-.34-.73-.5-1.27-.5-.4,0-.76,.09-1.06,.26-.3,.17-.54,.43-.7,.76-.16,.34-.25,.76-.25,1.26v3.53h-1.21v-3.81c0-.66-.15-1.16-.45-1.5-.3-.34-.72-.5-1.28-.5-.39,0-.74,.09-1.04,.26-.3,.17-.54,.43-.71,.76-.17,.34-.25,.76-.25,1.26v3.53h-1.21v-6.86h1.16v1.82l-.19-.47c.21-.45,.53-.8,.97-1.05,.44-.25,.94-.38,1.52-.38,.64,0,1.19,.16,1.65,.49,.46,.32,.76,.81,.91,1.47l-.49-.21c.2-.53,.55-.95,1.06-1.27,.5-.32,1.09-.48,1.76-.48Z"/>
          <path class="cls-1" d="M68.94,93.39c-.71,0-1.34-.15-1.88-.45-.54-.3-.96-.72-1.26-1.24-.3-.53-.45-1.13-.45-1.81s.14-1.29,.43-1.81c.29-.53,.69-.94,1.2-1.24,.51-.3,1.08-.45,1.72-.45s1.22,.15,1.71,.44c.5,.29,.88,.71,1.16,1.24s.42,1.15,.42,1.86c0,.05,0,.11,0,.18,0,.07-.01,.13-.02,.19h-5.68v-.89h5.05l-.49,.31c0-.44-.08-.83-.26-1.18-.18-.35-.44-.61-.76-.81-.32-.19-.7-.29-1.13-.29s-.79,.1-1.12,.29-.58,.47-.77,.82c-.18,.35-.28,.75-.28,1.2v.21c0,.46,.1,.87,.31,1.22,.21,.36,.49,.64,.86,.83,.37,.2,.79,.3,1.27,.3,.39,0,.75-.07,1.08-.21,.32-.14,.61-.34,.85-.62l.67,.8c-.3,.36-.68,.64-1.13,.83-.45,.19-.95,.28-1.5,.28Z"/>
          <path class="cls-1" d="M77.62,93.32l2.87-3.83v.63s-2.74-3.66-2.74-3.66h1.35l2.09,2.82h-.52l2.09-2.82h1.32l-2.77,3.69v-.66s2.91,3.83,2.91,3.83h-1.37l-2.2-3,.49,.08-2.17,2.92h-1.35Z"/>
        </g>
        <g>
          <path class="cls-1" d="M20.39,79.74v-13.67h7.31c1.89,0,3.28,.34,4.18,1.01,.9,.67,1.35,1.53,1.35,2.57,0,.69-.19,1.31-.58,1.85-.38,.54-.94,.97-1.67,1.28-.73,.31-1.63,.47-2.7,.47l.39-1.05c1.07,0,1.99,.15,2.76,.45,.77,.3,1.37,.73,1.8,1.3,.42,.57,.63,1.25,.63,2.04,0,1.19-.49,2.11-1.47,2.77-.98,.66-2.42,1-4.31,1h-7.7Zm4.53-3.22h2.77c.51,0,.89-.09,1.14-.27,.25-.18,.38-.45,.38-.8s-.13-.62-.38-.8c-.25-.18-.63-.27-1.14-.27h-3.09v-3.05h2.46c.52,0,.9-.09,1.14-.26,.24-.18,.36-.43,.36-.75s-.12-.59-.36-.76c-.24-.17-.62-.25-1.14-.25h-2.15v7.23Z"/>
          <path class="cls-1" d="M43.25,79.74v-11.53h-4.53v-2.15h11.6v2.15h-4.53v11.53h-2.54Z"/>
          <path class="cls-1" d="M57.65,79.93c-1.05,0-2.03-.18-2.94-.53-.91-.35-1.69-.85-2.35-1.48-.66-.64-1.18-1.38-1.54-2.24-.36-.85-.55-1.78-.55-2.78s.18-1.95,.55-2.8c.36-.85,.88-1.6,1.54-2.23,.66-.63,1.45-1.12,2.34-1.47,.9-.35,1.88-.53,2.95-.53s2.03,.17,2.93,.52c.9,.35,1.68,.83,2.33,1.47,.66,.63,1.17,1.38,1.53,2.24,.36,.86,.55,1.8,.55,2.81s-.18,1.95-.55,2.8c-.36,.85-.88,1.6-1.53,2.24-.66,.64-1.44,1.13-2.33,1.47-.9,.34-1.88,.52-2.93,.52Zm0-2.23c.69,0,1.32-.12,1.9-.35,.58-.23,1.08-.57,1.51-1,.43-.43,.77-.94,1.01-1.52,.24-.59,.36-1.23,.36-1.93s-.12-1.35-.35-1.93c-.23-.59-.57-1.09-1.01-1.52-.44-.43-.94-.76-1.52-1-.58-.23-1.21-.35-1.9-.35s-1.33,.12-1.92,.35c-.59,.23-1.1,.57-1.53,1.01-.43,.44-.77,.94-1.02,1.52-.25,.58-.37,1.22-.37,1.92s.12,1.33,.37,1.91c.25,.59,.59,1.1,1.02,1.53,.43,.44,.94,.77,1.53,1.01,.59,.23,1.23,.35,1.92,.35Z"/>
          <path class="cls-1" d="M70.38,79.74v-13.67h7.31c1.89,0,3.28,.34,4.18,1.01,.9,.67,1.35,1.53,1.35,2.57,0,.69-.19,1.31-.58,1.85-.38,.54-.94,.97-1.67,1.28-.73,.31-1.63,.47-2.7,.47l.39-1.05c1.07,0,1.99,.15,2.76,.45,.77,.3,1.37,.73,1.8,1.3,.42,.57,.63,1.25,.63,2.04,0,1.19-.49,2.11-1.47,2.77-.98,.66-2.42,1-4.31,1h-7.7Zm4.53-3.22h2.77c.51,0,.89-.09,1.14-.27,.25-.18,.38-.45,.38-.8s-.13-.62-.38-.8c-.25-.18-.63-.27-1.14-.27h-3.09v-3.05h2.46c.52,0,.9-.09,1.14-.26,.24-.18,.36-.43,.36-.75s-.12-.59-.36-.76c-.24-.17-.62-.25-1.14-.25h-2.15v7.23Z"/>
        </g>
      </g>
    </g>
  </g>
</svg>