<?xml version="1.0" encoding="UTF-8"?>
<svg id="Capa_2" data-name="Capa 2" xmlns="http://www.w3.org/2000/svg" xmlns:xlink="http://www.w3.org/1999/xlink" viewBox="0 0 233.69 57.23">
  <defs>
    <style>
      .cls-1 {
        fill: #fff;
      }

      .cls-2 {
        fill: url(#Degradado_sin_nombre_1116);
      }

      .cls-2, .cls-3, .cls-4, .cls-5, .cls-6, .cls-7, .cls-8 {
        stroke: #fff;
        stroke-miterlimit: 10;
        stroke-width: .33px;
      }

      .cls-3 {
        fill: url(#Degradado_sin_nombre_1113-2);
      }

      .cls-4 {
        fill: url(#Degradado_sin_nombre_1116-2);
      }

      .cls-5 {
        fill: #174853;
      }

      .cls-6 {
        fill: url(#Degradado_sin_nombre_1111);
      }

      .cls-7 {
        fill: url(#Degradado_sin_nombre_1113);
      }

      .cls-8 {
        fill: url(#Degradado_sin_nombre_1111-2);
      }
    </style>
    <linearGradient id="Degradado_sin_nombre_1116" data-name="Degradado sin nombre 1116" x1="55.82" y1="28.62" x2="55.82" y2=".17" gradientUnits="userSpaceOnUse">
      <stop offset="0" stop-color="#166a7a"/>
      <stop offset=".3" stop-color="#166574"/>
      <stop offset=".69" stop-color="#165764"/>
      <stop offset="1" stop-color="#174853"/>
    </linearGradient>
    <linearGradient id="Degradado_sin_nombre_1111" data-name="Degradado sin nombre 1111" x1="33.35" y1="42.84" x2="78.18" y2="42.84" gradientUnits="userSpaceOnUse">
      <stop offset="0" stop-color="#f4eddd"/>
      <stop offset=".11" stop-color="#d7d6cb"/>
      <stop offset=".32" stop-color="#a9b2af"/>
      <stop offset=".52" stop-color="#859598"/>
      <stop offset=".7" stop-color="#6b8089"/>
      <stop offset=".87" stop-color="#5b747f"/>
      <stop offset="1" stop-color="#56707c"/>
    </linearGradient>
    <linearGradient id="Degradado_sin_nombre_1113" data-name="Degradado sin nombre 1113" x1="83.52" y1="28.62" x2="83.52" y2=".17" gradientUnits="userSpaceOnUse">
      <stop offset="0" stop-color="#f4eddd"/>
      <stop offset=".08" stop-color="#efe4d0"/>
      <stop offset=".35" stop-color="#e2cbac"/>
      <stop offset=".6" stop-color="#d8ba92"/>
      <stop offset=".82" stop-color="#d3af82"/>
      <stop offset="1" stop-color="#d1ac7d"/>
    </linearGradient>
    <linearGradient id="Degradado_sin_nombre_1116-2" data-name="Degradado sin nombre 1116" x1=".45" y1="14.39" x2="45.28" y2="14.39" xlink:href="#Degradado_sin_nombre_1116"/>
    <linearGradient id="Degradado_sin_nombre_1111-2" data-name="Degradado sin nombre 1111" x1=".4" x2="45.23" xlink:href="#Degradado_sin_nombre_1111"/>
    <linearGradient id="Degradado_sin_nombre_1113-2" data-name="Degradado sin nombre 1113" x1="28.14" y1="14.39" x2="72.97" y2="14.39" xlink:href="#Degradado_sin_nombre_1113"/>
  </defs>
  <g id="Capa_1-2" data-name="Capa 1">
    <g>
      <g>
        <g>
          <polygon class="cls-2" points="33.41 28.62 50.65 28.62 78.24 .17 60.99 .17 33.41 28.62"/>
          <polygon class="cls-6" points="33.35 28.62 50.59 28.62 78.18 57.07 60.94 57.07 33.35 28.62"/>
          <polygon class="cls-7" points="105.93 28.62 88.69 28.62 61.1 .17 78.34 .17 105.93 28.62"/>
          <polygon class="cls-5" points="105.88 28.62 88.63 28.62 61.05 57.07 78.29 57.07 105.88 28.62"/>
        </g>
        <g>
          <polygon class="cls-4" points=".45 28.62 17.69 28.62 45.28 .17 28.04 .17 .45 28.62"/>
          <polygon class="cls-8" points=".4 28.62 17.64 28.62 45.23 57.07 27.98 57.07 .4 28.62"/>
          <polygon class="cls-3" points="72.97 28.62 55.73 28.62 28.14 .17 45.39 .17 72.97 28.62"/>
          <polygon class="cls-5" points="72.92 28.62 55.68 28.62 28.09 57.07 45.33 57.07 72.92 28.62"/>
        </g>
      </g>
      <g>
        <g>
          <path class="cls-1" d="M128.27,53.43c-1.19,0-2.28-.2-3.29-.61-1-.4-1.87-.98-2.61-1.72-.74-.74-1.31-1.61-1.73-2.6-.42-.99-.62-2.08-.62-3.28s.21-2.28,.62-3.28c.42-.99,1-1.86,1.74-2.6,.74-.74,1.62-1.31,2.62-1.72,1-.4,2.1-.61,3.29-.61s2.31,.21,3.33,.63c1.02,.42,1.88,1.04,2.6,1.87l-1.45,1.44c-.59-.64-1.26-1.12-2.01-1.43-.74-.31-1.54-.47-2.38-.47s-1.69,.15-2.44,.46c-.75,.31-1.4,.73-1.95,1.28-.55,.55-.98,1.2-1.28,1.96-.3,.76-.46,1.58-.46,2.46s.15,1.71,.46,2.46,.73,1.41,1.28,1.96c.55,.55,1.2,.98,1.95,1.28,.75,.31,1.56,.46,2.44,.46s1.64-.16,2.38-.47c.74-.31,1.41-.8,2.01-1.45l1.45,1.44c-.71,.82-1.58,1.45-2.6,1.88-1.02,.43-2.14,.64-3.35,.64Z"/>
          <path class="cls-1" d="M150.69,53.38c-1.17,0-2.23-.27-3.15-.8-.93-.53-1.66-1.27-2.2-2.21s-.8-2-.8-3.2,.27-2.27,.8-3.2c.53-.92,1.26-1.65,2.18-2.19,.92-.53,1.98-.8,3.16-.8s2.22,.26,3.15,.79c.93,.53,1.66,1.26,2.18,2.19,.53,.93,.79,2,.79,3.21s-.26,2.28-.79,3.21c-.53,.93-1.26,1.66-2.18,2.2-.93,.53-1.98,.8-3.15,.8Zm0-1.92c.76,0,1.44-.18,2.04-.53,.6-.35,1.07-.85,1.42-1.5,.34-.65,.51-1.4,.51-2.26s-.17-1.62-.51-2.26c-.34-.63-.81-1.13-1.42-1.48-.6-.35-1.28-.53-2.04-.53s-1.43,.18-2.03,.53c-.59,.35-1.07,.84-1.43,1.48-.36,.63-.54,1.39-.54,2.26s.18,1.61,.54,2.26c.36,.65,.83,1.15,1.43,1.5,.59,.35,1.27,.53,2.03,.53Z"/>
          <path class="cls-1" d="M183.59,40.99c.95,0,1.79,.19,2.52,.57,.73,.38,1.3,.96,1.71,1.74,.41,.78,.61,1.76,.61,2.96v6.99h-2.14v-6.74c0-1.18-.27-2.06-.8-2.66-.54-.6-1.29-.89-2.25-.89-.71,0-1.34,.15-1.87,.46-.54,.31-.95,.76-1.24,1.35-.29,.6-.43,1.34-.43,2.22v6.25h-2.14v-6.74c0-1.18-.26-2.06-.79-2.66-.53-.6-1.28-.89-2.26-.89-.7,0-1.31,.15-1.85,.46-.54,.31-.95,.76-1.25,1.35-.3,.6-.45,1.34-.45,2.22v6.25h-2.14v-12.14h2.05v3.23l-.33-.82c.37-.79,.94-1.41,1.72-1.86,.77-.44,1.67-.66,2.7-.66,1.13,0,2.1,.29,2.92,.86,.82,.57,1.35,1.44,1.6,2.6l-.87-.37c.36-.93,.98-1.68,1.87-2.25,.89-.56,1.93-.85,3.12-.85Z"/>
          <path class="cls-1" d="M206.65,53.38c-1.26,0-2.37-.27-3.33-.8-.96-.53-1.7-1.27-2.23-2.2-.53-.93-.79-2-.79-3.21s.26-2.28,.77-3.21c.51-.93,1.22-1.66,2.12-2.19,.9-.53,1.91-.79,3.04-.79s2.15,.26,3.03,.78c.88,.52,1.56,1.25,2.06,2.19s.75,2.04,.75,3.29c0,.09,0,.2-.01,.32,0,.12-.02,.24-.03,.34h-10.05v-1.58h8.94l-.87,.55c.01-.78-.14-1.47-.47-2.08-.33-.61-.78-1.09-1.35-1.43-.57-.34-1.24-.52-1.99-.52s-1.4,.17-1.98,.52-1.03,.82-1.36,1.44c-.33,.62-.49,1.33-.49,2.12v.37c0,.81,.18,1.53,.55,2.16,.36,.63,.87,1.13,1.53,1.48,.65,.35,1.4,.53,2.25,.53,.7,0,1.33-.12,1.91-.37,.57-.24,1.07-.61,1.5-1.1l1.18,1.42c-.53,.64-1.2,1.13-1.99,1.47-.79,.34-1.68,.5-2.66,.5Z"/>
          <path class="cls-1" d="M222.01,53.25l5.08-6.78-.02,1.12-4.84-6.48h2.38l3.7,4.99h-.91l3.7-4.99h2.34l-4.9,6.53,.02-1.17,5.13,6.78h-2.43l-3.9-5.31,.87,.14-3.83,5.18h-2.38Z"/>
        </g>
        <g>
          <path class="cls-1" d="M120.72,29.21V5.01h12.93c3.34,0,5.81,.59,7.4,1.78,1.59,1.19,2.39,2.7,2.39,4.55,0,1.22-.34,2.31-1.02,3.27-.68,.96-1.67,1.71-2.96,2.26-1.29,.55-2.88,.83-4.77,.83l.69-1.87c1.89,0,3.52,.27,4.89,.8,1.37,.53,2.43,1.3,3.18,2.3,.75,1,1.12,2.21,1.12,3.61,0,2.1-.87,3.73-2.61,4.91-1.74,1.18-4.28,1.76-7.62,1.76h-13.62Zm8.02-5.71h4.91c.9,0,1.57-.16,2.02-.48,.45-.32,.67-.8,.67-1.42s-.22-1.09-.67-1.42c-.45-.32-1.12-.48-2.02-.48h-5.46v-5.39h4.36c.92,0,1.6-.16,2.02-.47,.43-.31,.64-.75,.64-1.33s-.21-1.05-.64-1.35c-.43-.3-1.1-.45-2.02-.45h-3.8v12.79Z"/>
          <path class="cls-1" d="M161.18,29.21V8.81h-8.02v-3.8h20.54v3.8h-8.02V29.21h-4.49Z"/>
          <path class="cls-1" d="M186.66,29.56c-1.87,0-3.6-.31-5.2-.93-1.6-.62-2.99-1.5-4.17-2.63-1.18-1.13-2.09-2.45-2.73-3.96-.65-1.51-.97-3.15-.97-4.93s.32-3.45,.97-4.96c.65-1.51,1.56-2.82,2.73-3.94,1.18-1.12,2.56-1.99,4.15-2.61,1.59-.62,3.33-.93,5.22-.93s3.6,.31,5.19,.92c1.59,.61,2.97,1.48,4.13,2.59,1.16,1.12,2.07,2.44,2.71,3.96,.65,1.52,.97,3.18,.97,4.98s-.32,3.45-.97,4.96c-.65,1.51-1.55,2.83-2.71,3.96-1.16,1.13-2.54,2-4.13,2.61-1.59,.61-3.32,.92-5.19,.92Zm0-3.94c1.22,0,2.35-.21,3.37-.62,1.03-.41,1.92-1,2.68-1.76,.76-.76,1.35-1.66,1.78-2.7,.43-1.04,.64-2.18,.64-3.42s-.21-2.39-.62-3.42c-.41-1.04-1.01-1.94-1.78-2.7-.77-.76-1.67-1.35-2.7-1.76-1.03-.42-2.15-.62-3.37-.62s-2.36,.21-3.41,.62c-1.05,.41-1.95,1.01-2.71,1.78-.76,.77-1.36,1.67-1.8,2.7-.44,1.03-.66,2.16-.66,3.41s.22,2.35,.66,3.39c.44,1.04,1.04,1.94,1.8,2.71,.76,.77,1.67,1.37,2.71,1.78,1.05,.41,2.18,.62,3.41,.62Z"/>
          <path class="cls-1" d="M209.2,29.21V5.01h12.93c3.34,0,5.81,.59,7.4,1.78,1.59,1.19,2.39,2.7,2.39,4.55,0,1.22-.34,2.31-1.02,3.27-.68,.96-1.67,1.71-2.96,2.26-1.29,.55-2.88,.83-4.77,.83l.69-1.87c1.89,0,3.52,.27,4.89,.8,1.37,.53,2.43,1.3,3.18,2.3,.75,1,1.12,2.21,1.12,3.61,0,2.1-.87,3.73-2.61,4.91-1.74,1.18-4.28,1.76-7.62,1.76h-13.62Zm8.02-5.71h4.91c.9,0,1.57-.16,2.02-.48,.45-.32,.67-.8,.67-1.42s-.22-1.09-.67-1.42c-.45-.32-1.12-.48-2.02-.48h-5.46v-5.39h4.36c.92,0,1.6-.16,2.02-.47,.43-.31,.64-.75,.64-1.33s-.21-1.05-.64-1.35c-.43-.3-1.1-.45-2.02-.45h-3.8v12.79Z"/>
        </g>
      </g>
    </g>
  </g>
</svg>