<?xml version="1.0" encoding="UTF-8"?>
<svg id="Capa_2" data-name="Capa 2" xmlns="http://www.w3.org/2000/svg" viewBox="0 0 67.58 67.58">
  <defs>
    <style>
      .cls-1 {
        fill: #eeefef;
      }
    </style>
  </defs>
  <g id="Capa_1-2" data-name="Capa 1">
    <g>
      <circle class="cls-1" cx="33.79" cy="33.79" r="33.79"/>
      <path d="M49.21,37.12v11.41h-6.61v-10.64c0-2.67-.95-4.5-3.35-4.5-1.83,0-2.91,1.23-3.39,2.42-.17,.43-.22,1.02-.22,1.61v11.11h-6.61s.09-18.02,0-19.89h6.61v2.82s-.03,.04-.04,.07h.04v-.07c.88-1.35,2.45-3.29,5.96-3.29,4.35,0,7.61,2.84,7.61,8.95h0ZM22.11,19.05c-2.26,0-3.74,1.48-3.74,3.44s1.44,3.44,3.66,3.44h.04c2.31,0,3.74-1.53,3.74-3.44-.04-1.95-1.43-3.44-3.7-3.44h0Zm-3.35,29.48h6.61V28.64h-6.61v19.89Z"/>
    </g>
  </g>
</svg>