<?xml version="1.0" encoding="UTF-8"?>
<svg id="Capa_2" data-name="Capa 2" xmlns="http://www.w3.org/2000/svg" viewBox="0 0 66.73 66.73">
  <defs>
    <style>
      .cls-1 {
        fill: #eeefef;
      }
    </style>
  </defs>
  <g id="Capa_1-2" data-name="Capa 1">
    <g>
      <circle class="cls-1" cx="33.36" cy="33.36" r="33.36"/>
      <g>
        <g>
          <path d="M33.36,20.48c4.2,0,4.69,.02,6.35,.09,1.53,.07,2.36,.33,2.92,.54,.73,.29,1.26,.63,1.81,1.18,.55,.55,.89,1.07,1.18,1.81,.22,.55,.47,1.39,.54,2.92,.08,1.66,.09,2.15,.09,6.35s-.02,4.69-.09,6.35c-.07,1.53-.33,2.36-.54,2.92-.29,.73-.63,1.26-1.18,1.81s-1.07,.89-1.81,1.18c-.55,.22-1.39,.47-2.92,.54-1.66,.08-2.15,.09-6.35,.09s-4.69-.02-6.35-.09c-1.53-.07-2.36-.33-2.92-.54-.73-.29-1.26-.63-1.81-1.18-.55-.55-.89-1.07-1.18-1.81-.22-.55-.47-1.39-.54-2.92-.08-1.66-.09-2.15-.09-6.35s.02-4.69,.09-6.35c.07-1.53,.33-2.36,.54-2.92,.29-.73,.63-1.26,1.18-1.81,.55-.55,1.07-.89,1.81-1.18,.55-.22,1.39-.47,2.92-.54,1.66-.08,2.15-.09,6.35-.09m0-2.83c-4.27,0-4.8,.02-6.48,.09-1.67,.08-2.82,.34-3.82,.73-1.03,.4-1.91,.94-2.78,1.81-.87,.87-1.41,1.75-1.81,2.78-.39,1-.65,2.14-.73,3.82-.08,1.68-.09,2.21-.09,6.48s.02,4.8,.09,6.48c.08,1.67,.34,2.82,.73,3.82,.4,1.03,.94,1.91,1.81,2.78,.87,.87,1.75,1.41,2.78,1.81,1,.39,2.14,.65,3.82,.73,1.68,.08,2.21,.09,6.48,.09s4.8-.02,6.48-.09c1.67-.08,2.82-.34,3.82-.73,1.03-.4,1.91-.94,2.78-1.81,.87-.87,1.41-1.75,1.81-2.78,.39-1,.65-2.14,.73-3.82,.08-1.68,.09-2.21,.09-6.48s-.02-4.8-.09-6.48c-.08-1.67-.34-2.82-.73-3.82-.4-1.03-.94-1.91-1.81-2.78-.87-.87-1.75-1.41-2.78-1.81-1-.39-2.14-.65-3.82-.73-1.68-.08-2.21-.09-6.48-.09"/>
          <path d="M33.37,49.95c-4.3,0-4.85-.02-6.52-.09-1.61-.07-2.87-.31-4.09-.79-1.21-.47-2.16-1.09-3.08-2.01-.92-.92-1.54-1.87-2.01-3.08s-.71-2.48-.79-4.09c-.08-1.67-.1-2.22-.1-6.52s.02-4.85,.1-6.52c.07-1.61,.32-2.88,.79-4.09,.47-1.22,1.1-2.17,2.01-3.08,.91-.92,1.87-1.54,3.08-2.01,1.21-.47,2.47-.71,4.09-.79,1.74-.08,2.32-.09,6.52-.09s4.78,.02,6.52,.09c1.62,.08,2.88,.32,4.09,.79,1.22,.48,2.17,1.1,3.08,2.01,.92,.92,1.53,1.87,2.01,3.08s.71,2.48,.79,4.09c.08,1.67,.1,2.22,.1,6.52s-.02,4.85-.1,6.52c-.07,1.61-.32,2.88-.79,4.09-.47,1.21-1.09,2.16-2,3.08-.92,.92-1.87,1.53-3.08,2.01-1.22,.47-2.48,.72-4.09,.79-1.67,.08-2.22,.09-6.52,.09Zm0-31.44c-4.24,0-4.78,.02-6.44,.09-1.42,.06-2.51,.27-3.54,.67-.98,.38-1.75,.88-2.49,1.62-.74,.73-1.24,1.5-1.62,2.48-.4,1.03-.61,2.12-.67,3.54-.08,1.67-.09,2.17-.09,6.44s.02,4.77,.09,6.44c.07,1.42,.27,2.51,.67,3.54,.38,.98,.88,1.75,1.62,2.49,.74,.74,1.51,1.24,2.49,1.62,1.03,.4,2.12,.61,3.54,.67,1.67,.08,2.17,.09,6.44,.09s4.77-.02,6.44-.09c1.42-.06,2.51-.27,3.54-.67,.98-.38,1.75-.88,2.49-1.62,.74-.74,1.24-1.51,1.62-2.48,.4-1.03,.61-2.13,.67-3.55,.08-1.67,.09-2.17,.09-6.44s-.02-4.77-.09-6.44c-.07-1.42-.27-2.51-.67-3.54-.38-.98-.88-1.75-1.62-2.48-.74-.74-1.5-1.24-2.49-1.62-1.02-.4-2.12-.61-3.54-.67-1.66-.07-2.2-.09-6.44-.09Zm0,28.6c-4.22,0-4.72-.02-6.39-.09-1.66-.07-2.58-.36-3.19-.6-.84-.32-1.47-.73-2.11-1.37-.63-.63-1.04-1.26-1.37-2.1-.24-.62-.52-1.54-.6-3.19-.08-1.66-.09-2.16-.09-6.39s.02-4.73,.09-6.39c.07-1.65,.36-2.57,.6-3.19,.33-.85,.74-1.48,1.37-2.11,.63-.63,1.26-1.04,2.1-1.37,.63-.24,1.55-.52,3.19-.6,1.67-.07,2.17-.09,6.39-.09s4.72,.02,6.39,.09c1.65,.08,2.57,.36,3.19,.6,.85,.33,1.48,.74,2.11,1.37,.64,.64,1.04,1.27,1.37,2.11,.24,.61,.52,1.53,.6,3.19,.08,1.67,.09,2.17,.09,6.39s-.02,4.72-.09,6.39-.36,2.59-.6,3.2c-.32,.83-.73,1.46-1.37,2.1-.64,.64-1.27,1.05-2.11,1.37-.61,.24-1.53,.52-3.19,.6-1.67,.07-2.17,.09-6.39,.09Zm0-25.77c-4.17,0-4.67,.02-6.31,.09-1.4,.06-2.15,.29-2.65,.48-.62,.24-1.05,.52-1.5,.98-.46,.46-.74,.89-.98,1.51-.19,.49-.42,1.24-.48,2.64-.07,1.63-.09,2.12-.09,6.31s.02,4.69,.09,6.31c.06,1.41,.29,2.15,.48,2.65,.24,.62,.52,1.04,.98,1.5s.89,.74,1.51,.98c.49,.19,1.24,.42,2.65,.48,1.65,.07,2.14,.09,6.31,.09s4.66-.02,6.31-.09c1.41-.06,2.15-.29,2.64-.48,.62-.24,1.05-.52,1.51-.98s.74-.89,.98-1.5c.19-.49,.42-1.24,.49-2.65,.07-1.64,.09-2.14,.09-6.31s-.02-4.66-.09-6.31c-.07-1.41-.29-2.15-.49-2.64-.24-.62-.52-1.04-.98-1.51-.46-.46-.88-.74-1.51-.98-.49-.19-1.24-.42-2.65-.48-1.64-.07-2.14-.09-6.31-.09Z"/>
        </g>
        <g>
          <path d="M33.36,25.29c-4.46,0-8.07,3.61-8.07,8.07s3.61,8.07,8.07,8.07,8.07-3.61,8.07-8.07-3.61-8.07-8.07-8.07m0,13.31c-2.89,0-5.24-2.35-5.24-5.24s2.35-5.24,5.24-5.24,5.24,2.35,5.24,5.24-2.35,5.24-5.24,5.24"/>
          <path d="M33.37,42.3c-4.93,0-8.94-4.01-8.94-8.94s4.01-8.94,8.94-8.94,8.94,4.01,8.94,8.94-4.01,8.94-8.94,8.94Zm0-16.14c-3.97,0-7.21,3.23-7.21,7.21s3.23,7.21,7.21,7.21,7.21-3.23,7.21-7.21-3.23-7.21-7.21-7.21Zm0,13.31c-3.37,0-6.1-2.74-6.1-6.1s2.74-6.1,6.1-6.1,6.1,2.74,6.1,6.1-2.74,6.1-6.1,6.1Zm0-10.48c-2.41,0-4.37,1.96-4.37,4.37s1.96,4.37,4.37,4.37,4.37-1.96,4.37-4.37-1.96-4.37-4.37-4.37Z"/>
        </g>
        <path d="M43.64,24.97c0,1.04-.84,1.89-1.89,1.89s-1.89-.84-1.89-1.89,.84-1.89,1.89-1.89,1.89,.84,1.89,1.89"/>
      </g>
    </g>
  </g>
</svg>