<?xml version="1.0" encoding="UTF-8"?>
<svg xmlns="http://www.w3.org/2000/svg" viewBox="0 0 77.16 77.16">
  <defs>
    <style>
      .cls-1 {
        isolation: isolate;
      }

      .cls-2 {
        fill: #eeefef;
      }

      .cls-3 {
        fill: #070707;
      }

      .cls-4 {
        mix-blend-mode: multiply;
      }
    </style>
  </defs>
  <g class="cls-1">
    <g id="Capa_2" data-name="Capa 2">
      <g id="Capa_1-2" data-name="Capa 1">
        <g>
          <circle class="cls-2" cx="38.58" cy="38.58" r="38.58"/>
          <g class="cls-4">
            <path class="cls-3" d="M43.83,33.8c.29,0,.64,0,.98,0,2.1,0,4.21,0,6.31,0,1.36,0,1.85,.58,1.68,1.9-.25,2-.48,3.99-.71,5.99-.13,1.09-.56,1.5-1.67,1.51-1.97,0-3.93,.03-5.9-.01-.66-.01-.86,.18-.86,.85,.02,6.27,.01,12.53,.01,18.8,0,1.22-.25,1.47-1.45,1.47-2.08,0-4.16,0-6.24,0-1.06,0-1.3-.25-1.3-1.32,0-6.29,.02-12.58,.03-18.87q0-.92-.9-.92c-1.39,0-2.78,0-4.16,0-1.14,0-1.58-.46-1.59-1.61,0-2.06,0-4.12,0-6.17,0-1.1,.47-1.57,1.56-1.58,1.41-.01,2.82-.03,4.23,0,.63,.02,.84-.16,.83-.81-.02-2.31-.04-4.63,.04-6.94,.09-2.43,.74-4.7,2.23-6.66,2.01-2.64,4.81-3.76,8.01-3.93,2.05-.11,4.12-.04,6.17-.04,.89,0,1.41,.47,1.42,1.35,.03,1.85,.03,3.7,0,5.55-.01,.91-.48,1.35-1.4,1.37-.88,.03-1.76,0-2.64,.01-.58,.01-1.16,.03-1.73,.1-1.85,.23-2.93,1.18-3.05,3.02-.14,2.23-.05,4.48-.06,6.72,0,.04,.04,.08,.11,.2Z"/>
          </g>
        </g>
      </g>
    </g>
  </g>
</svg>