<?xml version="1.0" encoding="UTF-8"?>
<svg xmlns="http://www.w3.org/2000/svg" viewBox="0 0 68.33 68.33">
  <defs>
    <style>
      .cls-1 {
        isolation: isolate;
      }

      .cls-2 {
        fill: #eeefef;
      }

      .cls-3 {
        fill: #070707;
      }

      .cls-4 {
        mix-blend-mode: multiply;
      }
    </style>
  </defs>
  <g class="cls-1">
    <g id="Capa_2" data-name="Capa 2">
      <g id="Capa_1-2" data-name="Capa 1">
        <g>
          <circle class="cls-2" cx="34.16" cy="34.16" r="34.16"/>
          <g class="cls-4">
            <g>
              <path class="cls-3" d="M53.16,33.91c-.01,8.65-5.95,16.23-14.36,18.28-4.24,1.04-8.35,.64-12.34-1.13-.33-.15-.77-.19-1.12-.11-2.94,.67-5.88,1.39-8.82,2.08-.7,.17-1.12-.25-.98-.98,.53-2.61,1.07-5.22,1.6-7.82,.1-.49,.23-.98,.29-1.48,.03-.21-.03-.47-.12-.66-1.54-3.27-2.17-6.69-1.74-10.29,.62-5.2,2.98-9.47,7.08-12.71,3.75-2.97,8.07-4.26,12.84-4.01,7.78,.4,14.81,6.05,16.91,13.58,.48,1.73,.74,3.48,.75,5.27Zm-32.58,13.89c.26-.04,.42-.05,.57-.09,1.35-.32,2.7-.61,4.04-.97,.82-.22,1.52-.17,2.3,.24,3.51,1.82,7.18,2.15,10.99,1.07,8.33-2.36,12.84-11.79,9.45-19.77-3.01-7.07-10.53-10.62-17.94-8.46-5.85,1.71-10.19,7.32-10.42,13.39-.11,2.85,.52,5.5,1.88,7.98,.25,.45,.33,.88,.21,1.38-.25,1.05-.45,2.11-.67,3.17-.14,.66-.26,1.32-.4,2.05Z"/>
              <path class="cls-3" d="M39.52,43.12c-2.09-.05-3.78-.58-5.35-1.48-3.27-1.87-5.99-4.35-7.98-7.56-.87-1.39-1.38-2.91-1.41-4.58-.01-.98,.23-1.87,.82-2.62,.47-.6,1.01-1.18,1.58-1.68,.72-.63,1.67-.43,2.08,.43,.57,1.18,1.08,2.39,1.59,3.6,.21,.48,.1,.96-.21,1.37-.24,.32-.49,.62-.72,.94-.38,.52-.4,1.09-.03,1.6,1.62,2.23,3.64,4.02,6.06,5.35,.57,.31,1.09,.23,1.58-.23,.33-.31,.63-.64,.96-.95,.39-.37,.85-.5,1.39-.34,1.14,.33,2.28,.64,3.42,.98,1.09,.33,1.45,1.29,.82,2.25-.78,1.19-1.67,2.28-3.12,2.69-.57,.16-1.17,.2-1.49,.25Z"/>
            </g>
          </g>
        </g>
      </g>
    </g>
  </g>
</svg>