<?xml version="1.0" encoding="UTF-8"?>
<svg id="Capa_2" data-name="Capa 2" xmlns="http://www.w3.org/2000/svg" xmlns:xlink="http://www.w3.org/1999/xlink" viewBox="0 0 789.07 182">
  <defs>
    <style>
      .cls-1 {
        filter: url(#drop-shadow-1);
      }

      .cls-1, .cls-2 {
        fill: #d60a19;
      }

      .cls-3 {
        fill: #fff;
      }

      .cls-4 {
        fill: url(#Degradado_sin_nombre_8);
      }
    </style>
    <linearGradient id="Degradado_sin_nombre_8" data-name="Degradado sin nombre 8" x1="81" y1="85.07" x2="789.07" y2="85.07" gradientUnits="userSpaceOnUse">
      <stop offset="0" stop-color="#000"/>
      <stop offset="1" stop-color="#941800"/>
    </linearGradient>
    <filter id="drop-shadow-1" filterUnits="userSpaceOnUse">
      <feOffset dx="5.38" dy="5.38"/>
      <feGaussianBlur result="blur" stdDeviation="2.69"/>
      <feFlood flood-color="#000" flood-opacity=".44"/>
      <feComposite in2="blur" operator="in"/>
      <feComposite in="SourceGraphic"/>
    </filter>
  </defs>
  <g id="Capa_1-2" data-name="Capa 1">
    <g>
      <g>
        <path class="cls-4" d="M81,3.63H752.12c20.39,0,36.95,16.55,36.95,36.95v125.94H81V3.63h0Z"/>
        <path class="cls-2" d="M85.04,14.4H742.09c19.98,0,36.21,16.22,36.21,36.21v44.56H85.04V14.4h0Z"/>
        <circle class="cls-3" cx="422.84" cy="64.21" r="5.38"/>
        <rect class="cls-3" x="85.04" y="95.17" width="693.26" height="56.54"/>
        <g>
          <path class="cls-2" d="M285.99,136.97l17.63-26.94h3.81l6.81,26.94h-3.81l-6.01-24.87h1.54l-15.82,24.87h-4.16Zm6.54-6.74l1.69-3.08h15.13l.54,3.08h-17.36Z"/>
          <path class="cls-2" d="M325.94,136.97l5.39-26.94h3.16l12.93,22.25-1.15-.15,4.39-22.09h3.85l-5.39,26.94h-3.16l-12.93-22.25,1.16,.15-4.39,22.09h-3.85Z"/>
          <path class="cls-2" d="M364.9,136.97l5.39-26.94h3.85l-5.39,26.94h-3.85Z"/>
          <path class="cls-2" d="M392.03,136.97l-6.47-26.94h3.96l5.89,24.87h-2.39l16.01-24.87h4l-17.24,26.94h-3.77Z"/>
          <path class="cls-2" d="M423.29,133.62h15.74l-.65,3.35h-19.59l5.39-26.94h19.01l-.65,3.35h-15.2l-4.04,20.25Zm2.08-11.97h13.86l-.65,3.27h-13.86l.65-3.27Z"/>
          <path class="cls-2" d="M452.27,136.97l5.39-26.94h10.05c3.16,0,5.6,.69,7.33,2.08,1.73,1.39,2.6,3.32,2.6,5.81,0,2.26-.51,4.2-1.52,5.81-1.01,1.62-2.47,2.85-4.37,3.71-1.9,.86-4.16,1.29-6.77,1.29h-8.81l1.96-1.77-1.96,10.01h-3.89Zm5.77-9.58l-1.31-1.92h8.35c2.74,0,4.88-.61,6.41-1.83,1.53-1.22,2.29-3.01,2.29-5.37,0-1.62-.55-2.84-1.66-3.66-1.1-.82-2.69-1.23-4.77-1.23h-8.08l1.96-1.96-3.19,15.97Zm12.36,9.58l-5.54-9.78h4.12l5.5,9.78h-4.08Z"/>
          <path class="cls-2" d="M496.27,137.27c-1.36,0-2.69-.15-3.98-.44-1.3-.3-2.48-.69-3.54-1.18-1.06-.49-1.92-1.04-2.56-1.66l1.69-3.08c.69,.62,1.51,1.15,2.44,1.62,.94,.46,1.94,.82,3,1.08s2.16,.38,3.29,.38c1.44,0,2.71-.18,3.81-.54,1.1-.36,1.96-.88,2.56-1.56,.6-.68,.9-1.51,.9-2.48,0-.8-.26-1.45-.77-1.96-.51-.51-1.17-.93-1.98-1.25s-1.71-.62-2.69-.88c-.99-.27-1.98-.58-2.96-.92-.99-.35-1.89-.78-2.69-1.29-.81-.51-1.46-1.17-1.96-1.98s-.75-1.83-.75-3.06c0-1.72,.47-3.2,1.42-4.45,.95-1.24,2.27-2.21,3.95-2.89,1.68-.68,3.62-1.02,5.83-1.02,1.67,0,3.26,.19,4.77,.58,1.51,.39,2.81,.95,3.89,1.69l-1.54,3.16c-1-.72-2.13-1.26-3.39-1.62-1.26-.36-2.57-.54-3.93-.54-1.46,0-2.73,.19-3.81,.58-1.08,.38-1.91,.93-2.5,1.64s-.9,1.53-.92,2.48c0,.82,.24,1.49,.73,2,.49,.51,1.14,.94,1.96,1.27,.82,.33,1.73,.65,2.71,.94,.99,.29,1.97,.6,2.94,.92,.98,.32,1.88,.73,2.71,1.23,.83,.5,1.5,1.14,2,1.91,.5,.77,.75,1.75,.75,2.92,0,1.72-.48,3.21-1.44,4.48-.96,1.27-2.3,2.24-4,2.91-1.71,.67-3.69,1-5.95,1Z"/>
          <path class="cls-2" d="M515.47,136.97l17.63-26.94h3.81l6.81,26.94h-3.81l-6.01-24.87h1.54l-15.82,24.87h-4.16Zm6.54-6.74l1.69-3.08h15.13l.54,3.08h-17.36Z"/>
          <path class="cls-2" d="M555.43,136.97l5.39-26.94h10.05c3.16,0,5.6,.69,7.33,2.08,1.73,1.39,2.6,3.32,2.6,5.81,0,2.26-.51,4.2-1.52,5.81-1.01,1.62-2.47,2.85-4.37,3.71-1.9,.86-4.16,1.29-6.77,1.29h-8.81l1.96-1.77-1.96,10.01h-3.89Zm5.77-9.58l-1.31-1.92h8.35c2.74,0,4.88-.61,6.41-1.83,1.53-1.22,2.29-3.01,2.29-5.37,0-1.62-.55-2.84-1.66-3.66-1.1-.82-2.69-1.23-4.77-1.23h-8.08l1.96-1.96-3.19,15.97Zm12.36,9.58l-5.54-9.78h4.12l5.5,9.78h-4.08Z"/>
          <path class="cls-2" d="M591.11,136.97l5.39-26.94h3.85l-5.39,26.94h-3.85Z"/>
          <path class="cls-2" d="M623.71,137.27c-2.67,0-4.95-.47-6.85-1.42-1.9-.95-3.34-2.28-4.33-3.98-.99-1.71-1.48-3.69-1.48-5.95s.39-4.33,1.15-6.29c.77-1.96,1.87-3.69,3.31-5.18s3.16-2.65,5.16-3.48c2-.83,4.25-1.25,6.74-1.25,2.69,0,4.99,.47,6.89,1.42,1.9,.95,3.34,2.28,4.33,3.98,.99,1.71,1.48,3.69,1.48,5.95s-.38,4.33-1.15,6.29c-.77,1.96-1.87,3.69-3.31,5.18-1.44,1.49-3.16,2.65-5.18,3.48-2.02,.83-4.27,1.25-6.76,1.25Zm.35-3.43c1.85,0,3.53-.33,5.04-.98,1.51-.65,2.8-1.57,3.85-2.73,1.05-1.17,1.86-2.51,2.43-4.02,.56-1.51,.85-3.12,.85-4.81s-.35-3.03-1.04-4.25c-.69-1.22-1.72-2.17-3.08-2.87s-3.03-1.04-5-1.04c-1.87,0-3.56,.33-5.06,.98-1.5,.65-2.78,1.57-3.85,2.73-1.06,1.17-1.88,2.51-2.44,4.02-.57,1.51-.85,3.12-.85,4.81s.35,3.03,1.06,4.25c.71,1.22,1.73,2.18,3.08,2.87,1.35,.69,3.02,1.04,5.02,1.04Z"/>
        </g>
        <circle class="cls-1" cx="85.45" cy="85.01" r="82.11"/>
        <path class="cls-3" d="M51.82,68.96c-1.3-3.37-2.59-6.1-3.43-8.97-4.98-17.06,5.52-28.39,18.51-27.65,6.58,.37,13.12,5.25,15.51,11.76,.34,.92,.65,1.84,1.29,3.67,1.7-1.82,2.77-3.26,4.12-4.35,4.07-3.29,7.86-7.28,12.48-9.45,7.78-3.65,16.18-.95,21.11,5.51,4.74,6.22,4.79,14.78,.15,21.71-.74,1.1-1.47,2.21-2.63,3.97,3.84,.82,7.12,1.5,10.4,2.23,9.2,2.05,15.45,8.73,16.47,17.57,.87,7.54-3.44,14.93-11.67,18.18-3.8,1.5-8.28,1.28-12.73,1.88,1.17,4.22,2.47,8.26,3.39,12.39,1.87,8.39-2.66,17.72-10.11,21.24-7.11,3.36-17.17,1.18-21.97-5.06-1.85-2.41-3.04-5.32-4.95-8.75-1.12,1.61-1.97,2.97-2.95,4.21-5.35,6.75-11.68,11.44-20.93,11.02-14.51-.65-20.89-17.5-13.42-28.37,.93-1.36,1.9-2.69,2.6-3.69-5.92-1.98-11.78-3.25-16.97-5.85-8.23-4.13-11.68-13.85-8.7-21.99,2.95-8.05,11.31-12.76,20.23-11.43,1.13,.17,2.28,.14,4.2,.24Zm27.48,25.66c-6.77,7.7-15.06,10.17-23.6,12.65,4.73,7.45,11.51,8.87,18.76,7.57,9.33-1.67,13.66-8.52,15.1-17.64,.63,.15,1.25,.3,1.88,.45-.47,8.31-.95,16.63-1.45,25.4,5.2,0,9.52-2.52,12.38-7.03,6.46-10.17,4.09-19.3-4.86-27.37,.59-.46,1.19-.92,1.78-1.38,6.72,4.69,13.44,9.38,20.31,14.17,3.63-4.51,2.71-9.64,.24-14.59-5.27-10.52-14.26-12.54-26.23-9.58,5.89-5.6,11.37-8.72,17.89-10.13,1.39-.3,2.62-1.31,3.93-1.99-.84-1.37-1.39-3.09-2.57-4.05-9.31-7.54-23.65-3.65-28.33,7.55-.72,1.71-1.57,3.37-2.36,5.05-.63-.17-1.26-.35-1.89-.52,.65-7.84,1.31-15.68,1.99-23.81-6.23,1.07-10.82,3.91-13.76,9.25-5.17,9.4-1.94,17.3,5.91,25.23-10.08-1.4-15.12-8.56-22.02-12.89-3.04,8.08-1.71,14.71,3.59,20.24,6.25,6.52,14,6.24,23.33,3.42Z"/>
      </g>
      <g>
        <path class="cls-3" d="M182.85,75.78v-30.42l4.11,3.96h-10.4v-7.4h15.86v33.85h-9.57Z"/>
        <path class="cls-3" d="M208.81,76.46c-2.35,0-4.7-.29-7.04-.87-2.34-.58-4.38-1.4-6.12-2.47l3.48-7.21c1.35,.9,2.86,1.6,4.52,2.08,1.66,.48,3.28,.73,4.86,.73s2.95-.31,3.92-.92c.97-.61,1.45-1.48,1.45-2.61,0-1-.4-1.8-1.21-2.39-.81-.6-2.13-.89-3.96-.89h-4.01v-6.04l9.09-9.82,.92,3.29h-17.31v-7.4h24.47v6l-9.09,9.82-4.69-2.66h2.61c4.22,0,7.42,.94,9.6,2.83s3.26,4.31,3.26,7.28c0,1.93-.52,3.76-1.57,5.46-1.05,1.71-2.65,3.1-4.81,4.18-2.16,1.08-4.95,1.62-8.37,1.62Z"/>
        <path class="cls-3" d="M239.03,41.26c3.19,0,5.96,.63,8.29,1.89,2.34,1.26,4.16,3.12,5.46,5.58,1.31,2.47,1.96,5.54,1.96,9.21,0,3.93-.77,7.28-2.3,10.03-1.53,2.76-3.64,4.86-6.33,6.31s-5.83,2.18-9.4,2.18c-1.87,0-3.67-.22-5.42-.65-1.74-.44-3.24-1.04-4.5-1.81l3.48-6.87c.97,.68,1.97,1.14,3.02,1.38,1.05,.24,2.12,.36,3.22,.36,2.61,0,4.69-.79,6.24-2.37,1.55-1.58,2.32-3.88,2.32-6.92v-1.72c0-.6-.05-1.2-.15-1.81l2.37,1.98c-.58,1.19-1.34,2.19-2.27,3-.94,.81-2.03,1.42-3.29,1.84-1.26,.42-2.69,.63-4.3,.63-2.13,0-4.07-.44-5.83-1.33-1.76-.89-3.17-2.13-4.23-3.72-1.06-1.6-1.6-3.47-1.6-5.63,0-2.35,.6-4.39,1.79-6.12s2.79-3.06,4.79-4.01c2-.95,4.22-1.43,6.67-1.43Zm.63,6.82c-.9,0-1.69,.18-2.37,.53s-1.22,.85-1.62,1.47c-.4,.63-.6,1.39-.6,2.3,0,1.29,.43,2.32,1.28,3.09,.85,.77,1.97,1.16,3.36,1.16,.93,0,1.76-.18,2.47-.53,.71-.35,1.26-.85,1.64-1.5,.39-.64,.58-1.4,.58-2.27s-.19-1.57-.58-2.2c-.39-.63-.93-1.13-1.64-1.5-.71-.37-1.55-.56-2.51-.56Z"/>
        <path class="cls-3" d="M269.79,75.78l14.94-33.85h9.43l14.99,33.85h-9.96l-11.7-29.16h3.77l-11.7,29.16h-9.77Zm8.17-6.58l2.47-7.06h16.54l2.47,7.06h-21.47Z"/>
        <path class="cls-3" d="M311.42,75.78V39.9h9.19v14.07l-.48,8.66,.05,8.66v4.5h-8.75Zm16.49,.44c-2.35,0-4.31-.48-5.88-1.45-1.56-.97-2.73-2.45-3.51-4.45s-1.16-4.56-1.16-7.69,.41-5.59,1.23-7.59c.82-2,2.02-3.48,3.6-4.45,1.58-.97,3.48-1.45,5.71-1.45,2.39,0,4.55,.55,6.5,1.64,1.95,1.1,3.5,2.65,4.64,4.67s1.72,4.41,1.72,7.18-.57,5.21-1.72,7.23c-1.14,2.02-2.69,3.58-4.64,4.69-1.95,1.11-4.12,1.67-6.5,1.67Zm-1.93-7.3c1.03,0,1.96-.24,2.78-.73,.82-.48,1.48-1.2,1.98-2.15,.5-.95,.75-2.09,.75-3.41s-.25-2.44-.75-3.36c-.5-.92-1.16-1.62-1.98-2.1-.82-.48-1.75-.73-2.78-.73s-1.96,.24-2.78,.73c-.82,.48-1.48,1.18-1.98,2.1-.5,.92-.75,2.04-.75,3.36s.25,2.46,.75,3.41,1.16,1.67,1.98,2.15c.82,.48,1.75,.73,2.78,.73Z"/>
        <path class="cls-3" d="M345.03,75.78v-26.21h8.75v7.64l-1.31-2.18c.77-1.97,2.03-3.44,3.77-4.42,1.74-.98,3.85-1.47,6.33-1.47v8.27c-.42-.06-.78-.1-1.09-.12-.31-.02-.64-.02-.99-.02-1.87,0-3.38,.51-4.54,1.52-1.16,1.02-1.74,2.67-1.74,4.96v12.04h-9.19Z"/>
        <path class="cls-3" d="M370.94,46.67c-1.68,0-3.03-.47-4.06-1.4-1.03-.93-1.55-2.09-1.55-3.48s.51-2.55,1.55-3.48c1.03-.93,2.39-1.4,4.06-1.4s3.03,.44,4.06,1.33c1.03,.89,1.55,2.02,1.55,3.41s-.51,2.65-1.52,3.6c-1.01,.95-2.38,1.43-4.09,1.43Zm-4.59,29.11v-26.21h9.19v26.21h-9.19Z"/>
        <path class="cls-3" d="M381.48,75.78V39.9h9.19v35.88h-9.19Z"/>
        <path class="cls-3" d="M456.53,75.78v-30.42l4.11,3.96h-10.4v-7.4h15.86v33.85h-9.57Z"/>
        <path class="cls-3" d="M470.84,69.3v-6.24l15.18-21.13h9.91l-14.75,21.13-4.54-1.35h26.45v7.59h-32.25Zm17.89,6.48v-6.48l.29-7.59v-5.75h9.04v19.83h-9.33Z"/>
        <path class="cls-3" d="M519.97,76.46c-2.9,0-5.47-.69-7.71-2.08-2.24-1.39-4.01-3.38-5.29-6-1.29-2.61-1.93-5.79-1.93-9.53s.64-6.92,1.93-9.53c1.29-2.61,3.05-4.61,5.29-6,2.24-1.39,4.81-2.08,7.71-2.08s5.42,.69,7.66,2.08c2.24,1.39,4,3.38,5.29,6,1.29,2.61,1.93,5.79,1.93,9.53s-.64,6.91-1.93,9.53c-1.29,2.61-3.05,4.61-5.29,6-2.24,1.39-4.8,2.08-7.66,2.08Zm0-7.83c1.03,0,1.94-.32,2.73-.97,.79-.64,1.41-1.68,1.86-3.12,.45-1.43,.68-3.33,.68-5.68s-.23-4.29-.68-5.71c-.45-1.42-1.07-2.45-1.86-3.09-.79-.64-1.7-.97-2.73-.97s-1.94,.32-2.73,.97c-.79,.65-1.42,1.68-1.89,3.09-.47,1.42-.7,3.32-.7,5.71s.23,4.25,.7,5.68c.47,1.43,1.1,2.47,1.89,3.12,.79,.65,1.7,.97,2.73,.97Z"/>
        <path class="cls-3" d="M571.03,76.46c-2.71,0-5.21-.43-7.5-1.31-2.29-.87-4.28-2.1-5.97-3.7s-3.01-3.46-3.94-5.58c-.93-2.13-1.4-4.46-1.4-7.01s.47-4.88,1.4-7.01,2.25-3.99,3.94-5.58,3.68-2.83,5.97-3.7c2.29-.87,4.79-1.31,7.5-1.31s5.25,.44,7.52,1.31c2.27,.87,4.25,2.1,5.92,3.7,1.68,1.6,2.99,3.46,3.94,5.58,.95,2.13,1.43,4.46,1.43,7.01s-.48,4.89-1.43,7.04c-.95,2.14-2.27,4.01-3.94,5.58-1.68,1.58-3.65,2.8-5.92,3.67-2.27,.87-4.78,1.31-7.52,1.31Zm0-7.93c1.29,0,2.49-.23,3.6-.68s2.08-1.1,2.9-1.96c.82-.85,1.47-1.88,1.93-3.07,.47-1.19,.7-2.51,.7-3.96s-.23-2.81-.7-3.99c-.47-1.18-1.11-2.19-1.93-3.05-.82-.85-1.79-1.51-2.9-1.96-1.11-.45-2.31-.68-3.6-.68s-2.49,.23-3.6,.68c-1.11,.45-2.08,1.1-2.9,1.96-.82,.85-1.47,1.87-1.93,3.05-.47,1.18-.7,2.51-.7,3.99s.23,2.77,.7,3.96c.47,1.19,1.11,2.22,1.93,3.07,.82,.85,1.79,1.51,2.9,1.96s2.31,.68,3.6,.68Z"/>
        <path class="cls-3" d="M607.83,76.22c-2.9,0-5.49-.58-7.76-1.74s-4.05-2.76-5.34-4.81c-1.29-2.05-1.93-4.39-1.93-7.04s.64-4.98,1.93-7.01c1.29-2.03,3.07-3.62,5.34-4.76,2.27-1.14,4.86-1.72,7.76-1.72s5.53,.63,7.69,1.89c2.16,1.26,3.69,3.03,4.59,5.32l-7.11,3.63c-.61-1.23-1.37-2.12-2.27-2.68-.9-.56-1.89-.85-2.95-.85s-2.03,.24-2.9,.73c-.87,.48-1.56,1.18-2.06,2.1-.5,.92-.75,2.04-.75,3.36s.25,2.5,.75,3.43c.5,.94,1.18,1.64,2.06,2.13,.87,.48,1.84,.73,2.9,.73s2.05-.28,2.95-.85c.9-.56,1.66-1.46,2.27-2.68l7.11,3.63c-.9,2.29-2.43,4.06-4.59,5.32-2.16,1.26-4.72,1.89-7.69,1.89Z"/>
        <path class="cls-3" d="M621.27,57.41v-6.87h19v6.87h-19Zm14.46,18.81c-3.35,0-5.96-.83-7.83-2.49-1.87-1.66-2.8-4.17-2.8-7.52v-22.48h9.19v22.39c0,.94,.26,1.67,.77,2.2,.52,.53,1.18,.8,1.98,.8,1.1,0,2.03-.27,2.8-.82l2.27,6.43c-.77,.52-1.72,.89-2.85,1.14-1.13,.24-2.31,.36-3.53,.36Z"/>
        <path class="cls-3" d="M656.66,76.22c-2.13,0-4.04-.42-5.73-1.26s-3.01-2.15-3.96-3.94c-.95-1.79-1.43-4.05-1.43-6.79v-14.65h9.19v13.15c0,2.03,.38,3.48,1.14,4.35,.76,.87,1.83,1.31,3.22,1.31,.9,0,1.72-.21,2.47-.63,.74-.42,1.34-1.09,1.79-2.01,.45-.92,.68-2.1,.68-3.55v-12.62h9.19v26.21h-8.75v-7.4l1.69,2.08c-.9,1.93-2.21,3.38-3.92,4.33-1.71,.95-3.56,1.43-5.56,1.43Z"/>
        <path class="cls-3" d="M679.1,75.78V39.9h9.19v14.07l-.48,8.66,.05,8.66v4.5h-8.75Zm16.49,.44c-2.35,0-4.31-.48-5.88-1.45-1.56-.97-2.73-2.45-3.51-4.45s-1.16-4.56-1.16-7.69,.41-5.59,1.23-7.59c.82-2,2.02-3.48,3.6-4.45,1.58-.97,3.48-1.45,5.71-1.45,2.39,0,4.55,.55,6.5,1.64,1.95,1.1,3.5,2.65,4.64,4.67s1.72,4.41,1.72,7.18-.57,5.21-1.72,7.23c-1.14,2.02-2.69,3.58-4.64,4.69-1.95,1.11-4.12,1.67-6.5,1.67Zm-1.93-7.3c1.03,0,1.96-.24,2.78-.73,.82-.48,1.48-1.2,1.98-2.15,.5-.95,.75-2.09,.75-3.41s-.25-2.44-.75-3.36c-.5-.92-1.16-1.62-1.98-2.1-.82-.48-1.75-.73-2.78-.73s-1.96,.24-2.78,.73c-.82,.48-1.48,1.18-1.98,2.1-.5,.92-.75,2.04-.75,3.36s.25,2.46,.75,3.41,1.16,1.67,1.98,2.15c.82,.48,1.75,.73,2.78,.73Z"/>
        <path class="cls-3" d="M712.7,75.78v-26.21h8.75v7.64l-1.31-2.18c.77-1.97,2.03-3.44,3.77-4.42,1.74-.98,3.85-1.47,6.33-1.47v8.27c-.42-.06-.78-.1-1.09-.12-.31-.02-.64-.02-.99-.02-1.87,0-3.38,.51-4.54,1.52-1.16,1.02-1.74,2.67-1.74,4.96v12.04h-9.19Z"/>
        <path class="cls-3" d="M747.52,76.22c-3.09,0-5.79-.59-8.1-1.77-2.31-1.18-4.09-2.79-5.37-4.83-1.27-2.05-1.91-4.38-1.91-6.99s.62-4.94,1.86-6.99c1.24-2.05,2.96-3.64,5.15-4.79,2.19-1.14,4.66-1.72,7.4-1.72,2.58,0,4.93,.52,7.06,1.57,2.13,1.05,3.82,2.59,5.08,4.62,1.26,2.03,1.89,4.5,1.89,7.4,0,.32-.02,.69-.05,1.11s-.06,.81-.1,1.16h-20.74v-4.83h15.86l-3.48,1.35c.03-1.19-.19-2.22-.65-3.09-.47-.87-1.11-1.55-1.93-2.03-.82-.48-1.78-.72-2.88-.72s-2.05,.24-2.88,.72c-.82,.48-1.46,1.17-1.91,2.06-.45,.89-.68,1.93-.68,3.12v1.4c0,1.29,.27,2.4,.8,3.34,.53,.94,1.3,1.65,2.3,2.15,1,.5,2.19,.75,3.58,.75,1.29,0,2.39-.19,3.31-.56,.92-.37,1.83-.94,2.73-1.72l4.84,5.03c-1.26,1.39-2.8,2.44-4.64,3.17-1.84,.72-4.01,1.09-6.53,1.09Z"/>
      </g>
    </g>
  </g>
</svg>