<?xml version="1.0" encoding="UTF-8"?>
<svg id="Capa_2" data-name="Capa 2" xmlns="http://www.w3.org/2000/svg" xmlns:xlink="http://www.w3.org/1999/xlink" viewBox="0 0 299 110">
  <defs>
    <style>
      .cls-1 {
        fill: #fff;
        filter: url(#drop-shadow-1);
        stroke: #d60a19;
        stroke-miterlimit: 10;
        stroke-width: 4.61px;
      }

      .cls-2 {
        fill: #d60a19;
      }
    </style>
    <filter id="drop-shadow-1" filterUnits="userSpaceOnUse">
      <feOffset dx="6.59" dy="1.98"/>
      <feGaussianBlur result="blur" stdDeviation="3.95"/>
      <feFlood flood-color="#000" flood-opacity=".81"/>
      <feComposite in2="blur" operator="in"/>
      <feComposite in="SourceGraphic"/>
    </filter>
  </defs>
  <g id="Capa_1-2" data-name="Capa 1">
    <rect class="cls-1" x="8.31" y="13.16" width="269.55" height="80.4" rx="40.2" ry="40.2"/>
    <path class="cls-2" d="M36.12,44.09c-.69-1.79-1.37-3.23-1.82-4.75-2.64-9.04,2.92-15.05,9.81-14.66,3.49,.2,6.96,2.78,8.22,6.23,.18,.49,.34,.98,.68,1.94,.9-.96,1.47-1.73,2.19-2.31,2.16-1.74,4.16-3.86,6.61-5.01,4.12-1.94,8.58-.51,11.19,2.92,2.51,3.29,2.54,7.83,.08,11.51-.39,.58-.78,1.17-1.4,2.1,2.03,.44,3.77,.79,5.51,1.18,4.88,1.09,8.19,4.63,8.73,9.31,.46,4-1.82,7.91-6.19,9.63-2.02,.79-4.39,.68-6.75,1,.62,2.23,1.31,4.38,1.8,6.57,.99,4.45-1.41,9.39-5.36,11.26-3.77,1.78-9.1,.63-11.64-2.68-.98-1.28-1.61-2.82-2.62-4.64-.6,.86-1.04,1.57-1.56,2.23-2.83,3.58-6.19,6.06-11.09,5.84-7.69-.34-11.07-9.28-7.11-15.04,.49-.72,1.01-1.43,1.38-1.96-3.14-1.05-6.24-1.72-8.99-3.1-4.36-2.19-6.19-7.34-4.61-11.65,1.56-4.26,6-6.76,10.72-6.06,.6,.09,1.21,.07,2.23,.13Zm14.56,13.6c-3.59,4.08-7.98,5.39-12.51,6.7,2.51,3.95,6.1,4.7,9.94,4.01,4.95-.89,7.24-4.52,8.01-9.35,.33,.08,.66,.16,1,.24-.25,4.41-.5,8.81-.77,13.46,2.76,0,5.04-1.34,6.56-3.72,3.43-5.39,2.17-10.23-2.58-14.51,.31-.24,.63-.49,.94-.73,3.56,2.49,7.12,4.97,10.76,7.51,1.92-2.39,1.44-5.11,.13-7.73-2.79-5.58-7.56-6.65-13.9-5.08,3.12-2.97,6.03-4.62,9.48-5.37,.74-.16,1.39-.69,2.08-1.06-.45-.73-.74-1.64-1.36-2.15-4.93-3.99-12.54-1.93-15.01,4-.38,.91-.83,1.79-1.25,2.68-.33-.09-.67-.18-1-.28,.35-4.15,.69-8.31,1.05-12.62-3.3,.57-5.74,2.07-7.29,4.9-2.74,4.98-1.03,9.17,3.13,13.37-5.34-.74-8.01-4.54-11.67-6.83-1.61,4.28-.91,7.8,1.9,10.73,3.31,3.46,7.42,3.31,12.36,1.82Z"/>
    <g>
      <path class="cls-2" d="M99.26,54.64V28.58l4.26,4.05h-9.32v-7.51h15.02v29.53h-9.95Z"/>
      <path class="cls-2" d="M112.59,49.58v-6.33l12.53-18.14h10.21l-12.06,18.14-4.64-1.39h22.86v7.72h-28.89Zm15.31,5.06v-5.06l.29-7.72v-4.51h9.36v17.29h-9.66Z"/>
      <path class="cls-2" d="M156.25,55.32c-2.61,0-4.93-.6-6.94-1.81-2.01-1.21-3.58-2.97-4.72-5.27-1.14-2.31-1.71-5.09-1.71-8.35s.57-6.05,1.71-8.35c1.14-2.31,2.71-4.06,4.72-5.27,2.01-1.21,4.32-1.81,6.94-1.81s4.93,.6,6.94,1.81c2.01,1.21,3.59,2.97,4.72,5.27,1.14,2.31,1.71,5.09,1.71,8.35s-.57,6.05-1.71,8.35c-1.14,2.31-2.71,4.06-4.72,5.27-2.01,1.21-4.32,1.81-6.94,1.81Zm0-7.97c.65,0,1.22-.22,1.73-.67,.51-.45,.91-1.22,1.2-2.32s.44-2.59,.44-4.47-.15-3.41-.44-4.49c-.3-1.08-.7-1.85-1.2-2.3-.51-.45-1.08-.67-1.73-.67s-1.22,.23-1.73,.67c-.51,.45-.91,1.22-1.2,2.3-.3,1.08-.44,2.58-.44,4.49s.15,3.37,.44,4.47c.29,1.1,.7,1.87,1.2,2.32,.51,.45,1.08,.67,1.73,.67Z"/>
      <path class="cls-2" d="M92.5,79.03l12.68-19.38h2.74l4.9,19.38h-2.74l-4.32-17.88h1.11l-11.38,17.88h-2.99Zm4.71-4.84l1.22-2.21h10.88l.39,2.21h-12.48Z"/>
      <path class="cls-2" d="M125.74,64.22c1.29,0,2.37,.26,3.24,.77s1.47,1.27,1.81,2.26c.34,.99,.37,2.17,.1,3.56l-1.63,8.22h-2.66l1.63-8.22c.28-1.33,.15-2.36-.39-3.1-.54-.74-1.49-1.11-2.88-1.11s-2.6,.38-3.54,1.15c-.94,.77-1.57,1.94-1.88,3.53l-1.55,7.75h-2.66l2.91-14.67h2.55l-.83,4.21-.5-1.14c.7-1.11,1.59-1.92,2.67-2.44s2.28-.77,3.61-.77Z"/>
      <path class="cls-2" d="M134.18,79.03l2.91-14.67h2.66l-2.91,14.67h-2.66Zm5.01-17.49c-.5,0-.9-.16-1.2-.47-.3-.31-.46-.69-.46-1.13,0-.52,.18-.96,.53-1.31s.81-.54,1.38-.54c.48,0,.88,.15,1.2,.46,.32,.3,.48,.67,.48,1.09,0,.57-.18,1.03-.53,1.38-.35,.35-.82,.53-1.41,.53Z"/>
      <path class="cls-2" d="M145.75,79.03l-3.52-14.67h2.66l3.1,13.29h-1.33l8.44-13.29h2.69l-9.33,14.67h-2.71Z"/>
      <path class="cls-2" d="M163.96,79.19c-1.44,0-2.69-.26-3.74-.79-1.05-.53-1.86-1.26-2.44-2.21-.57-.95-.86-2.07-.86-3.36,0-1.66,.36-3.14,1.08-4.43s1.7-2.31,2.95-3.06c1.25-.75,2.66-1.12,4.25-1.12,1.33,0,2.48,.25,3.46,.76s1.74,1.23,2.28,2.17c.54,.94,.82,2.08,.82,3.4,0,.33-.02,.67-.06,1.01-.04,.34-.08,.66-.14,.96h-12.71l.33-1.94h11.1l-1.08,.66c.17-1.03,.09-1.91-.22-2.62-.31-.71-.81-1.25-1.48-1.63-.67-.38-1.48-.57-2.42-.57-1.11,0-2.08,.26-2.92,.79-.84,.53-1.49,1.26-1.95,2.19-.46,.93-.69,2.03-.69,3.28,0,1.33,.38,2.36,1.15,3.09,.77,.73,1.93,1.09,3.5,1.09,.92,0,1.78-.15,2.57-.46,.79-.3,1.45-.71,1.97-1.23l1.13,1.91c-.7,.68-1.58,1.2-2.63,1.56s-2.14,.54-3.27,.54Z"/>
      <path class="cls-2" d="M173.87,79.03l2.91-14.67h2.55l-.83,4.26-.28-1.05c.68-1.24,1.55-2.1,2.6-2.6,1.05-.5,2.35-.75,3.9-.75l-.5,2.57c-.11-.02-.22-.03-.33-.03h-.36c-1.46,0-2.66,.4-3.61,1.19-.95,.79-1.59,2.04-1.92,3.74l-1.47,7.33h-2.66Z"/>
      <path class="cls-2" d="M189.82,79.19c-1.24,0-2.4-.16-3.5-.48-1.1-.32-1.94-.72-2.53-1.2l1.19-2.1c.57,.44,1.31,.8,2.23,1.08s1.87,.42,2.86,.42c1.27,0,2.23-.19,2.88-.58,.65-.39,.97-.91,.97-1.58,0-.48-.19-.84-.58-1.09-.39-.25-.89-.44-1.51-.58-.62-.14-1.28-.28-1.98-.42-.7-.14-1.36-.34-1.97-.6-.61-.26-1.11-.63-1.51-1.12-.4-.49-.6-1.14-.6-1.95,0-.98,.28-1.82,.83-2.53,.55-.71,1.33-1.26,2.33-1.65s2.16-.58,3.49-.58c.96,0,1.9,.12,2.84,.35,.93,.23,1.69,.56,2.28,.98l-1.05,2.1c-.61-.42-1.29-.72-2.05-.9-.76-.18-1.51-.26-2.27-.26-1.24,0-2.17,.21-2.8,.62-.63,.42-.94,.94-.94,1.56,0,.48,.19,.85,.58,1.12,.39,.27,.89,.48,1.51,.62,.62,.15,1.27,.29,1.97,.43,.69,.14,1.35,.33,1.97,.58s1.12,.61,1.51,1.08c.39,.47,.58,1.11,.58,1.92,0,1.02-.28,1.88-.84,2.59-.56,.71-1.35,1.25-2.37,1.62-1.02,.37-2.19,.55-3.52,.55Z"/>
      <path class="cls-2" d="M205.51,79.19c-1.24,0-2.34-.25-3.32-.76-.98-.51-1.75-1.23-2.31-2.17-.56-.94-.84-2.08-.84-3.4,0-1.25,.21-2.41,.62-3.46,.42-1.05,1-1.97,1.74-2.74s1.63-1.37,2.64-1.8c1.01-.42,2.11-.64,3.29-.64,1.27,0,2.35,.22,3.24,.66s1.57,1.09,2.05,1.95c.48,.86,.72,1.91,.72,3.14,0,1.81-.31,3.41-.94,4.8-.63,1.39-1.53,2.48-2.7,3.25-1.17,.77-2.57,1.16-4.19,1.16Zm.58-2.33c1.11,0,2.09-.27,2.96-.8,.87-.53,1.55-1.27,2.03-2.2,.49-.93,.73-2,.73-3.2,0-1.29-.38-2.3-1.13-3.03-.76-.73-1.84-1.09-3.24-1.09-1.09,0-2.07,.26-2.93,.79-.87,.53-1.55,1.26-2.05,2.19-.5,.93-.75,2.01-.75,3.23s.38,2.28,1.13,3.02c.76,.74,1.84,1.11,3.24,1.11Zm4.23,2.16l.77-3.79,.89-3.4,.36-3.49,.78-3.99h2.66l-2.91,14.67h-2.55Z"/>
      <path class="cls-2" d="M217.94,79.03l2.91-14.67h2.55l-.83,4.26-.28-1.05c.68-1.24,1.55-2.1,2.6-2.6,1.05-.5,2.35-.75,3.9-.75l-.5,2.57c-.11-.02-.22-.03-.33-.03h-.36c-1.46,0-2.66,.4-3.61,1.19-.95,.79-1.59,2.04-1.92,3.74l-1.47,7.33h-2.66Z"/>
      <path class="cls-2" d="M229.09,79.03l2.91-14.67h2.66l-2.91,14.67h-2.66Zm5.01-17.49c-.5,0-.9-.16-1.2-.47-.3-.31-.46-.69-.46-1.13,0-.52,.18-.96,.53-1.31s.81-.54,1.38-.54c.48,0,.88,.15,1.2,.46,.32,.3,.48,.67,.48,1.09,0,.57-.18,1.03-.53,1.38-.35,.35-.82,.53-1.41,.53Z"/>
      <path class="cls-2" d="M243.68,79.19c-1.4,0-2.62-.26-3.64-.79-1.02-.53-1.82-1.26-2.39-2.21-.57-.95-.86-2.06-.86-3.34,0-1.66,.37-3.14,1.11-4.44,.74-1.3,1.76-2.33,3.06-3.07,1.3-.75,2.78-1.12,4.44-1.12,1.38,0,2.59,.26,3.63,.77,1.03,.52,1.83,1.25,2.39,2.19,.56,.94,.84,2.06,.84,3.35,0,1.66-.37,3.14-1.11,4.44-.74,1.3-1.75,2.33-3.03,3.09-1.28,.76-2.76,1.13-4.44,1.13Zm.17-2.33c1.11,0,2.09-.27,2.96-.8,.87-.53,1.55-1.27,2.03-2.2,.49-.93,.73-2,.73-3.2,0-1.29-.38-2.3-1.13-3.03-.76-.73-1.84-1.09-3.24-1.09-1.09,0-2.07,.26-2.93,.79-.87,.53-1.55,1.26-2.05,2.19-.5,.93-.75,2.01-.75,3.23s.38,2.28,1.13,3.02c.76,.74,1.84,1.11,3.24,1.11Z"/>
    </g>
  </g>
</svg>