<?xml version="1.0" encoding="UTF-8"?>
<svg id="Capa_2" data-name="Capa 2" xmlns="http://www.w3.org/2000/svg" xmlns:xlink="http://www.w3.org/1999/xlink" viewBox="0 0 299 110">
  <defs>
    <style>
      .cls-1 {
        letter-spacing: -.01em;
      }

      .cls-2 {
        fill: #fff;
        filter: url(#drop-shadow-1);
        stroke: #d60a19;
        stroke-miterlimit: 10;
        stroke-width: 4.61px;
      }

      .cls-3 {
        font-family: Montserrat-Black, Montserrat;
        font-size: 42.18px;
      }

      .cls-4 {
        letter-spacing: 0em;
      }

      .cls-5 {
        letter-spacing: 0em;
      }

      .cls-6 {
        font-family: MontserratItalic-MediumItalic, Montserrat;
        font-size: 27.68px;
        font-variation-settings: 'wght' 500;
      }

      .cls-7 {
        fill: #d60a19;
      }

      .cls-8 {
        letter-spacing: 0em;
      }
    </style>
    <filter id="drop-shadow-1" filterUnits="userSpaceOnUse">
      <feOffset dx="6.59" dy="1.98"/>
      <feGaussianBlur result="blur" stdDeviation="3.95"/>
      <feFlood flood-color="#000" flood-opacity=".81"/>
      <feComposite in2="blur" operator="in"/>
      <feComposite in="SourceGraphic"/>
    </filter>
  </defs>
  <g id="Capa_1-2" data-name="Capa 1">
    <rect class="cls-2" x="8.31" y="13.16" width="269.55" height="80.4" rx="40.2" ry="40.2"/>
    <path class="cls-7" d="M38.12,44.09c-.69-1.79-1.37-3.23-1.82-4.75-2.64-9.04,2.92-15.05,9.81-14.66,3.49,.2,6.96,2.78,8.22,6.23,.18,.49,.34,.98,.68,1.94,.9-.96,1.47-1.73,2.19-2.31,2.16-1.74,4.16-3.86,6.61-5.01,4.12-1.94,8.58-.51,11.19,2.92,2.51,3.29,2.54,7.83,.08,11.51-.39,.58-.78,1.17-1.4,2.1,2.03,.44,3.77,.79,5.51,1.18,4.88,1.09,8.19,4.63,8.73,9.31,.46,4-1.82,7.91-6.19,9.63-2.02,.79-4.39,.68-6.75,1,.62,2.23,1.31,4.38,1.8,6.57,.99,4.45-1.41,9.39-5.36,11.26-3.77,1.78-9.1,.63-11.64-2.68-.98-1.28-1.61-2.82-2.62-4.64-.6,.86-1.04,1.57-1.56,2.23-2.83,3.58-6.19,6.06-11.09,5.84-7.69-.34-11.07-9.28-7.11-15.04,.49-.72,1.01-1.43,1.38-1.96-3.14-1.05-6.24-1.72-8.99-3.1-4.36-2.19-6.19-7.34-4.61-11.65,1.56-4.26,6-6.76,10.72-6.06,.6,.09,1.21,.07,2.23,.13Zm14.56,13.6c-3.59,4.08-7.98,5.39-12.51,6.7,2.51,3.95,6.1,4.7,9.94,4.01,4.95-.89,7.24-4.52,8.01-9.35,.33,.08,.66,.16,1,.24-.25,4.41-.5,8.81-.77,13.46,2.76,0,5.04-1.34,6.56-3.72,3.43-5.39,2.17-10.23-2.58-14.51,.31-.24,.63-.49,.94-.73,3.56,2.49,7.12,4.97,10.76,7.51,1.92-2.39,1.44-5.11,.13-7.73-2.79-5.58-7.56-6.65-13.9-5.08,3.12-2.97,6.03-4.62,9.48-5.37,.74-.16,1.39-.69,2.08-1.06-.45-.73-.74-1.64-1.36-2.15-4.93-3.99-12.54-1.93-15.01,4-.38,.91-.83,1.79-1.25,2.68-.33-.09-.67-.18-1-.28,.35-4.15,.69-8.31,1.05-12.62-3.3,.57-5.74,2.07-7.29,4.9-2.74,4.98-1.03,9.17,3.13,13.37-5.34-.74-8.01-4.54-11.67-6.83-1.61,4.28-.91,7.8,1.9,10.73,3.31,3.46,7.42,3.31,12.36,1.82Z"/>
    <text class="cls-7" transform="translate(95.99 54.64)"><tspan class="cls-3"><tspan x="0" y="0">140 </tspan></tspan><tspan class="cls-6"><tspan x="0" y="24.38">Ani</tspan><tspan class="cls-1" x="46.83" y="24.38">v</tspan><tspan x="61.89" y="24.38">e</tspan><tspan class="cls-4" x="78.8" y="24.38">r</tspan><tspan class="cls-8" x="90.12" y="24.38">sa</tspan><tspan class="cls-5" x="122.87" y="24.38">r</tspan><tspan x="134.03" y="24.38">io</tspan></tspan></text>
  </g>
</svg>