<?xml version="1.0" encoding="UTF-8"?>
<svg xmlns="http://www.w3.org/2000/svg" viewBox="0 0 573.62 727">
  <defs>
    <style>
      .cls-1 {
        opacity: .7;
      }

      .cls-2 {
        fill: #fff;
      }

      .cls-3 {
        isolation: isolate;
      }

      .cls-4, .cls-5 {
        mix-blend-mode: soft-light;
      }

      .cls-5 {
        opacity: .55;
      }
    </style>
  </defs>
  <g class="cls-3">
    <g id="Capa_2" data-name="Capa 2">
      <g id="Capa_1-2" data-name="Capa 1">
        <g class="cls-1">
          <g class="cls-4">
            <g>
              <g>
                <polygon class="cls-2" points="570.71 362.5 352.17 362.5 2.51 1.91 221.05 1.91 570.71 362.5"/>
                <path class="cls-2" d="M1.83,2.57L.28,.96H221.45s349.94,360.88,349.94,360.88l1.55,1.6h-221.17S1.83,2.57,1.83,2.57Zm218.82,.29H4.74S352.57,361.55,352.57,361.55h215.91S220.65,2.85,220.65,2.85Z"/>
              </g>
              <g>
                <polygon class="cls-2" points="571.39 365.46 352.85 365.46 3.19 726.05 221.73 726.05 571.39 365.46"/>
                <path class="cls-2" d="M352.17,364.81l.28-.29h221.17S222.41,726.71,222.41,726.71l-.28,.29H.95S352.17,364.81,352.17,364.81Zm216.99,1.6h-215.91S5.42,725.11,5.42,725.11H221.33s347.83-358.7,347.83-358.7Z"/>
              </g>
            </g>
          </g>
          <g class="cls-5">
            <g>
              <g>
                <polygon class="cls-2" points="570.43 361.54 351.89 361.54 2.23 .95 220.77 .95 570.43 361.54"/>
                <path class="cls-2" d="M1.55,1.6L0,0H221.17s349.94,360.88,349.94,360.88l1.55,1.6h-221.17S1.55,1.6,1.55,1.6Zm218.82,.29H4.46S352.29,360.59,352.29,360.59h215.91S220.37,1.89,220.37,1.89Z"/>
              </g>
              <g>
                <polygon class="cls-2" points="571.11 364.5 352.57 364.5 2.91 725.09 221.45 725.09 571.11 364.5"/>
                <path class="cls-2" d="M351.89,363.84l.28-.29h221.17S222.13,725.75,222.13,725.75l-.28,.29H.68S351.89,363.84,351.89,363.84Zm216.99,1.6h-215.91S5.14,724.15,5.14,724.15H221.05s347.83-358.7,347.83-358.7Z"/>
              </g>
            </g>
          </g>
        </g>
      </g>
    </g>
  </g>
</svg>