<?xml version="1.0" encoding="UTF-8"?>
<svg xmlns="http://www.w3.org/2000/svg" viewBox="0 0 1126.43 1178.66">
  <defs>
    <style>
      .cls-1 {
        mix-blend-mode: soft-light;
        opacity: .46;
      }

      .cls-2 {
        fill: #fff;
      }

      .cls-3 {
        isolation: isolate;
      }
    </style>
  </defs>
  <g class="cls-3">
    <g id="Capa_2" data-name="Capa 2">
      <g id="Capa_1-2" data-name="Capa 1">
        <g class="cls-1">
          <g>
            <g>
              <polygon class="cls-2" points="1121.53 710.81 691.86 710.81 4.39 1.86 434.06 1.86 1121.53 710.81"/>
              <path class="cls-2" d="M3.05,3.15L0,0H434.85s688.02,709.52,688.02,709.52l3.05,3.15h-434.85S3.05,3.15,3.05,3.15Zm430.22,.57H8.77S692.64,708.96,692.64,708.96h424.5S433.27,3.72,433.27,3.72Z"/>
            </g>
            <g>
              <path class="cls-2" d="M692.38,714.2l-434.45,439.17c5.12-2.6,10.47-4.93,16.08-6.9,11.36-4,23.06,4.56,26.45,15.02,.4,1.25,.66,2.49,.8,3.71l318.41,13.45c18.56-11.14,38.28-20.4,58.67-27.67,7.32-2.61,14.82-.06,20.12,4.94l423.6-441.73h-429.67Z"/>
              <path class="cls-2" d="M691.59,712.34l-.55,.57-422.39,435.59c1.76-.71,3.54-1.39,5.35-2.03,.81-.28,1.62-.5,2.43-.66l416.74-429.75h424.49l-423.46,436.69c1.08,.63,2.11,1.35,3.08,2.16l429.14-442.56h-434.84Z"/>
            </g>
          </g>
        </g>
      </g>
    </g>
  </g>
</svg>