<?xml version="1.0" encoding="UTF-8"?>
<svg id="Capa_2" data-name="Capa 2" xmlns="http://www.w3.org/2000/svg" viewBox="0 0 31.53 31.7">
  <defs>
    <style>
      .cls-1 {
        fill: #fff;
      }

      .cls-2 {
        fill: #eeefef;
      }
    </style>
  </defs>
  <g id="Capa_1-2" data-name="Capa 1">
    <g>
      <g>
        <path class="cls-2" d="M24.72,31.56c-5.95,0-12.12-2.75-16.92-7.55C2.75,18.96,0,12.63,.15,6.53v-.23s.14-.18,.14-.18c.4-.52,.83-1.01,1.28-1.46,1.61-1.6,3.49-2.83,5.61-3.65,.19-.07,.41-.11,.65-.11,.74,0,1.94,.4,2.19,1.1,.75,2.07,1.69,4.78,2.37,7.37,.15,.55-.05,1.97-.72,2.38l-2.43,1.55c-.16,.1-.23,.28-.26,.42-.08,.42,.07,.95,.4,1.4,.95,1.31,2.08,2.62,3.32,3.89,1.26,1.23,2.56,2.35,3.87,3.29,.67,.49,1.59,.54,1.83,.15l1.55-2.45c.48-.75,1.96-.76,1.97-.76,.15,0,.27,.01,.39,.04,3.16,.7,5.03,1.31,7.44,2.4,.75,.33,1.28,1.95,.93,2.82-.81,2.11-2.04,4-3.64,5.6-.45,.45-.94,.88-1.46,1.29l-.18,.14h-.68ZM1.52,6.79c-.06,5.65,2.53,11.52,7.15,16.14l.1,.1c4.54,4.54,10.35,7.14,15.95,7.14h.19c.41-.33,.8-.68,1.15-1.03,1.46-1.47,2.58-3.2,3.33-5.12,.09-.23-.12-.95-.3-1.12-2.22-.99-4.03-1.58-7.09-2.26-.44,0-.85,.11-.95,.19l-1.48,2.37c-.67,1.07-2.48,1.2-3.81,.23-1.36-.99-2.72-2.15-4.03-3.44-1.3-1.32-2.46-2.68-3.46-4.04-.55-.77-.79-1.69-.64-2.48,.11-.57,.42-1.05,.88-1.33l2.43-1.55c.04-.1,.16-.69,.12-.87-.67-2.53-1.6-5.2-2.34-7.24-.05,0-.52-.19-.89-.19-.1,0-.15,.02-.15,.02-1.94,.75-3.67,1.87-5.13,3.34-.35,.35-.7,.74-1.03,1.15"/>
        <path class="cls-1" d="M24.72,31.7h0c-6,0-12.2-2.77-17.03-7.59C2.66,19.07-.14,12.66,0,6.53v-.28s.17-.22,.17-.22c.41-.53,.85-1.02,1.29-1.47C3.09,2.95,5,1.71,7.13,.89c.21-.08,.44-.12,.7-.12,.77,0,2.05,.42,2.33,1.19,.81,2.24,1.72,4.87,2.37,7.38,.17,.6-.04,2.08-.78,2.54l-2.43,1.55c-.13,.08-.18,.24-.19,.33-.08,.38,.07,.87,.37,1.29,.92,1.27,2.04,2.57,3.31,3.87,1.25,1.23,2.55,2.33,3.85,3.28,.46,.34,.99,.43,1.32,.36,.1-.02,.24-.07,.31-.17l1.55-2.45c.53-.81,2.08-.82,2.09-.82,.15,0,.28,.01,.42,.04,3.17,.7,5.05,1.31,7.47,2.41,.82,.37,1.39,2.05,1.01,3.01-.82,2.12-2.06,4.03-3.67,5.65-.45,.45-.95,.88-1.47,1.3l-.22,.17h-.72ZM.3,6.35v.18c-.15,6.06,2.62,12.39,7.6,17.37,4.77,4.77,10.9,7.51,16.82,7.51h.63s.14-.12,.14-.12c.52-.41,1-.84,1.45-1.28,1.59-1.59,2.8-3.46,3.61-5.55,.32-.81-.18-2.34-.86-2.64-2.4-1.09-4.27-1.69-7.41-2.39-.11-.02-.23-.04-.36-.04-.01,0-1.42,.01-1.85,.69l-1.54,2.45c-.09,.15-.26,.26-.49,.3-.46,.09-1.08-.08-1.54-.41-1.31-.96-2.62-2.07-3.88-3.31-1.28-1.31-2.4-2.63-3.33-3.91-.35-.49-.51-1.07-.42-1.51,.02-.13,.1-.38,.32-.52l2.43-1.55c.59-.37,.8-1.71,.65-2.22-.65-2.5-1.56-5.12-2.37-7.36-.22-.62-1.35-1-2.06-1-.22,0-.42,.04-.6,.1-2.09,.81-3.96,2.03-5.56,3.62-.44,.44-.87,.92-1.27,1.44l-.11,.14ZM24.72,30.32c-5.64,0-11.49-2.62-16.05-7.18l-.1-.1C3.93,18.4,1.31,12.48,1.38,6.79v-.05s.03-.04,.03-.04c.33-.41,.68-.8,1.04-1.16,1.48-1.48,3.22-2.61,5.18-3.37,.01,0,.08-.03,.2-.03,.28,0,.59,.1,.78,.15,.06,.02,.1,.03,.12,.04l.12-.02v.12c.68,1.86,1.66,4.64,2.35,7.25,.05,.24-.08,.86-.13,.97l-.02,.04-2.47,1.57c-.42,.25-.71,.69-.82,1.23-.15,.75,.08,1.63,.61,2.37,1.04,1.41,2.2,2.76,3.45,4.03,1.3,1.28,2.65,2.43,4.01,3.43,.71,.52,1.6,.73,2.39,.58,.54-.11,.97-.38,1.21-.77l1.52-2.41c.13-.09,.56-.23,1.04-.22,3.1,.69,4.89,1.26,7.15,2.27l.04,.03c.21,.21,.44,.99,.33,1.28-.75,1.95-1.89,3.69-3.36,5.17-.37,.37-.76,.72-1.16,1.04l-.04,.03h-.24ZM1.66,6.85c-.05,5.59,2.54,11.42,7.1,15.99l.1,.1c4.51,4.51,10.29,7.1,15.84,7.1h.14c.38-.31,.75-.64,1.1-.99,1.45-1.45,2.56-3.16,3.3-5.07,.06-.15-.11-.78-.25-.95-2.22-.99-4-1.56-7.04-2.24h0c-.37,0-.71,.1-.81,.15l-1.46,2.34c-.29,.46-.78,.78-1.4,.9-.86,.17-1.84-.07-2.61-.63-1.37-1-2.74-2.17-4.05-3.46-1.26-1.28-2.43-2.64-3.48-4.06-.58-.8-.82-1.77-.66-2.59,.12-.62,.46-1.13,.95-1.42l2.39-1.52c.04-.15,.13-.62,.1-.75-.67-2.56-1.63-5.29-2.3-7.15-.03,0-.06-.02-.09-.03-.17-.05-.46-.14-.69-.14-.07,0-.1,.01-.1,.01-1.92,.75-3.63,1.86-5.08,3.31-.34,.34-.67,.71-.99,1.1Z"/>
      </g>
      <g>
        <path class="cls-2" d="M30.69,16.22c-.38,0-.69-.31-.69-.69,0-7.72-6.29-14.01-14.02-14.01-.38,0-.69-.31-.69-.69s.31-.69,.69-.69c8.49,0,15.4,6.9,15.4,15.39,0,.38-.31,.69-.69,.69"/>
        <path class="cls-1" d="M30.69,16.37c-.46,0-.83-.37-.83-.83,0-7.65-6.22-13.87-13.87-13.87-.46,0-.83-.37-.83-.83s.37-.83,.83-.83c8.57,0,15.54,6.97,15.54,15.53,0,.46-.37,.83-.83,.83ZM15.99,.29c-.3,0-.55,.24-.55,.54s.25,.55,.55,.55c7.81,0,14.16,6.35,14.16,14.16,0,.3,.25,.55,.55,.55s.55-.25,.55-.55C31.24,7.13,24.4,.29,15.99,.29Z"/>
      </g>
      <g>
        <path class="cls-2" d="M26.38,16.22c-.38,0-.69-.31-.69-.69,0-5.35-4.35-9.69-9.7-9.69-.38,0-.69-.31-.69-.69s.3-.69,.69-.69c6.11,0,11.08,4.97,11.08,11.07,0,.38-.31,.69-.69,.69"/>
        <path class="cls-1" d="M26.38,16.37c-.46,0-.83-.37-.83-.83,0-5.27-4.29-9.55-9.56-9.55-.46,0-.83-.37-.83-.83s.36-.83,.83-.83c6.19,0,11.22,5.03,11.22,11.21,0,.46-.37,.83-.83,.83ZM15.98,4.6c-.3,0-.54,.24-.54,.54s.24,.55,.54,.55c5.43,0,9.84,4.41,9.84,9.84,0,.3,.25,.55,.55,.55s.55-.25,.55-.55c0-6.03-4.91-10.93-10.94-10.93Z"/>
      </g>
      <g>
        <path class="cls-2" d="M21.82,16.22c-.38,0-.69-.31-.69-.69,0-2.84-2.31-5.14-5.15-5.14-.38,0-.69-.31-.69-.69s.3-.69,.69-.69c3.6,0,6.53,2.93,6.53,6.52,0,.38-.31,.69-.69,.69"/>
        <path class="cls-1" d="M21.82,16.37c-.46,0-.83-.37-.83-.83,0-2.76-2.24-5-5-5-.46,0-.83-.37-.83-.83s.36-.83,.83-.83c3.68,0,6.67,2.99,6.67,6.66,0,.46-.37,.83-.83,.83Zm-5.84-7.21c-.3,0-.54,.24-.54,.55s.24,.54,.54,.54c2.92,0,5.29,2.37,5.29,5.29,0,.3,.25,.55,.55,.55s.55-.25,.55-.55c0-3.52-2.86-6.38-6.39-6.38Z"/>
      </g>
    </g>
  </g>
</svg>