<?xml version="1.0" encoding="UTF-8"?>
<svg id="Capa_2" data-name="Capa 2" xmlns="http://www.w3.org/2000/svg" viewBox="0 0 28.46 35.1">
  <defs>
    <style>
      .cls-1 {
        fill: #fff;
      }
    </style>
  </defs>
  <g id="Capa_1-2" data-name="Capa 1">
    <g>
      <path class="cls-1" d="M14.22,35.1c-1.2-1.14-2.37-2.22-3.52-3.34-2.24-2.19-4.36-4.51-6.22-7.03-1.41-1.91-2.67-3.92-3.54-6.14C.29,16.94-.09,15.24,.02,13.46c.17-2.92,1.11-5.56,2.9-7.88C4.81,3.14,7.23,1.43,10.2,.61c4.8-1.34,9.21-.46,13.1,2.66,2.74,2.2,4.37,5.11,4.98,8.58,.48,2.74,.01,5.32-1.15,7.81-.94,2.01-2.16,3.84-3.53,5.57-2.37,3.01-5.07,5.72-7.81,8.39-.5,.48-1.01,.95-1.57,1.47Zm.04-32.91c-1.03,.02-2.03,.13-3.01,.39-3.29,.88-5.85,2.76-7.51,5.74-1.72,3.09-2.09,6.31-.68,9.65,.79,1.86,1.83,3.56,3.02,5.19,2.35,3.22,5.11,6.07,8,8.8,.14,.13,.21,.09,.32-.02,2.36-2.25,4.67-4.55,6.75-7.06,1.45-1.75,2.77-3.58,3.78-5.62,.72-1.46,1.24-2.99,1.33-4.63,.1-1.8-.2-3.55-.96-5.18-2.18-4.68-5.95-7-11.04-7.26Z"/>
      <path class="cls-1" d="M14.22,19.43c-2.46-.05-4.64-1.67-5.25-3.93-.76-2.84,.73-5.62,3.52-6.55,2.83-.95,5.91,.53,6.91,3.3,1.08,2.99-.75,6.31-3.86,6.99-.43,.1-.88,.13-1.32,.19Zm.04-8.68c-1.86-.01-3.29,1.4-3.31,3.25-.01,1.87,1.41,3.31,3.27,3.32,1.85,0,3.29-1.42,3.29-3.27,0-1.86-1.4-3.28-3.26-3.29Z"/>
    </g>
  </g>
</svg>