<?xml version="1.0" encoding="UTF-8"?>
<svg id="Capa_2" data-name="Capa 2" xmlns="http://www.w3.org/2000/svg" viewBox="0 0 30.86 25.07">
  <defs>
    <style>
      .cls-1 {
        fill: #fff;
      }
    </style>
  </defs>
  <g id="Capa_1-2" data-name="Capa 1">
    <path class="cls-1" d="M28.93,3.85c.64,.04,1.15,.28,1.52,.77,.23,.3,.36,.63,.39,1,0,.09,0,.19,0,.28,0,5.7,0,11.41,0,17.11,0,.82-.33,1.47-1.08,1.83-.3,.14-.66,.21-.99,.21-2.78,.02-5.57,0-8.35,0-6.11,0-12.23,0-18.34,0-.68,0-1.26-.21-1.69-.76-.23-.3-.36-.63-.4-1,0-.09,0-.19,0-.28C0,17.32,0,11.61,0,5.91c0-.83,.34-1.47,1.1-1.85,.24-.12,.52-.16,.83-.26,0-.04,0-.11,0-.19,0-.85,0-1.69,0-2.54C1.93,.39,2.32,0,3,0c8.28,0,16.57,0,24.85,0,.68,0,1.07,.39,1.07,1.07,0,.84,0,1.68,0,2.52,0,.08,0,.16,0,.26ZM1.95,10.11v13.01H28.92V10.12c-.09,.03-.16,.06-.24,.09-4.25,1.7-8.49,3.4-12.74,5.1-.36,.14-.68,.14-1.04,0-3.73-1.5-7.46-2.99-11.19-4.48-.58-.23-1.16-.46-1.76-.7ZM28.93,5.8H1.93c0,.66,.01,1.3,0,1.94,0,.22,.08,.31,.27,.39,4.35,1.73,8.7,3.47,13.05,5.21,.11,.04,.28,.04,.39,0,2.77-1.1,5.53-2.2,8.29-3.31,1.6-.64,3.21-1.28,4.81-1.93,.08-.03,.18-.13,.18-.19,.01-.69,0-1.39,0-2.1ZM3.87,3.84H26.98V1.95H3.87v1.89Z"/>
  </g>
</svg>