<?xml version="1.0" encoding="UTF-8"?>
<svg id="Capa_2" data-name="Capa 2" xmlns="http://www.w3.org/2000/svg" viewBox="0 0 30.95 30.96">
  <defs>
    <style>
      .cls-1 {
        fill: #fff;
      }
    </style>
  </defs>
  <g id="Capa_1-2" data-name="Capa 1">
    <path class="cls-1" d="M23.87,30.96c-.87-.05-1.78-.23-2.69-.46-3.31-.84-6.29-2.37-9.04-4.38-3.76-2.75-6.84-6.12-9.16-10.16C1.66,13.67,.69,11.24,.19,8.63,.1,8.11,.01,7.57,0,7.04c-.03-1.24,.44-2.29,1.33-3.14C2.68,2.61,4.15,1.47,5.7,.44c1.38-.91,3.15-.35,3.77,1.19,.71,1.78,1.41,3.57,2.1,5.36,.36,.94,.2,1.82-.45,2.59-.45,.53-.91,1.05-1.37,1.57-.11,.12-.12,.22-.04,.37,1.42,2.74,3.34,5.09,5.71,7.06,1.22,1.02,2.54,1.89,3.94,2.63,.21,.11,.34,.09,.51-.07,.49-.44,.99-.87,1.49-1.3,.78-.67,1.66-.83,2.62-.46,1.77,.69,3.54,1.39,5.31,2.08,1.07,.42,1.7,1.4,1.64,2.53-.02,.46-.18,.87-.43,1.25-1.03,1.54-2.16,3-3.43,4.34-.85,.9-1.91,1.36-3.21,1.38ZM4.76,3.53s-.08,.04-.1,.05c-.68,.59-1.38,1.16-2.04,1.77-.48,.44-.72,1.02-.69,1.68,.02,.48,.1,.96,.2,1.43,.41,2.08,1.16,4.04,2.16,5.89,2.42,4.47,5.79,8.08,9.99,10.91,2.7,1.81,5.61,3.11,8.84,3.67,1,.17,1.88,.05,2.59-.74,.46-.51,.91-1.04,1.36-1.56,.12-.14,.23-.28,.35-.44-.07-.03-.12-.06-.17-.08-.26-.08-.52-.15-.78-.23-2.11-.66-4.13-1.53-6.06-2.61-.09-.05-.23-.08-.33-.06-.5,.11-.97,.02-1.42-.21-2.09-1.07-3.99-2.4-5.69-4.01-2.06-1.95-3.75-4.19-5.04-6.72-.23-.45-.32-.92-.21-1.42,.02-.11-.02-.26-.08-.37-1.17-2.1-2.09-4.3-2.76-6.61-.03-.12-.08-.23-.12-.36Zm4.25,5.52c.24-.27,.42-.49,.61-.69,.21-.22,.24-.46,.13-.75-.24-.58-.46-1.17-.69-1.76-.45-1.14-.9-2.29-1.35-3.43-.14-.36-.37-.54-.67-.48-.15,.03-.28,.14-.43,.21-.14,.07-.17,.16-.12,.32,.34,1.28,.73,2.53,1.25,3.75,.4,.93,.83,1.85,1.27,2.83Zm12.93,12.83s.04,.04,.04,.05c2.08,1.11,4.27,1.95,6.55,2.54,.05,.01,.14,.01,.16-.02,.15-.2,.34-.4,.3-.68-.03-.27-.2-.43-.45-.52-.32-.12-.64-.25-.96-.38-1.42-.56-2.85-1.11-4.27-1.68-.2-.08-.41-.12-.59,.01-.27,.21-.53,.44-.8,.67Z"/>
  </g>
</svg>