<?xml version="1.0" encoding="UTF-8"?>
<svg id="Capa_2" data-name="Capa 2" xmlns="http://www.w3.org/2000/svg" viewBox="0 0 66.39 66.39">
  <defs>
    <style>
      .cls-1 {
        fill: #fff;
        opacity: .71;
      }
    </style>
  </defs>
  <g id="Capa_1-2" data-name="Capa 1">
    <g>
      <rect class="cls-1" width="66.39" height="66.39" rx="13.57" ry="13.57"/>
      <g>
        <path d="M52.58,51.58v-2.25H13.83v2.25c1.2,0,2.32,0,3.45,0,3.82,0,7.63,0,11.45,0,.62,0,1.49-.22,1.53,.76,.03,.97-.81,.85-1.45,.85-5.05,0-10.09-.02-15.14,.02-1.13,0-1.63-.36-1.54-1.52,.06-.83,.07-1.67,0-2.5-.11-1.22,.39-1.72,1.59-1.57,.21,.02,.43-.03,.78-.06,.03-.53,.07-1.04,.07-1.55,0-9.57,0-19.13,0-28.7q0-2.5,2.57-2.5c1.27,0,2.54-.01,3.82-.03,.12,0,.25-.07,.54-.16,0-.74,.01-1.52,0-2.3-.01-.85,.31-1.28,1.24-1.28,6.98,.02,13.95,.02,20.93,0,.93,0,1.25,.43,1.24,1.28-.01,.78,0,1.56,0,2.48,1.66,0,3.14,0,4.63,0,2.29,0,2.3,.01,2.3,2.24,0,9.61,0,19.22,0,28.83,0,.52,0,1.04,0,1.47,.2,.13,.27,.22,.34,.22,2.04,.09,2.12-.21,2.1,2.28-.03,3.81,.46,3.32-3.38,3.34-4.3,.02-8.6,0-12.9,0-.31,0-.67,.1-.91-.03-.37-.19-.65-.55-.96-.83,.3-.25,.57-.57,.91-.73,.25-.12,.6-.03,.91-.03,4.39,0,8.78,0,13.16,0h1.48Zm-2.55-34.94H16.38v30.92h10.05c0-1.63-.04-3.2,0-4.77,.15-4.56,3.97-7.63,8.27-6.7,3.09,.67,5.19,3.38,5.27,6.84,.03,1.52,0,3.04,0,4.63h10.05V16.63Zm-6.85-3.86H23.25v1.91h19.94v-1.91Zm-10.85,25.01c-1.98,.23-3.78,1.65-4.02,3.61-.24,2.01-.05,4.07-.05,6.15h4.07v-9.75Zm5.83,9.77c0-2.06,.16-4.07-.05-6.04-.21-1.99-2.04-3.5-4.01-3.72v9.84c1.15,0,2.19,0,3.23,0,.25,0,.5-.04,.83-.07Z"/>
        <path d="M34.3,52.42c-.53,.34-.86,.71-1.17,.7-.24,0-.69-.56-.64-.74,.09-.31,.49-.67,.81-.73,.22-.04,.53,.39,1,.77Z"/>
        <path d="M24.19,22.91q0,2.83-2.87,2.83t-2.8-2.77,2.93-2.9,2.74,2.83Zm-3.88,1.02h2.08v-2.01h-2.08v2.01Z"/>
        <path d="M29.25,25.74q-2.82,0-2.82-2.88t2.78-2.79,2.89,2.94-2.84,2.73Zm-.99-3.87v2.05h2.02v-2.05h-2.02Z"/>
        <path d="M34.32,22.91q0-2.83,2.87-2.83t2.8,2.77-2.93,2.9-2.73-2.84Zm3.85,1.05v-2.08h-2.01v2.08h2.01Z"/>
        <path d="M45.09,20.08q2.8,0,2.8,2.77t-2.93,2.9q-2.73,0-2.73-2.7s0-.09,0-.13q0-2.83,2.87-2.83Zm.92,3.89c.38-2.28,.06-2.58-1.96-1.94v1.94h1.96Z"/>
        <path d="M18.53,30.84q0-2.86,2.83-2.86t2.83,2.87-2.77,2.8h-.13q-2.77,0-2.77-2.8Zm3.84,1.01v-2.05h-2.03v2.05h2.03Z"/>
        <path d="M29.28,33.64q-2.86,0-2.86-2.84t2.87-2.82,2.79,2.78s0,.09,0,.13q0,2.76-2.81,2.76Zm.99-1.78v-2.08h-2.01v2.08h2.01Z"/>
        <path d="M37.16,33.64q-2.83,0-2.83-2.86t2.76-2.8,2.9,2.93-2.83,2.74Zm1-1.8v-2.05h-2.03v2.05h2.03Z"/>
        <path d="M45.08,33.64q-2.86,0-2.86-2.84t2.87-2.83,2.8,2.77s0,.09,0,.13q0,2.76-2.8,2.76Zm1.03-3.79c-2.28-.38-2.58-.06-1.94,1.96h1.94v-1.96Z"/>
        <path d="M24.19,38.71q0,2.83-2.87,2.83t-2.8-2.77,2.93-2.9,2.73,2.83Zm-1.8-1h-2.04v2.02h2.04v-2.02Z"/>
        <path d="M47.89,38.67q0,2.87-2.83,2.87t-2.84-2.86,2.76-2.81s.09,0,.13,0q2.78,0,2.78,2.79Zm-1.82,1.09v-2.07h-2v2.07h2Z"/>
      </g>
    </g>
  </g>
</svg>