<?xml version="1.0" encoding="UTF-8"?>
<svg id="Capa_2" data-name="Capa 2" xmlns="http://www.w3.org/2000/svg" viewBox="0 0 66.39 66.39">
  <defs>
    <style>
      .cls-1 {
        fill: #fff;
        opacity: .71;
      }
    </style>
  </defs>
  <g id="Capa_1-2" data-name="Capa 1">
    <g>
      <rect class="cls-1" width="66.39" height="66.39" rx="13.57" ry="13.57"/>
      <g>
        <path d="M52.93,52.62H13.4V20.04h5.79v-4.63c.13-.01,.23-.03,.33-.03,2.12,0,4.23,0,6.35,0,.26,0,.33,.07,.33,.33-.01,1.33,0,2.66-.01,3.99,0,.25,.05,.34,.32,.34,4.44,0,8.88,0,13.32,0,.27,0,.32-.09,.32-.34-.01-1.34,0-2.68,0-4.02,0-.23,.07-.3,.3-.3,2.14,0,4.27,0,6.41,0,.24,0,.3,.08,.3,.31,0,1.32,0,2.64,0,3.96v.37h5.79V52.62Zm-19.77-6.97c4.14,0,8.28,0,12.42,0q.4,0,.4-.4c0-5.16,0-10.32,0-15.48q0-.41-.41-.41c-8.27,0-16.54,0-24.81,0q-.4,0-.4,.4c0,5.15,0,10.3,0,15.46q0,.45,.44,.45c4.12,0,8.24,0,12.36,0Zm17.47,4.66v-.41c0-4.62,0-9.24,0-13.86,0-2.13,0-4.25,0-6.38,0-.25-.07-.32-.32-.31-.52,.02-1.05,0-1.57,0-.49,0-.44-.05-.44,.43,0,5.92,0,11.84,0,17.76q0,.44-.44,.44c-9.77,0-19.54,0-29.32,0-.57,0-.51,.07-.51-.51,0-5.92,0-11.84,0-17.76,0-.28-.06-.38-.36-.36-.54,.02-1.09,.02-1.63,0-.29-.01-.36,.08-.36,.36,0,6.75,0,13.49,0,20.24q0,.36,.37,.36c11.39,0,22.79,0,34.18,0,.11,0,.22,0,.38,0Zm-17.46-23.28c2.53,0,5.06,0,7.59,0,3.19,0,6.37,0,9.56,0,.24,0,.33-.05,.32-.31-.01-1.36,0-2.72,0-4.08,0-.19-.04-.29-.26-.29-.99,0-1.99,0-2.98,0-.2,0-.26,.07-.26,.26,0,.6,0,1.2,0,1.8,0,.21-.07,.28-.28,.28-.59,0-1.18-.01-1.77,0-.22,0-.3-.07-.29-.29,.01-.56-.01-1.12,0-1.69,.01-.28-.07-.37-.36-.37-2.1,.01-4.2,0-6.3,0-3.87,0-7.74,0-11.61,0-.28,0-.38,.06-.37,.36,.02,.56,0,1.12,.01,1.69,0,.21-.06,.3-.28,.3-.59-.01-1.18-.01-1.77,0-.23,0-.29-.08-.29-.3,.01-.56,0-1.12,0-1.69,0-.26-.06-.36-.34-.36-2.5,0-5,0-7.5,0-.25,0-.32,.07-.32,.32,.01,1.27,0,2.55,0,3.82,0,.6-.08,.53,.51,.53,5.65,0,11.3,0,16.95,0Zm-9.31-8.17c0-.3,0-.6,0-.9,0-.2-.07-.26-.26-.26-.61,0-1.21,0-1.82,0-.18,0-.25,.06-.25,.24,0,.62,0,1.23,0,1.85,0,.19,.07,.24,.25,.24,.61,0,1.21-.01,1.82,0,.22,0,.27-.08,.27-.28-.01-.3,0-.6,0-.9Zm19.78-1.15c-.31,0-.62,0-.93,0-.17,0-.24,.06-.24,.23,0,.63,0,1.25,0,1.88,0,.18,.07,.22,.24,.22,.63,0,1.25,0,1.88,0,.15,0,.22-.05,.22-.21,0-.64,0-1.27,0-1.91,0-.16-.06-.21-.22-.21-.32,0-.64,0-.95,0Z"/>
        <path d="M27.37,31.71h6.96v.31c0,3.66,0,7.32,0,10.99,0,.26-.07,.33-.33,.33-2.11,0-4.21,0-6.32,0-.1,0-.2,0-.32-.01v-11.6Zm2.33,2.32c-.01,.06-.02,.09-.02,.12,0,2.21,0,4.42,0,6.62,0,.18,.07,.22,.23,.22,.59,0,1.18-.01,1.77,0,.26,0,.33-.07,.33-.33-.01-2.11,0-4.23,0-6.34,0-.1-.01-.2-.02-.3h-2.28Z"/>
        <path d="M36.68,31.71h2.29c0,.11,.01,.21,.01,.31,0,3.65,0,7.3,0,10.96,0,.29-.09,.36-.36,.35-.57-.02-1.14,0-1.71,0-.16,0-.26-.02-.26-.23,0-3.75,0-7.49,0-11.24,0-.04,.01-.09,.02-.15Z"/>
      </g>
    </g>
  </g>
</svg>