<?xml version="1.0" encoding="UTF-8"?>
<svg id="Capa_2" data-name="Capa 2" xmlns="http://www.w3.org/2000/svg" viewBox="0 0 66.39 66.39">
  <defs>
    <style>
      .cls-1 {
        fill: #fff;
        opacity: .71;
      }
    </style>
  </defs>
  <g id="Capa_1-2" data-name="Capa 1">
    <g>
      <rect class="cls-1" width="66.39" height="66.39" rx="13.57" ry="13.57"/>
      <path d="M20.67,46.2c-.72,.92-1.27,1.73-1.92,2.45-.61,.67-1.38,.86-2.07,.12-.64-.69-.38-1.41,.24-1.97,.72-.65,1.51-1.22,2.53-2.03-3.02-1.48-5.48-2.69-7.94-3.91-1.96-.97-1.89-1.51-.55-3.23,2.19-2.8,4.86-4.04,8.37-3.43,3.15,.56,5.61-.5,7.48-3.08,.4-.55,1.02-.95,1.7-1.57-.6-.39-.99-.67-1.41-.92-4.61-2.76-9.23-5.51-13.84-8.27-1.72-1.03-1.8-1.69-.39-3.13,.26-.27,.57-.5,.79-.8,1.67-2.26,3.68-3.29,6.49-2.03,.38,.17,1.11-.2,1.57-.49,.5-.32,.87-.84,1.31-1.26,.62-.59,1.33-.78,1.99-.15,.67,.64,.47,1.35-.1,1.99-.18,.21-.37,.41-.56,.62,1.94,1.13,2.57,1.06,4.08-.44,.2-.2,.37-.52,.6-.57,.65-.14,1.49-.46,1.97-.19,.78,.44,.56,1.27,0,1.93-.2,.24-.39,.5-.59,.76,1.68,.88,3.14,.99,4.3-.73,.18-.26,.44-.61,.71-.65,.54-.08,1.32-.2,1.62,.09,.31,.29,.28,1.08,.19,1.61-.06,.36-.49,.65-.75,.98,2.11,1.11,2.48,1.06,4.06-.52,1.65-1.65,3.29-3.32,4.97-4.95,2.42-2.36,5.58-2.48,7.74-.32,2.17,2.17,2.06,5.33-.29,7.74-1.57,1.6-3.06,3.3-4.79,4.72-1.63,1.34-1.6,2.71-.71,4.42,.33-.27,.62-.7,.97-.75,.57-.09,1.34-.13,1.73,.19,.28,.22,.11,1.06,.04,1.61-.03,.23-.32,.46-.55,.61-1.73,1.17-1.71,2.67-.83,4.41,.37-.3,.69-.74,1.09-.83,.52-.11,1.31-.13,1.61,.18,.29,.3,.17,1.07,.11,1.61-.02,.22-.32,.46-.54,.62-1.68,1.15-1.9,2.61-.86,4.43,.33-.26,.64-.67,1.02-.76,.53-.12,1.38-.2,1.6,.08,.3,.39,.15,1.14,.16,1.73,0,.1-.15,.24-.26,.31-2.04,1.25-1.98,3.04-1.25,4.96,.41,1.09,.08,1.87-.72,2.61-.89,.82-1.72,1.72-2.59,2.57-1.37,1.34-2.08,1.26-3.05-.36-2.79-4.65-5.56-9.31-8.34-13.96-.24-.4-.49-.78-.83-1.31-1.57,1.55-3.11,3.01-4.57,4.54-.23,.24-.18,.8-.18,1.21-.02,2.29,.08,4.59-.05,6.87-.05,.8-.47,1.68-.97,2.33-.8,1.02-1.8,1.89-2.74,2.8-1.17,1.12-1.99,.99-2.71-.47-1.14-2.3-2.22-4.63-3.34-6.95-.1-.2-.23-.38-.68-1.09Zm5.76,5.57c1.53-1.01,2.24-2.17,2.07-3.94-.17-1.81,.03-3.64-.06-5.46-.06-1.28,.37-2.19,1.27-3.08,6.84-6.77,13.64-13.58,20.46-20.38,.5-.49,1.02-.97,1.44-1.53,.79-1.04,.68-2.42-.19-3.33-.92-.96-2.34-1.11-3.43-.28-.52,.39-.97,.88-1.43,1.34-6.88,6.86-13.76,13.72-20.61,20.61-.86,.86-1.74,1.27-2.97,1.22-1.82-.08-3.65,.1-5.46-.06-1.76-.16-2.93,.52-3.89,2.08,2.35,1.15,4.67,2.32,7.03,3.41,.24,.11,.76-.16,1.03-.39,.77-.68,1.46-1.44,2.2-2.16,.64-.63,1.37-.91,2.08-.19,.73,.74,.37,1.45-.24,2.08-.72,.73-1.48,1.43-2.15,2.2-.23,.27-.47,.8-.36,1.05,1.03,2.29,2.13,4.54,3.22,6.81Zm17.94-23.47c-2.04,2.08-3.83,3.97-5.69,5.79-.65,.63-.74,1.08-.25,1.89,2.65,4.34,5.24,8.72,7.85,13.09,.18,.3,.41,.57,.62,.86,2.04-1.55,2.05-1.55,1.54-3.83-.8-3.6-1.61-7.19-2.43-10.78-.5-2.22-1.04-4.42-1.64-7.01Zm-7.55-7.21c-.45-.18-.69-.31-.95-.37-5.54-1.26-11.08-2.51-16.62-3.76-2.27-.51-2.29-.49-3.78,1.65,4.79,2.86,9.58,5.73,14.38,8.57,.21,.13,.7,.13,.85-.02,2.03-1.97,4.03-3.98,6.13-6.07Z"/>
    </g>
  </g>
</svg>