<?xml version="1.0" encoding="UTF-8"?>
<svg id="Capa_2" data-name="Capa 2" xmlns="http://www.w3.org/2000/svg" viewBox="0 0 66.39 66.39">
  <defs>
    <style>
      .cls-1 {
        fill: #fff;
        opacity: .71;
      }
    </style>
  </defs>
  <g id="Capa_1-2" data-name="Capa 1">
    <rect class="cls-1" width="66.39" height="66.39" rx="13.57" ry="13.57"/>
    <path d="M19.98,26.74c-.51-1.33-1.02-2.41-1.35-3.54-1.96-6.73,2.18-11.2,7.3-10.91,2.59,.15,5.18,2.07,6.12,4.64,.13,.36,.26,.73,.51,1.45,.67-.72,1.09-1.29,1.63-1.72,1.61-1.3,3.1-2.87,4.92-3.73,3.07-1.44,6.38-.38,8.33,2.17,1.87,2.45,1.89,5.83,.06,8.56-.29,.43-.58,.87-1.04,1.56,1.51,.32,2.81,.59,4.1,.88,3.63,.81,6.09,3.44,6.5,6.93,.35,2.97-1.36,5.89-4.61,7.17-1.5,.59-3.27,.51-5.02,.74,.46,1.66,.98,3.26,1.34,4.89,.74,3.31-1.05,6.99-3.99,8.38-2.8,1.33-6.77,.47-8.66-2-.73-.95-1.2-2.1-1.95-3.45-.44,.64-.78,1.17-1.16,1.66-2.11,2.66-4.61,4.51-8.26,4.35-5.72-.26-8.24-6.9-5.29-11.19,.37-.53,.75-1.06,1.03-1.46-2.33-.78-4.65-1.28-6.69-2.31-3.25-1.63-4.61-5.46-3.43-8.67,1.16-3.17,4.46-5.03,7.98-4.51,.44,.07,.9,.05,1.66,.09Zm10.84,10.12c-2.67,3.04-5.94,4.01-9.31,4.99,1.87,2.94,4.54,3.5,7.4,2.98,3.68-.66,5.39-3.36,5.96-6.96,.25,.06,.49,.12,.74,.18-.19,3.28-.37,6.56-.57,10.02,2.05,0,3.75-.99,4.88-2.77,2.55-4.01,1.61-7.61-1.92-10.8,.23-.18,.47-.36,.7-.54,2.65,1.85,5.3,3.7,8.01,5.59,1.43-1.78,1.07-3.8,.09-5.75-2.08-4.15-5.62-4.95-10.35-3.78,2.32-2.21,4.49-3.44,7.06-4,.55-.12,1.04-.52,1.55-.79-.33-.54-.55-1.22-1.01-1.6-3.67-2.97-9.33-1.44-11.17,2.98-.28,.68-.62,1.33-.93,1.99-.25-.07-.5-.14-.75-.21,.26-3.09,.52-6.18,.78-9.39-2.46,.42-4.27,1.54-5.43,3.65-2.04,3.71-.76,6.82,2.33,9.95-3.98-.55-5.97-3.38-8.69-5.09-1.2,3.19-.67,5.8,1.41,7.98,2.47,2.57,5.52,2.46,9.2,1.35Z"/>
  </g>
</svg>