<?xml version="1.0" encoding="UTF-8"?>
<svg id="Capa_2" data-name="Capa 2" xmlns="http://www.w3.org/2000/svg" viewBox="0 0 66.39 66.39">
  <defs>
    <style>
      .cls-1 {
        fill: #fff;
        opacity: .71;
      }
    </style>
  </defs>
  <g id="Capa_1-2" data-name="Capa 1">
    <g>
      <rect class="cls-1" width="66.39" height="66.39" rx="13.57" ry="13.57"/>
      <g>
        <path d="M24.37,27.32c.1-.12,.18-.2,.25-.3,.48-.6,.96-1.2,1.44-1.81,.28-.35,.63-.57,1.09-.57,.61,0,1.22,0,1.83,0,.79,0,1.45,.31,2.05,.8,1.17,.97,2.35,1.93,3.51,2.91,.19,.16,.31,.17,.51,0,1.15-.93,2.32-1.84,3.48-2.75,1.14-.9,2.43-1,3.62-.3,1.45,.85,1.89,2.88,.91,4.25-.23,.32-.5,.61-.81,.86-1.81,1.45-3.64,2.88-5.47,4.31-1.35,1.06-2.81,1.03-4.14-.06-.57-.47-1.14-.94-1.75-1.44-.03,.13-.06,.21-.07,.29-.35,2.65-.69,5.31-1.03,7.96-.26,2.05-.53,4.1-.78,6.15-.23,1.93-.43,3.87-.63,5.8-.08,.76-.2,1.49-.77,2.06-.48,.48-1.06,.76-1.73,.77-1.01,.02-2.03,.02-3.04,0-1.2-.03-2.22-.92-2.4-2.11-.24-1.59-.45-3.19-.67-4.79-.21-1.54-.41-3.07-.62-4.61-.15-1.08-.3-2.17-.46-3.25-.02-.11-.1-.25-.19-.31-1.19-.77-1.81-1.88-1.98-3.26-.34-2.63-.7-5.26-1.04-7.9-.36-2.84,1.73-5.3,4.58-5.42,.48-.02,.95,0,1.43-.01,.51-.01,.89,.2,1.2,.59,.47,.6,.95,1.19,1.42,1.78,.07,.09,.15,.18,.26,.3Zm0,26.8c.42,0,.83,0,1.25,0,.42,0,.53-.09,.57-.49,.17-1.57,.33-3.15,.52-4.72,.28-2.42,.57-4.83,.87-7.25,.26-2.07,.54-4.14,.81-6.21,.19-1.48,.38-2.95,.58-4.43,.07-.53,.4-.87,.92-.95,.37-.06,.69,.08,.98,.32,1.05,.88,2.11,1.75,3.16,2.62,.52,.43,.89,.43,1.41,.02,1.7-1.34,3.39-2.67,5.09-4.01,.22-.18,.45-.35,.64-.56,.24-.26,.29-.57,.16-.91-.12-.3-.36-.51-.67-.49-.26,.01-.56,.11-.77,.27-1.42,1.09-2.83,2.21-4.24,3.32-.67,.53-1.11,.52-1.76-.02-1.2-.99-2.39-1.98-3.59-2.96-1.26-1.03-.77-.84-2.46-.87-.21,0-.34,.07-.46,.23-.58,.73-1.16,1.46-1.75,2.18-.75,.9-1.8,.9-2.54,0-.42-.52-.84-1.04-1.26-1.56q-.71-.89-1.84-.82c-1.11,.07-2.1,.95-2.33,2.04-.15,.72,.03,1.41,.12,2.11,.28,2.2,.6,4.4,.87,6.6,.11,.91,.49,1.6,1.35,1.97,.49,.21,.7,.59,.77,1.11,.2,1.55,.42,3.09,.63,4.64,.21,1.53,.41,3.05,.62,4.58,.17,1.25,.34,2.49,.51,3.74,.06,.41,.15,.49,.54,.5,.43,0,.85,0,1.28,0Z"/>
        <path d="M50.95,43.31c-.12,2.4-.91,4.57-2.1,6.61-1.2,2.05-2.69,3.88-4.38,5.54-1.13,1.11-2.75,1.13-3.87,.02-1.98-1.94-3.69-4.09-4.95-6.58-.87-1.72-1.41-3.52-1.49-5.47-.13-3.29,1.95-6.62,4.98-7.91,2.75-1.17,5.41-.97,7.92,.62,1.87,1.18,3.07,2.89,3.58,5.05,.16,.69,.21,1.4,.31,2.1Zm-2.21-.03c-.03-.35-.06-.71-.11-1.06-.05-.3-.11-.6-.2-.89-1.22-3.8-5.49-5.51-8.96-3.52-1.96,1.12-3.01,2.87-3.13,5.14-.08,1.45,.29,2.81,.86,4.13,1.14,2.64,2.9,4.83,4.91,6.85,.28,.28,.57,.25,.88-.06,1.67-1.68,3.16-3.51,4.28-5.61,.83-1.55,1.39-3.19,1.47-4.98Z"/>
        <path d="M24.42,23.94c-2.9,0-5.24-2.32-5.25-5.23-.01-2.89,2.34-5.25,5.23-5.25,2.89,0,5.24,2.34,5.25,5.23,0,2.9-2.32,5.24-5.23,5.25Zm-.03-2.18c1.68,.01,3.06-1.34,3.08-3.03,.02-1.67-1.35-3.06-3.03-3.09-1.68-.03-3.08,1.37-3.09,3.06,0,1.69,1.35,3.05,3.04,3.06Z"/>
        <path d="M38.52,43.17c0-2.18,1.8-4.01,3.99-3.99,2.26,.02,3.99,1.77,4,4,.01,2.19-1.8,3.98-3.98,3.99-2.18,.01-4.01-1.82-4-4.01Zm2.18,0c0,1,.81,1.82,1.81,1.82,1.01,0,1.84-.83,1.83-1.84,0-1-.84-1.82-1.83-1.81-.99,0-1.81,.83-1.81,1.83Z"/>
      </g>
    </g>
  </g>
</svg>